<?xml version="1.0" encoding="utf-8"?>
<!-- Generator: Adobe Illustrator 16.0.0, SVG Export Plug-In . SVG Version: 6.00 Build 0)  -->
<!DOCTYPE svg PUBLIC "-//W3C//DTD SVG 1.1//EN" "http://www.w3.org/Graphics/SVG/1.1/DTD/svg11.dtd">
<svg version="1.1" id="Layer_1" xmlns="http://www.w3.org/2000/svg" xmlns:xlink="http://www.w3.org/1999/xlink" x="0px" y="0px"
	 width="82px" height="82px" viewBox="0 0 82 82" enable-background="new 0 0 82 82" xml:space="preserve">
<g>
	<path fill="#DB7127" d="M41,82C18.393,82,0,63.607,0,41S18.393,0,41,0s41,18.393,41,41S63.607,82,41,82z M41,2
		C19.495,2,2,19.495,2,41s17.495,39,39,39s39-17.495,39-39S62.505,2,41,2z"/>
</g>
<g>
	<path fill="#DB7127" d="M42,27c-2.757,0-5-2.243-5-5s2.243-5,5-5s5,2.243,5,5S44.757,27,42,27z M42,19c-1.654,0-3,1.346-3,3
		s1.346,3,3,3s3-1.346,3-3S43.654,19,42,19z"/>
</g>
<g>
	<g>
		<path fill="#DB7127" d="M53,27.5c-1.379,0-2.5-1.122-2.5-2.5s1.121-2.5,2.5-2.5s2.5,1.122,2.5,2.5S54.379,27.5,53,27.5z M53,23.5
			c-0.827,0-1.5,0.673-1.5,1.5s0.673,1.5,1.5,1.5s1.5-0.673,1.5-1.5S53.827,23.5,53,23.5z"/>
	</g>
</g>
<g>
	<path fill="#DB7127" d="M29,27c-1.654,0-3-1.346-3-3s1.346-3,3-3s3,1.346,3,3S30.654,27,29,27z M29,23c-0.551,0-1,0.449-1,1
		s0.449,1,1,1s1-0.449,1-1S29.551,23,29,23z"/>
</g>
<path fill="#DB7127" d="M62.781,59.375L47,39.649V31h2c0.553,0,1-0.448,1-1s-0.447-1-1-1h-3H36h-3c-0.552,0-1,0.448-1,1s0.448,1,1,1
	h2v8.649l-6.104,7.63c-0.026,0.025-0.043,0.057-0.066,0.084l-9.61,12.012C19.077,59.553,19,59.772,19,60c0,2.757,2.243,5,5,5h34
	c2.757,0,5-2.243,5-5C63,59.772,62.923,59.553,62.781,59.375z M36.781,40.625C36.923,40.447,37,40.227,37,40v-9h8v9
	c0,0.227,0.077,0.447,0.219,0.625L50.319,47H31.681L36.781,40.625z M58,63H24c-1.543,0-2.818-1.171-2.982-2.672L30.081,49H51.92
	l9.062,11.328C60.818,61.829,59.543,63,58,63z"/>
</svg>
