<?xml version="1.0" encoding="UTF-8" standalone="no"?>
<!DOCTYPE svg PUBLIC "-//W3C//DTD SVG 1.1//EN" "http://www.w3.org/Graphics/SVG/1.1/DTD/svg11.dtd">
<svg width="100%" height="100%" viewBox="0 0 135 173" version="1.1" xmlns="http://www.w3.org/2000/svg" xmlns:xlink="http://www.w3.org/1999/xlink" xml:space="preserve" style="fill-rule:evenodd;clip-rule:evenodd;stroke-linejoin:round;stroke-miterlimit:1.41421;">
    <g transform="matrix(0.976416,0,0,0.976416,-102.641,-1269.8)">
        <text x="119.956px" y="1439.02px" style="font-family:'RobotoSlab-Regular', 'Roboto Slab';font-size:22px;fill:rgb(91,45,16);">Cur<tspan x="156.394px " y="1439.02px ">l</tspan>y Hair</text>
    </g>
    <g transform="matrix(0.976416,0,0,0.976416,-102.641,-1269.8)">
        <text x="106.266px" y="1470.02px" style="font-family:'RobotoSlab-Regular', 'Roboto Slab';font-size:18px;fill:rgb(85,85,85);">W<tspan x="122.763px " y="1470.02px ">a</tspan>sh 1x / week</text>
    </g>
    <g transform="matrix(0.976416,0,0,0.976416,-102.641,-1269.8)">
        <path d="M126.821,1374.56C126.821,1374.56 129.724,1363.38 133.937,1358.23C138.8,1352.29 200.229,1346.46 218.956,1353.02C220.015,1353.39 224.956,1367.02 226.956,1372.02C227.683,1373.84 228.028,1383.93 228.956,1387.02C230.581,1392.42 232.721,1391.17 232.721,1392.62L238.519,1369.71C240.072,1367.88 241.517,1365.56 242.055,1362.83C242.688,1359.58 237.998,1356.11 235.956,1353.02C236.648,1347.84 238.635,1340.08 230.956,1337.02C230.397,1330.97 227.432,1327.15 217.956,1326.02C216.433,1320.53 212.725,1310.1 203.869,1310.1C203.219,1310.1 202.544,1310.14 201.861,1310.23C199.745,1308.5 194.553,1301.92 187.657,1301.93C184.248,1301.93 180.889,1302.8 177.643,1304.53C174.017,1303.1 170.612,1302.39 167.49,1302.39C159.133,1302.39 154.895,1307.33 153.157,1310.14C152.537,1310.08 151.914,1310.04 151.311,1310.04C142.959,1310.04 138.677,1316.29 137.095,1320.83C127.538,1321.91 124.251,1330.82 123.686,1336.89C115.999,1339.95 115.014,1348.51 115.71,1353.67C113.353,1357.32 113.463,1360.52 114.02,1362.62M114.02,1362.62C114.604,1364.86 115.917,1366.78 117.433,1368.37C116.747,1371.36 117.66,1380.93 118.34,1386.94C118.545,1388.75 120.828,1389.42 121.981,1388.02C122.992,1386.78 123.952,1385.41 124.305,1384.11C125.37,1380.17 126.611,1375.95 126.821,1374.56" style="fill:rgb(57,43,19);fill-rule:nonzero;"/>
    </g>
    <g transform="matrix(0.976416,0,0,0.976416,-102.641,-1269.8)">
        <path d="M154.619,1353.03C155.574,1357.31 150.23,1362.14 142.684,1363.83C135.138,1365.51 128.246,1363.41 127.292,1359.13C126.337,1354.86 131.681,1350.03 139.227,1348.34C146.773,1346.66 153.664,1348.76 154.619,1353.03" style="fill:rgb(57,43,19);fill-rule:nonzero;"/>
    </g>
    <g transform="matrix(0.976416,0,0,0.976416,-102.641,-1269.8)">
        <path d="M176.346,1348.11C179.11,1352.89 175.647,1360.07 168.612,1364.13C161.578,1368.19 153.634,1367.6 150.87,1362.82C148.105,1358.03 151.568,1350.86 158.603,1346.79C165.638,1342.73 173.581,1343.32 176.346,1348.11" style="fill:rgb(57,43,19);fill-rule:nonzero;"/>
    </g>
    <g transform="matrix(0.976416,0,0,0.976416,-102.641,-1269.8)">
        <path d="M200.878,1352.5C201.995,1357.51 196.383,1363.02 188.341,1364.82C180.3,1366.61 172.875,1364.01 171.757,1359.01C170.64,1354 176.253,1348.49 184.294,1346.69C192.336,1344.9 199.761,1347.5 200.878,1352.5" style="fill:rgb(57,43,19);fill-rule:nonzero;"/>
    </g>
    <g transform="matrix(0.976416,0,0,0.976416,-102.641,-1269.8)">
        <path d="M216.75,1346.39C218.333,1351.02 214.233,1356.62 207.592,1358.89C200.951,1361.16 194.284,1359.24 192.701,1354.61C191.118,1349.98 195.218,1344.39 201.859,1342.12C208.5,1339.85 215.167,1341.76 216.75,1346.39" style="fill:rgb(57,43,19);fill-rule:nonzero;"/>
    </g>
    <g transform="matrix(0.976416,0,0,0.976416,-102.641,-1269.8)">
        <path d="M235.683,1363C233.223,1366.67 227.237,1366.97 222.312,1363.66C217.388,1360.36 215.39,1354.71 217.849,1351.04C220.309,1347.37 226.296,1347.07 231.22,1350.37C236.145,1353.67 238.143,1359.33 235.683,1363" style="fill:rgb(57,43,19);fill-rule:nonzero;"/>
    </g>
</svg>
