<?xml version="1.0" encoding="UTF-8" standalone="no"?>
<!DOCTYPE svg PUBLIC "-//W3C//DTD SVG 1.1//EN" "http://www.w3.org/Graphics/SVG/1.1/DTD/svg11.dtd">
<svg width="100%" height="100%" viewBox="0 0 270 75" version="1.1" xmlns="http://www.w3.org/2000/svg" xmlns:xlink="http://www.w3.org/1999/xlink" xml:space="preserve" style="fill-rule:evenodd;clip-rule:evenodd;stroke-linejoin:round;stroke-miterlimit:1.41421;">
    <g transform="matrix(0.84478,-2.06911e-16,2.06911e-16,0.84478,-148.42,-1810.68)">
        <text x="210.994px" y="2196.43px" style="font-family:'OpenSans-ExtraboldItalic', 'Open Sans', sans-serif;font-weight:800;font-style:italic;font-size:22.176px;fill:rgb(34,34,34);">Dirt</text>
    </g>
    <g transform="matrix(0.84478,-2.06911e-16,2.06911e-16,0.84478,-148.42,-1810.68)">
        <text x="296.935px" y="2196.14px" style="font-family:'OpenSans-ExtraboldItalic', 'Open Sans', sans-serif;font-weight:800;font-style:italic;font-size:22.176px;fill:rgb(34,34,34);">Sweat</text>
    </g>
    <g transform="matrix(0.84478,-2.06911e-16,2.06911e-16,0.84478,-148.42,-1810.68)">
        <text x="410.719px" y="2195.72px" style="font-family:'OpenSans-ExtraboldItalic', 'Open Sans', sans-serif;font-weight:800;font-style:italic;font-size:22.176px;fill:rgb(34,34,34);">Oil</text>
    </g>
    <g transform="matrix(0.84478,-2.06911e-16,2.06911e-16,0.84478,-148.42,-1810.68)">
        <g opacity="0.300003">
            <g>
                <path d="M234.877,2147.4L235.14,2147.41L235.402,2147.41L235.664,2147.41L235.926,2147.42L236.187,2147.43L236.448,2147.44L236.709,2147.45L236.969,2147.47L237.229,2147.48L237.488,2147.5L237.747,2147.52L238.005,2147.54L238.263,2147.56L238.521,2147.59L238.778,2147.61L239.034,2147.64L239.29,2147.67L239.546,2147.7L239.801,2147.73L240.056,2147.76L240.31,2147.8L240.564,2147.83L240.817,2147.87L241.07,2147.91L241.322,2147.95L241.574,2147.99L241.825,2148.04L242.076,2148.08L242.326,2148.13L242.576,2148.18L242.825,2148.23L243.074,2148.28L243.322,2148.33L243.569,2148.39L243.816,2148.45L244.063,2148.5L244.308,2148.56L244.554,2148.62L244.798,2148.68L245.042,2148.75L245.286,2148.81L245.528,2148.88L245.771,2148.95L246.012,2149.02L246.253,2149.09L246.494,2149.16L246.734,2149.23L246.973,2149.31L247.211,2149.39L247.449,2149.46L247.686,2149.54L247.923,2149.62L248.159,2149.71L248.394,2149.79L248.628,2149.88L248.862,2149.96L249.096,2150.05L249.328,2150.14L249.56,2150.23L249.791,2150.32L250.022,2150.41L250.251,2150.51L250.48,2150.61L250.709,2150.7L250.936,2150.8L251.163,2150.9L251.389,2151L251.615,2151.11L251.84,2151.21L252.063,2151.32L252.287,2151.42L252.509,2151.53L252.731,2151.64L252.952,2151.75L253.172,2151.86L253.391,2151.97L253.61,2152.09L253.828,2152.2L254.045,2152.32L254.261,2152.44L254.476,2152.56L254.691,2152.68L254.905,2152.8L255.118,2152.93L255.33,2153.05L255.541,2153.18L255.752,2153.3L255.961,2153.43L256.17,2153.56L256.378,2153.69L256.585,2153.82L256.792,2153.96L256.997,2154.09L257.202,2154.23L257.405,2154.36L257.608,2154.5L257.81,2154.64L258.011,2154.78L258.211,2154.92L258.411,2155.07L258.609,2155.21L258.806,2155.35L259.003,2155.5L259.199,2155.65L259.393,2155.8L259.587,2155.95L259.78,2156.1L259.972,2156.25L260.163,2156.4L260.353,2156.55L260.542,2156.71L260.731,2156.87L260.918,2157.02L261.104,2157.18L261.289,2157.34L261.474,2157.5L261.657,2157.66L261.839,2157.83L262.021,2157.99L262.201,2158.16L262.38,2158.32L262.559,2158.49L262.736,2158.66L262.913,2158.83L263.088,2159L263.262,2159.17L263.436,2159.34L263.608,2159.51L263.779,2159.69L263.949,2159.86L264.119,2160.04L264.287,2160.22L264.454,2160.39L264.62,2160.57L264.785,2160.76L264.949,2160.94L265.111,2161.12L265.273,2161.3L265.434,2161.49L265.593,2161.67L265.752,2161.86L265.909,2162.05L266.065,2162.23L266.22,2162.42L266.374,2162.61L266.527,2162.8L266.679,2162.99L266.83,2163.19L266.979,2163.38L267.128,2163.58L267.275,2163.77L267.421,2163.97L267.566,2164.17L267.71,2164.37L267.852,2164.56L267.994,2164.76L268.134,2164.97L268.273,2165.17L268.411,2165.37L268.548,2165.57L268.683,2165.78L268.818,2165.98L268.951,2166.19L269.083,2166.4L269.213,2166.61L269.343,2166.81L269.471,2167.02L269.598,2167.23L269.724,2167.45L269.849,2167.66L269.972,2167.87L270.094,2168.08L270.215,2168.3L270.334,2168.51L270.453,2168.73L270.57,2168.95L270.686,2169.17L270.8,2169.38L270.913,2169.6L271.025,2169.82L271.136,2170.05L271.245,2170.27L271.353,2170.49L271.46,2170.71L271.565,2170.94L271.669,2171.16L271.772,2171.39L271.873,2171.61L271.974,2171.84L272.072,2172.07L272.17,2172.3L272.266,2172.52L272.36,2172.75L272.454,2172.98L272.546,2173.22L272.636,2173.45L272.726,2173.68L272.813,2173.91L272.9,2174.15L272.985,2174.38L273.069,2174.62L273.151,2174.85L273.232,2175.09L273.311,2175.33L273.389,2175.56L273.466,2175.8L273.541,2176.04L273.615,2176.28L273.687,2176.52L273.758,2176.76L273.827,2177.01L273.895,2177.25L273.962,2177.49L274.027,2177.73L274.091,2177.98L274.153,2178.22L274.213,2178.47L274.273,2178.71L274.33,2178.96L274.386,2179.21L274.441,2179.45L274.494,2179.7L274.546,2179.95L274.596,2180.2L274.645,2180.45L274.692,2180.7L274.738,2180.95L274.782,2181.2L274.824,2181.45L274.865,2181.7L274.905,2181.96L274.942,2182.21L274.979,2182.47L275.014,2182.72L275.047,2182.97L275.078,2183.23L275.108,2183.49L275.137,2183.74L275.164,2184L275.189,2184.26L275.213,2184.51L275.235,2184.77L275.255,2185.03L275.274,2185.29L275.291,2185.55L275.307,2185.81L275.321,2186.07L275.333,2186.33L275.344,2186.59L275.353,2186.85L275.361,2187.11L275.367,2187.37L275.371,2187.64L275.373,2187.9L275.374,2188.16L275.373,2188.43L275.371,2188.69L275.367,2188.95L275.361,2189.21L275.353,2189.47L275.344,2189.74L275.333,2190L275.321,2190.26L275.307,2190.52L275.291,2190.78L275.274,2191.04L275.255,2191.3L275.235,2191.55L275.213,2191.81L275.189,2192.07L275.164,2192.33L275.137,2192.58L275.108,2192.84L275.078,2193.09L275.047,2193.35L275.014,2193.6L274.979,2193.86L274.942,2194.11L274.905,2194.37L274.865,2194.62L274.824,2194.87L274.782,2195.12L274.738,2195.37L274.692,2195.62L274.645,2195.87L274.596,2196.12L274.546,2196.37L274.494,2196.62L274.441,2196.87L274.386,2197.12L274.33,2197.36L274.273,2197.61L274.213,2197.86L274.153,2198.1L274.091,2198.35L274.027,2198.59L273.962,2198.83L273.895,2199.08L273.827,2199.32L273.758,2199.56L273.687,2199.8L273.615,2200.04L273.541,2200.28L273.466,2200.52L273.389,2200.76L273.311,2201L273.232,2201.23L273.151,2201.47L273.069,2201.71L272.985,2201.94L272.9,2202.18L272.813,2202.41L272.726,2202.64L272.636,2202.88L272.546,2203.11L272.454,2203.34L272.36,2203.57L272.266,2203.8L272.17,2204.03L272.072,2204.26L271.974,2204.48L271.873,2204.71L271.772,2204.94L271.669,2205.16L271.565,2205.39L271.46,2205.61L271.353,2205.84L271.245,2206.06L271.136,2206.28L271.025,2206.5L270.913,2206.72L270.8,2206.94L270.686,2207.16L270.57,2207.38L270.453,2207.59L270.334,2207.81L270.215,2208.02L270.094,2208.24L269.972,2208.45L269.849,2208.66L269.724,2208.88L269.598,2209.09L269.471,2209.3L269.343,2209.51L269.213,2209.72L269.083,2209.93L268.951,2210.13L268.818,2210.34L268.683,2210.55L268.548,2210.75L268.411,2210.95L268.273,2211.16L268.134,2211.36L267.994,2211.56L267.852,2211.76L267.71,2211.96L267.566,2212.16L267.421,2212.35L267.275,2212.55L267.128,2212.75L266.979,2212.94L266.83,2213.14L266.679,2213.33L266.527,2213.52L266.374,2213.71L266.22,2213.9L266.065,2214.09L265.909,2214.28L265.752,2214.47L265.593,2214.65L265.434,2214.84L265.273,2215.02L265.111,2215.2L264.949,2215.39L264.785,2215.57L264.62,2215.75L264.454,2215.93L264.287,2216.11L264.119,2216.28L263.949,2216.46L263.779,2216.64L263.608,2216.81L263.436,2216.98L263.262,2217.16L263.088,2217.33L262.913,2217.5L262.736,2217.67L262.559,2217.84L262.38,2218L262.201,2218.17L262.021,2218.33L261.839,2218.5L261.657,2218.66L261.474,2218.82L261.289,2218.98L261.104,2219.14L260.918,2219.3L260.731,2219.46L260.542,2219.61L260.353,2219.77L260.163,2219.92L259.972,2220.08L259.78,2220.23L259.587,2220.38L259.393,2220.53L259.199,2220.68L259.003,2220.82L258.806,2220.97L258.609,2221.11L258.411,2221.26L258.211,2221.4L258.011,2221.54L257.81,2221.68L257.608,2221.82L257.405,2221.96L257.202,2222.1L256.997,2222.23L256.792,2222.37L256.585,2222.5L256.378,2222.63L256.17,2222.76L255.961,2222.89L255.752,2223.02L255.541,2223.15L255.33,2223.27L255.118,2223.4L254.905,2223.52L254.691,2223.64L254.476,2223.76L254.261,2223.88L254.045,2224L253.828,2224.12L253.61,2224.23L253.391,2224.35L253.172,2224.46L252.952,2224.57L252.731,2224.68L252.509,2224.79L252.287,2224.9L252.063,2225.01L251.84,2225.11L251.615,2225.22L251.389,2225.32L251.163,2225.42L250.936,2225.52L250.709,2225.62L250.48,2225.72L250.251,2225.81L250.022,2225.91L249.791,2226L249.56,2226.09L249.328,2226.18L249.096,2226.27L248.862,2226.36L248.629,2226.45L248.394,2226.53L248.159,2226.62L247.923,2226.7L247.686,2226.78L247.449,2226.86L247.211,2226.94L246.973,2227.01L246.734,2227.09L246.494,2227.16L246.253,2227.24L246.012,2227.31L245.771,2227.38L245.528,2227.44L245.286,2227.51L245.042,2227.58L244.798,2227.64L244.554,2227.7L244.308,2227.76L244.063,2227.82L243.816,2227.88L243.569,2227.93L243.322,2227.99L243.074,2228.04L242.825,2228.09L242.576,2228.14L242.326,2228.19L242.076,2228.24L241.826,2228.28L241.574,2228.33L241.322,2228.37L241.07,2228.41L240.817,2228.45L240.564,2228.49L240.31,2228.53L240.056,2228.56L239.801,2228.6L239.546,2228.63L239.29,2228.66L239.034,2228.68L238.778,2228.71L238.521,2228.74L238.263,2228.76L238.005,2228.78L237.747,2228.8L237.488,2228.82L237.229,2228.84L236.969,2228.86L236.709,2228.87L236.448,2228.88L236.187,2228.89L235.926,2228.9L235.664,2228.91L235.402,2228.91L235.14,2228.92L234.877,2228.92L234.614,2228.92L234.35,2228.92L234.088,2228.92L233.825,2228.91L233.563,2228.91L233.301,2228.9L233.04,2228.89L232.779,2228.88L232.519,2228.87L232.259,2228.86L231.999,2228.84L231.74,2228.82L231.481,2228.8L231.222,2228.78L230.965,2228.76L230.707,2228.74L230.45,2228.71L230.193,2228.68L229.937,2228.66L229.681,2228.63L229.426,2228.6L229.172,2228.56L228.917,2228.53L228.663,2228.49L228.41,2228.45L228.157,2228.41L227.905,2228.37L227.653,2228.33L227.402,2228.28L227.151,2228.24L226.901,2228.19L226.652,2228.14L226.402,2228.09L226.154,2228.04L225.906,2227.99L225.658,2227.93L225.412,2227.88L225.165,2227.82L224.919,2227.76L224.674,2227.7L224.43,2227.64L224.186,2227.58L223.942,2227.51L223.699,2227.44L223.457,2227.38L223.215,2227.31L222.974,2227.24L222.734,2227.16L222.494,2227.09L222.255,2227.01L222.017,2226.94L221.779,2226.86L221.542,2226.78L221.305,2226.7L221.069,2226.62L220.834,2226.53L220.599,2226.45L220.366,2226.36L220.132,2226.27L219.9,2226.18L219.668,2226.09L219.437,2226L219.206,2225.91L218.977,2225.81L218.748,2225.72L218.519,2225.62L218.292,2225.52L218.065,2225.42L217.839,2225.32L217.613,2225.22L217.388,2225.11L217.165,2225.01L216.941,2224.9L216.719,2224.79L216.497,2224.68L216.276,2224.57L216.056,2224.46L215.837,2224.35L215.618,2224.23L215.4,2224.12L215.183,2224L214.967,2223.88L214.752,2223.76L214.537,2223.64L214.323,2223.52L214.11,2223.4L213.898,2223.27L213.687,2223.15L213.476,2223.02L213.267,2222.89L213.058,2222.76L212.85,2222.63L212.643,2222.5L212.437,2222.37L212.231,2222.23L212.027,2222.1L211.823,2221.96L211.62,2221.82L211.418,2221.68L211.217,2221.54L211.017,2221.4L210.818,2221.26L210.619,2221.11L210.422,2220.97L210.225,2220.82L210.029,2220.68L209.835,2220.53L209.641,2220.38L209.448,2220.23L209.256,2220.08L209.065,2219.92L208.875,2219.77L208.686,2219.61L208.498,2219.46L208.31,2219.3L208.124,2219.14L207.939,2218.98L207.755,2218.82L207.571,2218.66L207.389,2218.5L207.208,2218.33L207.027,2218.17L206.848,2218L206.669,2217.84L206.492,2217.67L206.316,2217.5L206.14,2217.33L205.966,2217.16L205.793,2216.98L205.62,2216.81L205.449,2216.64L205.279,2216.46L205.11,2216.28L204.942,2216.11L204.775,2215.93L204.609,2215.75L204.444,2215.57L204.28,2215.39L204.117,2215.2L203.955,2215.02L203.795,2214.84L203.635,2214.65L203.477,2214.47L203.319,2214.28L203.163,2214.09L203.008,2213.9L202.854,2213.71L202.701,2213.52L202.549,2213.33L202.399,2213.14L202.249,2212.94L202.101,2212.75L201.953,2212.55L201.807,2212.35L201.662,2212.16L201.519,2211.96L201.376,2211.76L201.235,2211.56L201.094,2211.36L200.955,2211.16L200.817,2210.95L200.681,2210.75L200.545,2210.55L200.411,2210.34L200.278,2210.13L200.146,2209.93L200.015,2209.72L199.885,2209.51L199.757,2209.3L199.63,2209.09L199.504,2208.88L199.38,2208.66L199.256,2208.45L199.134,2208.24L199.013,2208.02L198.894,2207.81L198.776,2207.59L198.659,2207.38L198.543,2207.16L198.428,2206.94L198.315,2206.72L198.203,2206.5L198.093,2206.28L197.983,2206.06L197.875,2205.84L197.769,2205.61L197.663,2205.39L197.559,2205.16L197.456,2204.94L197.355,2204.71L197.255,2204.48L197.156,2204.26L197.059,2204.03L196.963,2203.8L196.868,2203.57L196.775,2203.34L196.683,2203.11L196.592,2202.88L196.503,2202.64L196.415,2202.41L196.328,2202.18L196.243,2201.94L196.16,2201.71L196.077,2201.47L195.997,2201.23L195.917,2201L195.839,2200.76L195.763,2200.52L195.687,2200.28L195.614,2200.04L195.541,2199.8L195.47,2199.56L195.401,2199.32L195.333,2199.08L195.266,2198.83L195.201,2198.59L195.138,2198.35L195.076,2198.1L195.015,2197.86L194.956,2197.61L194.898,2197.36L194.842,2197.12L194.787,2196.87L194.734,2196.62L194.682,2196.37L194.632,2196.12L194.584,2195.87L194.536,2195.62L194.491,2195.37L194.447,2195.12L194.404,2194.87L194.363,2194.62L194.324,2194.37L194.286,2194.11L194.25,2193.86L194.215,2193.6L194.182,2193.35L194.15,2193.09L194.12,2192.84L194.092,2192.58L194.065,2192.33L194.039,2192.07L194.016,2191.81L193.994,2191.55L193.973,2191.3L193.954,2191.04L193.937,2190.78L193.921,2190.52L193.907,2190.26L193.895,2190L193.884,2189.74L193.875,2189.47L193.868,2189.21L193.862,2188.95L193.858,2188.69L193.855,2188.43L193.854,2188.16L193.855,2187.9L193.858,2187.64L193.862,2187.37L193.868,2187.11L193.875,2186.85L193.884,2186.59L193.895,2186.33L193.907,2186.07L193.921,2185.81L193.937,2185.55L193.954,2185.29L193.973,2185.03L193.994,2184.77L194.016,2184.51L194.039,2184.26L194.065,2184L194.092,2183.74L194.12,2183.49L194.15,2183.23L194.182,2182.97L194.215,2182.72L194.25,2182.47L194.286,2182.21L194.324,2181.96L194.363,2181.7L194.404,2181.45L194.447,2181.2L194.491,2180.95L194.536,2180.7L194.584,2180.45L194.632,2180.2L194.682,2179.95L194.734,2179.7L194.787,2179.45L194.842,2179.21L194.898,2178.96L194.956,2178.71L195.015,2178.47L195.076,2178.22L195.138,2177.98L195.201,2177.73L195.266,2177.49L195.333,2177.25L195.401,2177.01L195.47,2176.76L195.541,2176.52L195.614,2176.28L195.687,2176.04L195.763,2175.8L195.839,2175.56L195.917,2175.33L195.997,2175.09L196.077,2174.85L196.16,2174.62L196.243,2174.38L196.328,2174.15L196.415,2173.91L196.503,2173.68L196.592,2173.45L196.683,2173.22L196.775,2172.98L196.868,2172.75L196.963,2172.52L197.059,2172.3L197.156,2172.07L197.255,2171.84L197.355,2171.61L197.456,2171.39L197.559,2171.16L197.663,2170.94L197.769,2170.71L197.875,2170.49L197.983,2170.27L198.093,2170.05L198.203,2169.82L198.315,2169.6L198.428,2169.38L198.543,2169.17L198.659,2168.95L198.776,2168.73L198.894,2168.51L199.013,2168.3L199.134,2168.08L199.256,2167.87L199.38,2167.66L199.504,2167.45L199.63,2167.23L199.757,2167.02L199.885,2166.81L200.015,2166.61L200.146,2166.4L200.278,2166.19L200.411,2165.98L200.545,2165.78L200.681,2165.57L200.817,2165.37L200.955,2165.17L201.094,2164.97L201.235,2164.76L201.376,2164.56L201.519,2164.37L201.662,2164.17L201.807,2163.97L201.953,2163.77L202.101,2163.58L202.249,2163.38L202.399,2163.19L202.549,2162.99L202.701,2162.8L202.854,2162.61L203.008,2162.42L203.163,2162.23L203.319,2162.05L203.477,2161.86L203.635,2161.67L203.795,2161.49L203.955,2161.3L204.117,2161.12L204.28,2160.94L204.444,2160.76L204.609,2160.57L204.775,2160.39L204.942,2160.22L205.11,2160.04L205.279,2159.86L205.449,2159.69L205.62,2159.51L205.793,2159.34L205.966,2159.17L206.14,2159L206.316,2158.83L206.492,2158.66L206.669,2158.49L206.848,2158.32L207.027,2158.16L207.208,2157.99L207.389,2157.83L207.571,2157.66L207.755,2157.5L207.939,2157.34L208.124,2157.18L208.31,2157.02L208.498,2156.87L208.686,2156.71L208.875,2156.55L209.065,2156.4L209.256,2156.25L209.448,2156.1L209.641,2155.95L209.835,2155.8L210.029,2155.65L210.225,2155.5L210.422,2155.35L210.619,2155.21L210.818,2155.07L211.017,2154.92L211.217,2154.78L211.418,2154.64L211.62,2154.5L211.823,2154.36L212.027,2154.23L212.231,2154.09L212.437,2153.96L212.643,2153.82L212.85,2153.69L213.058,2153.56L213.267,2153.43L213.476,2153.3L213.687,2153.18L213.898,2153.05L214.11,2152.93L214.323,2152.8L214.537,2152.68L214.752,2152.56L214.967,2152.44L215.183,2152.32L215.4,2152.21L215.618,2152.09L215.837,2151.97L216.056,2151.86L216.276,2151.75L216.497,2151.64L216.719,2151.53L216.941,2151.42L217.165,2151.32L217.388,2151.21L217.613,2151.11L217.839,2151L218.065,2150.9L218.292,2150.8L218.519,2150.7L218.748,2150.61L218.977,2150.51L219.206,2150.41L219.437,2150.32L219.668,2150.23L219.9,2150.14L220.132,2150.05L220.366,2149.96L220.599,2149.88L220.834,2149.79L221.069,2149.71L221.305,2149.62L221.542,2149.54L221.779,2149.46L222.017,2149.39L222.255,2149.31L222.494,2149.23L222.734,2149.16L222.974,2149.09L223.215,2149.02L223.457,2148.95L223.699,2148.88L223.942,2148.81L224.186,2148.75L224.43,2148.68L224.674,2148.62L224.919,2148.56L225.165,2148.5L225.412,2148.45L225.658,2148.39L225.906,2148.33L226.154,2148.28L226.402,2148.23L226.652,2148.18L226.901,2148.13L227.151,2148.08L227.402,2148.04L227.653,2147.99L227.905,2147.95L228.157,2147.91L228.41,2147.87L228.663,2147.83L228.917,2147.8L229.172,2147.76L229.426,2147.73L229.681,2147.7L229.937,2147.67L230.193,2147.64L230.45,2147.61L230.707,2147.59L230.965,2147.56L231.222,2147.54L231.481,2147.52L231.74,2147.5L231.999,2147.48L232.259,2147.47L232.519,2147.45L232.779,2147.44L233.04,2147.43L233.301,2147.42L233.563,2147.41L233.825,2147.41L234.088,2147.41L234.351,2147.4L234.614,2147.4L234.877,2147.4ZM234.388,2153.32L234.163,2153.32L233.938,2153.33L233.713,2153.33L233.489,2153.34L233.265,2153.35L233.041,2153.36L232.818,2153.37L232.596,2153.38L232.373,2153.39L232.151,2153.41L231.93,2153.42L231.709,2153.44L231.488,2153.46L231.268,2153.48L231.048,2153.5L230.828,2153.52L230.609,2153.55L230.391,2153.57L230.173,2153.6L229.955,2153.63L229.738,2153.66L229.521,2153.69L229.304,2153.72L229.088,2153.76L228.873,2153.79L228.658,2153.83L228.443,2153.86L228.229,2153.9L228.015,2153.94L227.802,2153.99L227.589,2154.03L227.377,2154.07L227.165,2154.12L226.954,2154.16L226.743,2154.21L226.532,2154.26L226.323,2154.31L226.113,2154.36L225.904,2154.42L225.696,2154.47L225.488,2154.53L225.281,2154.58L225.074,2154.64L224.868,2154.7L224.662,2154.76L224.457,2154.82L224.252,2154.89L224.048,2154.95L223.844,2155.01L223.641,2155.08L223.439,2155.15L223.237,2155.22L223.036,2155.29L222.835,2155.36L222.634,2155.43L222.435,2155.51L222.236,2155.58L222.037,2155.66L221.839,2155.74L221.642,2155.81L221.445,2155.89L221.249,2155.97L221.053,2156.06L220.858,2156.14L220.664,2156.22L220.47,2156.31L220.277,2156.4L220.084,2156.48L219.893,2156.57L219.701,2156.66L219.511,2156.75L219.321,2156.85L219.131,2156.94L218.943,2157.03L218.754,2157.13L218.567,2157.23L218.38,2157.32L218.194,2157.42L218.009,2157.52L217.824,2157.62L217.64,2157.73L217.457,2157.83L217.274,2157.93L217.092,2158.04L216.91,2158.15L216.73,2158.25L216.55,2158.36L216.371,2158.47L216.192,2158.58L216.014,2158.69L215.837,2158.81L215.661,2158.92L215.485,2159.04L215.31,2159.15L215.136,2159.27L214.963,2159.39L214.79,2159.51L214.618,2159.62L214.447,2159.75L214.277,2159.87L214.107,2159.99L213.938,2160.12L213.77,2160.24L213.603,2160.37L213.436,2160.49L213.27,2160.62L213.105,2160.75L212.941,2160.88L212.778,2161.01L212.615,2161.14L212.453,2161.28L212.292,2161.41L212.132,2161.54L211.973,2161.68L211.814,2161.82L211.657,2161.95L211.5,2162.09L211.344,2162.23L211.188,2162.37L211.034,2162.51L210.881,2162.65L210.728,2162.8L210.576,2162.94L210.425,2163.09L210.275,2163.23L210.126,2163.38L209.978,2163.53L209.83,2163.67L209.684,2163.82L209.538,2163.97L209.393,2164.12L209.25,2164.28L209.107,2164.43L208.965,2164.58L208.824,2164.74L208.683,2164.89L208.544,2165.05L208.406,2165.2L208.268,2165.36L208.132,2165.52L207.996,2165.68L207.862,2165.84L207.728,2166L207.595,2166.16L207.464,2166.32L207.333,2166.49L207.203,2166.65L207.074,2166.82L206.946,2166.98L206.819,2167.15L206.693,2167.32L206.568,2167.49L206.444,2167.65L206.321,2167.82L206.199,2167.99L206.078,2168.16L205.959,2168.34L205.84,2168.51L205.722,2168.68L205.605,2168.86L205.489,2169.03L205.374,2169.21L205.26,2169.38L205.147,2169.56L205.036,2169.74L204.925,2169.92L204.815,2170.1L204.707,2170.28L204.599,2170.46L204.493,2170.64L204.387,2170.82L204.283,2171L204.18,2171.19L204.078,2171.37L203.976,2171.56L203.876,2171.74L203.778,2171.93L203.68,2172.11L203.583,2172.3L203.487,2172.49L203.393,2172.68L203.3,2172.87L203.207,2173.06L203.116,2173.25L203.026,2173.44L202.937,2173.63L202.849,2173.82L202.763,2174.02L202.677,2174.21L202.593,2174.41L202.51,2174.6L202.428,2174.8L202.347,2174.99L202.267,2175.19L202.189,2175.39L202.111,2175.58L202.035,2175.78L201.96,2175.98L201.886,2176.18L201.814,2176.38L201.742,2176.58L201.672,2176.78L201.603,2176.99L201.535,2177.19L201.469,2177.39L201.403,2177.6L201.339,2177.8L201.276,2178L201.214,2178.21L201.154,2178.41L201.094,2178.62L201.036,2178.83L200.98,2179.04L200.924,2179.24L200.87,2179.45L200.817,2179.66L200.765,2179.87L200.714,2180.08L200.665,2180.29L200.617,2180.5L200.571,2180.71L200.525,2180.92L200.481,2181.14L200.438,2181.35L200.397,2181.56L200.356,2181.78L200.317,2181.99L200.28,2182.2L200.243,2182.42L200.208,2182.64L200.175,2182.85L200.142,2183.07L200.111,2183.28L200.082,2183.5L200.053,2183.72L200.026,2183.94L200,2184.16L199.976,2184.38L199.953,2184.6L199.931,2184.82L199.911,2185.04L199.892,2185.26L199.875,2185.48L199.859,2185.7L199.844,2185.92L199.83,2186.14L199.818,2186.37L199.808,2186.59L199.799,2186.81L199.791,2187.04L199.784,2187.26L199.779,2187.49L199.776,2187.71L199.774,2187.94L199.773,2188.16L199.774,2188.39L199.776,2188.61L199.779,2188.84L199.784,2189.06L199.791,2189.29L199.799,2189.51L199.808,2189.73L199.818,2189.96L199.83,2190.18L199.844,2190.4L199.859,2190.62L199.875,2190.85L199.892,2191.07L199.911,2191.29L199.931,2191.51L199.953,2191.73L199.976,2191.95L200,2192.17L200.026,2192.39L200.053,2192.6L200.082,2192.82L200.111,2193.04L200.142,2193.26L200.175,2193.47L200.208,2193.69L200.243,2193.9L200.28,2194.12L200.317,2194.33L200.356,2194.55L200.397,2194.76L200.438,2194.97L200.481,2195.19L200.525,2195.4L200.571,2195.61L200.617,2195.82L200.665,2196.03L200.714,2196.24L200.765,2196.45L200.817,2196.66L200.87,2196.87L200.924,2197.08L200.98,2197.29L201.036,2197.49L201.094,2197.7L201.154,2197.91L201.214,2198.11L201.276,2198.32L201.339,2198.52L201.403,2198.73L201.469,2198.93L201.535,2199.13L201.603,2199.34L201.672,2199.54L201.742,2199.74L201.814,2199.94L201.886,2200.14L201.96,2200.34L202.035,2200.54L202.111,2200.74L202.189,2200.94L202.267,2201.13L202.347,2201.33L202.428,2201.53L202.51,2201.72L202.593,2201.92L202.677,2202.11L202.763,2202.31L202.849,2202.5L202.937,2202.69L203.026,2202.88L203.116,2203.08L203.207,2203.26L203.3,2203.45L203.393,2203.64L203.487,2203.83L203.583,2204.02L203.68,2204.21L203.778,2204.4L203.876,2204.58L203.976,2204.77L204.078,2204.95L204.18,2205.14L204.283,2205.32L204.387,2205.5L204.493,2205.68L204.599,2205.87L204.707,2206.05L204.815,2206.23L204.925,2206.41L205.036,2206.58L205.147,2206.76L205.26,2206.94L205.374,2207.12L205.489,2207.29L205.605,2207.47L205.722,2207.64L205.84,2207.81L205.959,2207.99L206.078,2208.16L206.199,2208.33L206.321,2208.5L206.444,2208.67L206.568,2208.84L206.693,2209.01L206.819,2209.17L206.946,2209.34L207.074,2209.51L207.203,2209.67L207.333,2209.84L207.464,2210L207.595,2210.16L207.728,2210.32L207.862,2210.48L207.996,2210.64L208.132,2210.8L208.268,2210.96L208.406,2211.12L208.544,2211.28L208.683,2211.43L208.824,2211.59L208.965,2211.74L209.107,2211.9L209.25,2212.05L209.394,2212.2L209.538,2212.35L209.684,2212.5L209.83,2212.65L209.978,2212.8L210.126,2212.95L210.275,2213.09L210.425,2213.24L210.576,2213.38L210.728,2213.53L210.881,2213.67L211.034,2213.81L211.188,2213.95L211.344,2214.09L211.5,2214.23L211.656,2214.37L211.814,2214.51L211.973,2214.64L212.132,2214.78L212.292,2214.91L212.453,2215.05L212.615,2215.18L212.778,2215.31L212.941,2215.44L213.105,2215.57L213.27,2215.7L213.436,2215.83L213.603,2215.96L213.77,2216.08L213.938,2216.21L214.107,2216.33L214.277,2216.45L214.447,2216.58L214.618,2216.7L214.79,2216.82L214.963,2216.94L215.136,2217.05L215.31,2217.17L215.485,2217.29L215.661,2217.4L215.837,2217.52L216.014,2217.63L216.192,2217.74L216.371,2217.85L216.55,2217.96L216.73,2218.07L216.91,2218.18L217.092,2218.28L217.274,2218.39L217.457,2218.49L217.64,2218.6L217.824,2218.7L218.009,2218.8L218.194,2218.9L218.38,2219L218.567,2219.1L218.754,2219.19L218.943,2219.29L219.131,2219.38L219.321,2219.48L219.511,2219.57L219.701,2219.66L219.893,2219.75L220.084,2219.84L220.277,2219.93L220.47,2220.01L220.664,2220.1L220.858,2220.18L221.053,2220.27L221.249,2220.35L221.445,2220.43L221.642,2220.51L221.839,2220.59L222.037,2220.66L222.236,2220.74L222.435,2220.82L222.634,2220.89L222.835,2220.96L223.036,2221.03L223.237,2221.1L223.439,2221.17L223.641,2221.24L223.844,2221.31L224.048,2221.37L224.252,2221.44L224.457,2221.5L224.662,2221.56L224.868,2221.62L225.074,2221.68L225.281,2221.74L225.488,2221.8L225.696,2221.85L225.904,2221.91L226.113,2221.96L226.323,2222.01L226.532,2222.06L226.743,2222.11L226.954,2222.16L227.165,2222.21L227.377,2222.25L227.589,2222.3L227.802,2222.34L228.015,2222.38L228.229,2222.42L228.443,2222.46L228.658,2222.5L228.873,2222.53L229.088,2222.57L229.304,2222.6L229.521,2222.63L229.738,2222.66L229.955,2222.7L230.173,2222.72L230.391,2222.75L230.609,2222.78L230.828,2222.8L231.048,2222.82L231.268,2222.85L231.488,2222.87L231.709,2222.88L231.93,2222.9L232.151,2222.92L232.373,2222.93L232.596,2222.95L232.818,2222.96L233.041,2222.97L233.265,2222.98L233.489,2222.99L233.713,2222.99L233.938,2223L234.163,2223L234.388,2223L234.614,2223L234.839,2223L235.065,2223L235.29,2223L235.514,2222.99L235.739,2222.99L235.963,2222.98L236.186,2222.97L236.409,2222.96L236.632,2222.95L236.854,2222.93L237.076,2222.92L237.298,2222.9L237.519,2222.88L237.739,2222.87L237.96,2222.85L238.18,2222.82L238.399,2222.8L238.618,2222.78L238.837,2222.75L239.055,2222.72L239.273,2222.7L239.49,2222.66L239.707,2222.63L239.923,2222.6L240.139,2222.57L240.355,2222.53L240.57,2222.5L240.785,2222.46L240.999,2222.42L241.213,2222.38L241.426,2222.34L241.639,2222.3L241.851,2222.25L242.063,2222.21L242.274,2222.16L242.485,2222.11L242.695,2222.06L242.905,2222.01L243.115,2221.96L243.323,2221.91L243.532,2221.85L243.74,2221.8L243.947,2221.74L244.154,2221.68L244.36,2221.62L244.566,2221.56L244.771,2221.5L244.976,2221.44L245.18,2221.37L245.383,2221.31L245.586,2221.24L245.789,2221.17L245.991,2221.1L246.192,2221.03L246.393,2220.96L246.593,2220.89L246.793,2220.82L246.992,2220.74L247.191,2220.66L247.389,2220.59L247.586,2220.51L247.783,2220.43L247.979,2220.35L248.175,2220.27L248.37,2220.18L248.564,2220.1L248.758,2220.01L248.951,2219.93L249.144,2219.84L249.335,2219.75L249.527,2219.66L249.717,2219.57L249.907,2219.48L250.097,2219.38L250.286,2219.29L250.474,2219.19L250.661,2219.1L250.848,2219L251.034,2218.9L251.219,2218.8L251.404,2218.7L251.588,2218.6L251.772,2218.49L251.954,2218.39L252.136,2218.28L252.318,2218.18L252.498,2218.07L252.678,2217.96L252.857,2217.85L253.036,2217.74L253.214,2217.63L253.391,2217.52L253.567,2217.4L253.743,2217.29L253.918,2217.17L254.092,2217.05L254.265,2216.94L254.438,2216.82L254.61,2216.7L254.781,2216.58L254.952,2216.45L255.121,2216.33L255.29,2216.21L255.458,2216.08L255.626,2215.96L255.792,2215.83L255.958,2215.7L256.123,2215.57L256.287,2215.44L256.451,2215.31L256.613,2215.18L256.775,2215.05L256.936,2214.91L257.096,2214.78L257.256,2214.64L257.414,2214.51L257.572,2214.37L257.729,2214.23L257.885,2214.09L258.04,2213.95L258.194,2213.81L258.348,2213.67L258.5,2213.53L258.652,2213.38L258.803,2213.24L258.953,2213.09L259.102,2212.95L259.25,2212.8L259.398,2212.65L259.544,2212.5L259.69,2212.35L259.835,2212.2L259.979,2212.05L260.122,2211.9L260.264,2211.74L260.405,2211.59L260.545,2211.43L260.684,2211.28L260.823,2211.12L260.96,2210.96L261.097,2210.8L261.232,2210.64L261.367,2210.48L261.5,2210.32L261.633,2210.16L261.765,2210L261.896,2209.84L262.025,2209.67L262.154,2209.51L262.282,2209.34L262.409,2209.17L262.535,2209.01L262.66,2208.84L262.784,2208.67L262.907,2208.5L263.029,2208.33L263.15,2208.16L263.27,2207.99L263.389,2207.81L263.507,2207.64L263.624,2207.47L263.739,2207.29L263.854,2207.12L263.968,2206.94L264.081,2206.76L264.193,2206.58L264.303,2206.41L264.413,2206.23L264.522,2206.05L264.629,2205.87L264.736,2205.68L264.841,2205.5L264.945,2205.32L265.049,2205.14L265.151,2204.95L265.252,2204.77L265.352,2204.58L265.451,2204.4L265.549,2204.21L265.645,2204.02L265.741,2203.83L265.835,2203.64L265.929,2203.45L266.021,2203.26L266.112,2203.08L266.202,2202.88L266.291,2202.69L266.379,2202.5L266.466,2202.31L266.551,2202.11L266.635,2201.92L266.719,2201.72L266.801,2201.53L266.881,2201.33L266.961,2201.13L267.04,2200.94L267.117,2200.74L267.193,2200.54L267.268,2200.34L267.342,2200.14L267.415,2199.94L267.486,2199.74L267.556,2199.54L267.625,2199.34L267.693,2199.13L267.76,2198.93L267.825,2198.73L267.889,2198.52L267.952,2198.32L268.014,2198.11L268.075,2197.91L268.134,2197.7L268.192,2197.49L268.249,2197.29L268.304,2197.08L268.359,2196.87L268.412,2196.66L268.463,2196.45L268.514,2196.24L268.563,2196.03L268.611,2195.82L268.658,2195.61L268.703,2195.4L268.747,2195.19L268.79,2194.97L268.832,2194.76L268.872,2194.55L268.911,2194.33L268.949,2194.12L268.985,2193.9L269.02,2193.69L269.054,2193.47L269.086,2193.26L269.117,2193.04L269.147,2192.82L269.175,2192.6L269.202,2192.39L269.228,2192.17L269.252,2191.95L269.275,2191.73L269.297,2191.51L269.317,2191.29L269.336,2191.07L269.354,2190.85L269.37,2190.62L269.385,2190.4L269.398,2190.18L269.41,2189.96L269.421,2189.73L269.43,2189.51L269.438,2189.29L269.444,2189.06L269.449,2188.84L269.452,2188.61L269.455,2188.39L269.455,2188.16L269.455,2187.94L269.452,2187.71L269.449,2187.49L269.444,2187.26L269.438,2187.04L269.43,2186.81L269.421,2186.59L269.41,2186.37L269.398,2186.14L269.385,2185.92L269.37,2185.7L269.354,2185.48L269.336,2185.26L269.317,2185.04L269.297,2184.82L269.275,2184.6L269.252,2184.38L269.228,2184.16L269.202,2183.94L269.175,2183.72L269.147,2183.5L269.117,2183.28L269.086,2183.07L269.054,2182.85L269.02,2182.64L268.985,2182.42L268.949,2182.2L268.911,2181.99L268.872,2181.78L268.832,2181.56L268.79,2181.35L268.747,2181.14L268.703,2180.92L268.658,2180.71L268.611,2180.5L268.563,2180.29L268.514,2180.08L268.463,2179.87L268.412,2179.66L268.359,2179.45L268.304,2179.24L268.249,2179.04L268.192,2178.83L268.134,2178.62L268.075,2178.41L268.014,2178.21L267.952,2178L267.889,2177.8L267.825,2177.6L267.76,2177.39L267.693,2177.19L267.625,2176.99L267.556,2176.78L267.486,2176.58L267.415,2176.38L267.342,2176.18L267.268,2175.98L267.193,2175.78L267.117,2175.58L267.04,2175.39L266.961,2175.19L266.881,2174.99L266.801,2174.8L266.719,2174.6L266.635,2174.41L266.551,2174.21L266.466,2174.02L266.379,2173.82L266.291,2173.63L266.202,2173.44L266.112,2173.25L266.021,2173.06L265.929,2172.87L265.835,2172.68L265.741,2172.49L265.645,2172.3L265.549,2172.11L265.451,2171.93L265.352,2171.74L265.252,2171.56L265.151,2171.37L265.049,2171.19L264.945,2171L264.841,2170.82L264.736,2170.64L264.629,2170.46L264.522,2170.28L264.413,2170.1L264.303,2169.92L264.193,2169.74L264.081,2169.56L263.968,2169.38L263.854,2169.21L263.739,2169.03L263.624,2168.86L263.507,2168.68L263.389,2168.51L263.27,2168.34L263.15,2168.16L263.029,2167.99L262.907,2167.82L262.784,2167.65L262.66,2167.49L262.535,2167.32L262.409,2167.15L262.282,2166.98L262.154,2166.82L262.025,2166.65L261.896,2166.49L261.765,2166.32L261.633,2166.16L261.5,2166L261.367,2165.84L261.232,2165.68L261.097,2165.52L260.96,2165.36L260.823,2165.2L260.684,2165.05L260.545,2164.89L260.405,2164.74L260.264,2164.58L260.122,2164.43L259.979,2164.28L259.835,2164.12L259.69,2163.97L259.544,2163.82L259.398,2163.67L259.25,2163.53L259.102,2163.38L258.953,2163.23L258.803,2163.09L258.652,2162.94L258.5,2162.8L258.348,2162.65L258.194,2162.51L258.04,2162.37L257.885,2162.23L257.729,2162.09L257.572,2161.95L257.414,2161.82L257.256,2161.68L257.096,2161.54L256.936,2161.41L256.775,2161.28L256.613,2161.14L256.451,2161.01L256.287,2160.88L256.123,2160.75L255.958,2160.62L255.792,2160.49L255.626,2160.37L255.458,2160.24L255.29,2160.12L255.121,2159.99L254.952,2159.87L254.781,2159.75L254.61,2159.62L254.438,2159.51L254.265,2159.39L254.092,2159.27L253.918,2159.15L253.743,2159.04L253.567,2158.92L253.391,2158.81L253.214,2158.69L253.036,2158.58L252.857,2158.47L252.678,2158.36L252.498,2158.25L252.318,2158.15L252.136,2158.04L251.954,2157.93L251.772,2157.83L251.588,2157.73L251.404,2157.62L251.219,2157.52L251.034,2157.42L250.848,2157.32L250.661,2157.23L250.474,2157.13L250.286,2157.03L250.097,2156.94L249.907,2156.85L249.717,2156.75L249.527,2156.66L249.336,2156.57L249.144,2156.48L248.951,2156.4L248.758,2156.31L248.564,2156.22L248.37,2156.14L248.175,2156.06L247.979,2155.97L247.783,2155.89L247.586,2155.81L247.389,2155.74L247.191,2155.66L246.992,2155.58L246.793,2155.51L246.593,2155.43L246.393,2155.36L246.192,2155.29L245.991,2155.22L245.789,2155.15L245.587,2155.08L245.383,2155.01L245.18,2154.95L244.976,2154.89L244.771,2154.82L244.566,2154.76L244.36,2154.7L244.154,2154.64L243.947,2154.58L243.74,2154.53L243.532,2154.47L243.323,2154.42L243.115,2154.36L242.905,2154.31L242.695,2154.26L242.485,2154.21L242.274,2154.16L242.063,2154.12L241.851,2154.07L241.639,2154.03L241.426,2153.99L241.213,2153.94L240.999,2153.9L240.785,2153.86L240.57,2153.83L240.355,2153.79L240.139,2153.76L239.923,2153.72L239.707,2153.69L239.49,2153.66L239.273,2153.63L239.055,2153.6L238.837,2153.57L238.618,2153.55L238.399,2153.52L238.18,2153.5L237.96,2153.48L237.739,2153.46L237.519,2153.44L237.298,2153.42L237.076,2153.41L236.854,2153.39L236.632,2153.38L236.409,2153.37L236.186,2153.36L235.963,2153.35L235.739,2153.34L235.514,2153.33L235.29,2153.33L235.065,2153.32L234.839,2153.32L234.614,2153.32L234.388,2153.32Z" style="fill:rgb(91,45,16);"/>
                <path d="M263.34,2165.97L210.073,2219.24L205.888,2215.05L259.155,2161.79L263.34,2165.97Z" style="fill:rgb(91,45,16);"/>
            </g>
        </g>
    </g>
    <g transform="matrix(0.84478,-2.06911e-16,2.06911e-16,0.84478,-148.42,-1810.68)">
        <g opacity="0.300003">
            <g>
                <path d="M332.306,2147.4L332.569,2147.41L332.832,2147.41L333.094,2147.41L333.356,2147.42L333.617,2147.43L333.878,2147.44L334.138,2147.45L334.398,2147.47L334.658,2147.48L334.917,2147.5L335.176,2147.52L335.435,2147.54L335.693,2147.56L335.95,2147.59L336.207,2147.61L336.464,2147.64L336.72,2147.67L336.976,2147.7L337.231,2147.73L337.486,2147.76L337.74,2147.8L337.994,2147.83L338.247,2147.87L338.5,2147.91L338.752,2147.95L339.004,2147.99L339.255,2148.04L339.506,2148.08L339.756,2148.13L340.006,2148.18L340.255,2148.23L340.503,2148.28L340.751,2148.33L340.999,2148.39L341.246,2148.45L341.492,2148.5L341.738,2148.56L341.983,2148.62L342.228,2148.68L342.472,2148.75L342.715,2148.81L342.958,2148.88L343.2,2148.95L343.442,2149.02L343.683,2149.09L343.923,2149.16L344.163,2149.23L344.402,2149.31L344.641,2149.39L344.878,2149.46L345.116,2149.54L345.352,2149.62L345.588,2149.71L345.823,2149.79L346.058,2149.88L346.292,2149.96L346.525,2150.05L346.758,2150.14L346.989,2150.23L347.221,2150.32L347.451,2150.41L347.681,2150.51L347.91,2150.61L348.138,2150.7L348.366,2150.8L348.593,2150.9L348.819,2151L349.044,2151.11L349.269,2151.21L349.493,2151.32L349.716,2151.42L349.939,2151.53L350.16,2151.64L350.381,2151.75L350.601,2151.86L350.821,2151.97L351.039,2152.09L351.257,2152.2L351.474,2152.32L351.69,2152.44L351.906,2152.56L352.12,2152.68L352.334,2152.8L352.547,2152.93L352.759,2153.05L352.971,2153.18L353.181,2153.3L353.391,2153.43L353.6,2153.56L353.808,2153.69L354.015,2153.82L354.221,2153.96L354.427,2154.09L354.631,2154.23L354.835,2154.36L355.038,2154.5L355.24,2154.64L355.441,2154.78L355.641,2154.92L355.84,2155.07L356.038,2155.21L356.236,2155.35L356.433,2155.5L356.628,2155.65L356.823,2155.8L357.017,2155.95L357.21,2156.1L357.402,2156.25L357.593,2156.4L357.783,2156.55L357.972,2156.71L358.16,2156.87L358.347,2157.02L358.534,2157.18L358.719,2157.34L358.903,2157.5L359.086,2157.66L359.269,2157.83L359.45,2157.99L359.631,2158.16L359.81,2158.32L359.988,2158.49L360.166,2158.66L360.342,2158.83L360.518,2159L360.692,2159.17L360.865,2159.34L361.037,2159.51L361.209,2159.69L361.379,2159.86L361.548,2160.04L361.716,2160.22L361.883,2160.39L362.049,2160.57L362.214,2160.76L362.378,2160.94L362.541,2161.12L362.703,2161.3L362.863,2161.49L363.023,2161.67L363.181,2161.86L363.339,2162.05L363.495,2162.23L363.65,2162.42L363.804,2162.61L363.957,2162.8L364.109,2162.99L364.259,2163.19L364.409,2163.38L364.557,2163.58L364.704,2163.77L364.851,2163.97L364.995,2164.17L365.139,2164.37L365.282,2164.56L365.423,2164.76L365.564,2164.97L365.703,2165.17L365.841,2165.37L365.977,2165.57L366.113,2165.78L366.247,2165.98L366.38,2166.19L366.512,2166.4L366.643,2166.61L366.772,2166.81L366.901,2167.02L367.028,2167.23L367.154,2167.45L367.278,2167.66L367.401,2167.87L367.524,2168.09L367.644,2168.3L367.764,2168.51L367.882,2168.73L367.999,2168.95L368.115,2169.17L368.23,2169.38L368.343,2169.6L368.455,2169.82L368.565,2170.05L368.675,2170.27L368.783,2170.49L368.889,2170.71L368.995,2170.94L369.099,2171.16L369.202,2171.39L369.303,2171.61L369.403,2171.84L369.502,2172.07L369.599,2172.3L369.695,2172.52L369.79,2172.75L369.883,2172.98L369.975,2173.22L370.066,2173.45L370.155,2173.68L370.243,2173.91L370.329,2174.15L370.414,2174.38L370.498,2174.62L370.58,2174.85L370.661,2175.09L370.741,2175.33L370.819,2175.56L370.895,2175.8L370.971,2176.04L371.044,2176.28L371.117,2176.52L371.188,2176.76L371.257,2177.01L371.325,2177.25L371.391,2177.49L371.457,2177.73L371.52,2177.98L371.582,2178.22L371.643,2178.47L371.702,2178.71L371.76,2178.96L371.816,2179.21L371.871,2179.45L371.924,2179.7L371.976,2179.95L372.026,2180.2L372.074,2180.45L372.121,2180.7L372.167,2180.95L372.211,2181.2L372.254,2181.45L372.295,2181.7L372.334,2181.96L372.372,2182.21L372.408,2182.47L372.443,2182.72L372.476,2182.97L372.508,2183.23L372.538,2183.49L372.566,2183.74L372.593,2184L372.619,2184.26L372.642,2184.51L372.664,2184.77L372.685,2185.03L372.704,2185.29L372.721,2185.55L372.737,2185.81L372.751,2186.07L372.763,2186.33L372.774,2186.59L372.783,2186.85L372.79,2187.11L372.796,2187.37L372.8,2187.64L372.803,2187.9L372.804,2188.16L372.803,2188.43L372.8,2188.69L372.796,2188.95L372.79,2189.21L372.783,2189.47L372.774,2189.74L372.763,2190L372.751,2190.26L372.737,2190.52L372.721,2190.78L372.704,2191.04L372.685,2191.3L372.664,2191.55L372.642,2191.81L372.619,2192.07L372.593,2192.33L372.566,2192.58L372.538,2192.84L372.508,2193.09L372.476,2193.35L372.443,2193.6L372.408,2193.86L372.372,2194.11L372.334,2194.37L372.295,2194.62L372.254,2194.87L372.211,2195.12L372.167,2195.37L372.121,2195.62L372.074,2195.87L372.026,2196.12L371.976,2196.37L371.924,2196.62L371.871,2196.87L371.816,2197.12L371.76,2197.36L371.702,2197.61L371.643,2197.86L371.582,2198.1L371.52,2198.35L371.457,2198.59L371.391,2198.83L371.325,2199.08L371.257,2199.32L371.188,2199.56L371.117,2199.8L371.044,2200.04L370.971,2200.28L370.895,2200.52L370.819,2200.76L370.741,2201L370.661,2201.23L370.58,2201.47L370.498,2201.71L370.414,2201.94L370.329,2202.18L370.243,2202.41L370.155,2202.64L370.066,2202.88L369.975,2203.11L369.883,2203.34L369.79,2203.57L369.695,2203.8L369.599,2204.03L369.502,2204.26L369.403,2204.48L369.303,2204.71L369.202,2204.94L369.099,2205.16L368.995,2205.39L368.889,2205.61L368.783,2205.84L368.675,2206.06L368.565,2206.28L368.455,2206.5L368.343,2206.72L368.23,2206.94L368.115,2207.16L367.999,2207.38L367.882,2207.59L367.764,2207.81L367.644,2208.02L367.524,2208.24L367.401,2208.45L367.278,2208.67L367.154,2208.88L367.028,2209.09L366.901,2209.3L366.772,2209.51L366.643,2209.72L366.512,2209.93L366.38,2210.13L366.247,2210.34L366.113,2210.55L365.977,2210.75L365.841,2210.95L365.703,2211.16L365.564,2211.36L365.423,2211.56L365.282,2211.76L365.139,2211.96L364.995,2212.16L364.851,2212.35L364.704,2212.55L364.557,2212.75L364.409,2212.94L364.259,2213.14L364.109,2213.33L363.957,2213.52L363.804,2213.71L363.65,2213.9L363.495,2214.09L363.339,2214.28L363.181,2214.47L363.023,2214.65L362.863,2214.84L362.703,2215.02L362.541,2215.2L362.378,2215.39L362.214,2215.57L362.049,2215.75L361.883,2215.93L361.716,2216.11L361.548,2216.28L361.379,2216.46L361.209,2216.64L361.037,2216.81L360.865,2216.98L360.692,2217.16L360.517,2217.33L360.342,2217.5L360.166,2217.67L359.988,2217.84L359.81,2218L359.631,2218.17L359.45,2218.33L359.269,2218.5L359.086,2218.66L358.903,2218.82L358.719,2218.98L358.534,2219.14L358.347,2219.3L358.16,2219.46L357.972,2219.61L357.783,2219.77L357.593,2219.92L357.402,2220.08L357.21,2220.23L357.017,2220.38L356.823,2220.53L356.628,2220.68L356.433,2220.82L356.236,2220.97L356.038,2221.11L355.84,2221.26L355.641,2221.4L355.441,2221.54L355.24,2221.68L355.038,2221.82L354.835,2221.96L354.631,2222.1L354.427,2222.23L354.221,2222.37L354.015,2222.5L353.808,2222.63L353.6,2222.76L353.391,2222.89L353.181,2223.02L352.971,2223.15L352.759,2223.27L352.547,2223.4L352.334,2223.52L352.12,2223.64L351.906,2223.76L351.69,2223.88L351.474,2224L351.257,2224.12L351.039,2224.23L350.821,2224.35L350.601,2224.46L350.381,2224.57L350.16,2224.68L349.939,2224.79L349.716,2224.9L349.493,2225.01L349.269,2225.11L349.044,2225.22L348.819,2225.32L348.593,2225.42L348.366,2225.52L348.138,2225.62L347.91,2225.72L347.681,2225.81L347.451,2225.91L347.221,2226L346.99,2226.09L346.758,2226.18L346.525,2226.27L346.292,2226.36L346.058,2226.45L345.823,2226.53L345.588,2226.62L345.352,2226.7L345.116,2226.78L344.879,2226.86L344.641,2226.94L344.402,2227.01L344.163,2227.09L343.923,2227.16L343.683,2227.24L343.442,2227.31L343.2,2227.38L342.958,2227.44L342.715,2227.51L342.472,2227.58L342.228,2227.64L341.983,2227.7L341.738,2227.76L341.492,2227.82L341.246,2227.88L340.999,2227.93L340.751,2227.99L340.503,2228.04L340.255,2228.09L340.006,2228.14L339.756,2228.19L339.506,2228.24L339.255,2228.28L339.004,2228.33L338.752,2228.37L338.5,2228.41L338.247,2228.45L337.994,2228.49L337.74,2228.53L337.486,2228.56L337.231,2228.6L336.976,2228.63L336.72,2228.66L336.464,2228.68L336.207,2228.71L335.95,2228.74L335.693,2228.76L335.435,2228.78L335.176,2228.8L334.917,2228.82L334.658,2228.84L334.398,2228.86L334.138,2228.87L333.878,2228.88L333.617,2228.89L333.355,2228.9L333.094,2228.91L332.832,2228.91L332.569,2228.92L332.306,2228.92L332.043,2228.92L331.78,2228.92L331.517,2228.92L331.255,2228.91L330.993,2228.91L330.731,2228.9L330.47,2228.89L330.209,2228.88L329.948,2228.87L329.688,2228.86L329.428,2228.84L329.169,2228.82L328.91,2228.8L328.652,2228.78L328.394,2228.76L328.137,2228.74L327.879,2228.71L327.623,2228.68L327.367,2228.66L327.111,2228.63L326.856,2228.6L326.601,2228.56L326.347,2228.53L326.093,2228.49L325.84,2228.45L325.587,2228.41L325.335,2228.37L325.083,2228.33L324.832,2228.28L324.581,2228.24L324.331,2228.19L324.081,2228.14L323.832,2228.09L323.583,2228.04L323.335,2227.99L323.088,2227.93L322.841,2227.88L322.595,2227.82L322.349,2227.76L322.104,2227.7L321.859,2227.64L321.615,2227.58L321.372,2227.51L321.129,2227.44L320.887,2227.38L320.645,2227.31L320.404,2227.24L320.164,2227.16L319.924,2227.09L319.685,2227.01L319.446,2226.94L319.208,2226.86L318.971,2226.78L318.735,2226.7L318.499,2226.62L318.263,2226.53L318.029,2226.45L317.795,2226.36L317.562,2226.27L317.329,2226.18L317.097,2226.09L316.866,2226L316.636,2225.91L316.406,2225.81L316.177,2225.72L315.949,2225.62L315.721,2225.52L315.494,2225.42L315.268,2225.32L315.043,2225.22L314.818,2225.11L314.594,2225.01L314.371,2224.9L314.148,2224.79L313.927,2224.68L313.706,2224.57L313.486,2224.46L313.266,2224.35L313.048,2224.23L312.83,2224.12L312.613,2224L312.397,2223.88L312.181,2223.76L311.967,2223.64L311.753,2223.52L311.54,2223.4L311.328,2223.27L311.116,2223.15L310.906,2223.02L310.696,2222.89L310.487,2222.76L310.279,2222.63L310.072,2222.5L309.866,2222.37L309.661,2222.23L309.456,2222.1L309.252,2221.96L309.05,2221.82L308.848,2221.68L308.646,2221.54L308.446,2221.4L308.247,2221.26L308.049,2221.11L307.851,2220.97L307.655,2220.82L307.459,2220.68L307.264,2220.53L307.07,2220.38L306.878,2220.23L306.686,2220.08L306.495,2219.92L306.304,2219.77L306.115,2219.61L305.927,2219.46L305.74,2219.3L305.554,2219.14L305.368,2218.98L305.184,2218.82L305.001,2218.66L304.818,2218.5L304.637,2218.33L304.457,2218.17L304.277,2218L304.099,2217.84L303.921,2217.67L303.745,2217.5L303.57,2217.33L303.395,2217.16L303.222,2216.98L303.05,2216.81L302.879,2216.64L302.708,2216.46L302.539,2216.28L302.371,2216.11L302.204,2215.93L302.038,2215.75L301.873,2215.57L301.709,2215.39L301.546,2215.2L301.385,2215.02L301.224,2214.84L301.065,2214.65L300.906,2214.47L300.749,2214.28L300.592,2214.09L300.437,2213.9L300.283,2213.71L300.13,2213.52L299.979,2213.33L299.828,2213.14L299.678,2212.94L299.53,2212.75L299.383,2212.55L299.237,2212.35L299.092,2212.16L298.948,2211.96L298.805,2211.76L298.664,2211.56L298.524,2211.36L298.385,2211.16L298.247,2210.95L298.11,2210.75L297.974,2210.55L297.84,2210.34L297.707,2210.13L297.575,2209.93L297.444,2209.72L297.315,2209.51L297.187,2209.3L297.06,2209.09L296.934,2208.88L296.809,2208.66L296.686,2208.45L296.564,2208.24L296.443,2208.02L296.323,2207.81L296.205,2207.59L296.088,2207.38L295.972,2207.16L295.858,2206.94L295.745,2206.72L295.633,2206.5L295.522,2206.28L295.413,2206.06L295.305,2205.84L295.198,2205.61L295.093,2205.39L294.989,2205.16L294.886,2204.94L294.784,2204.71L294.684,2204.48L294.586,2204.26L294.488,2204.03L294.392,2203.8L294.297,2203.57L294.204,2203.34L294.112,2203.11L294.022,2202.88L293.932,2202.64L293.844,2202.41L293.758,2202.18L293.673,2201.94L293.589,2201.71L293.507,2201.47L293.426,2201.23L293.347,2201L293.269,2200.76L293.192,2200.52L293.117,2200.28L293.043,2200.04L292.971,2199.8L292.9,2199.56L292.83,2199.32L292.762,2199.08L292.696,2198.83L292.631,2198.59L292.567,2198.35L292.505,2198.1L292.444,2197.86L292.385,2197.61L292.328,2197.36L292.271,2197.12L292.217,2196.87L292.164,2196.62L292.112,2196.37L292.062,2196.12L292.013,2195.87L291.966,2195.62L291.92,2195.37L291.876,2195.12L291.834,2194.87L291.793,2194.62L291.753,2194.37L291.715,2194.11L291.679,2193.86L291.644,2193.6L291.611,2193.35L291.58,2193.09L291.549,2192.84L291.521,2192.58L291.494,2192.33L291.469,2192.07L291.445,2191.81L291.423,2191.55L291.403,2191.3L291.384,2191.04L291.366,2190.78L291.351,2190.52L291.337,2190.26L291.324,2190L291.314,2189.74L291.305,2189.47L291.297,2189.21L291.291,2188.95L291.287,2188.69L291.285,2188.43L291.284,2188.16L291.285,2187.9L291.287,2187.64L291.291,2187.37L291.297,2187.11L291.305,2186.85L291.314,2186.59L291.324,2186.33L291.337,2186.07L291.351,2185.81L291.366,2185.55L291.384,2185.29L291.403,2185.03L291.423,2184.77L291.445,2184.51L291.469,2184.26L291.494,2184L291.521,2183.74L291.549,2183.49L291.58,2183.23L291.611,2182.97L291.644,2182.72L291.679,2182.47L291.715,2182.21L291.753,2181.96L291.793,2181.7L291.834,2181.45L291.876,2181.2L291.92,2180.95L291.966,2180.7L292.013,2180.45L292.062,2180.2L292.112,2179.95L292.164,2179.7L292.217,2179.45L292.271,2179.21L292.328,2178.96L292.385,2178.71L292.444,2178.47L292.505,2178.22L292.567,2177.98L292.631,2177.73L292.696,2177.49L292.762,2177.25L292.83,2177.01L292.9,2176.76L292.971,2176.52L293.043,2176.28L293.117,2176.04L293.192,2175.8L293.269,2175.56L293.347,2175.33L293.426,2175.09L293.507,2174.85L293.589,2174.62L293.673,2174.38L293.758,2174.15L293.844,2173.91L293.932,2173.68L294.022,2173.45L294.112,2173.22L294.204,2172.98L294.297,2172.75L294.392,2172.52L294.488,2172.3L294.586,2172.07L294.684,2171.84L294.784,2171.61L294.886,2171.39L294.989,2171.16L295.093,2170.94L295.198,2170.71L295.305,2170.49L295.413,2170.27L295.522,2170.05L295.633,2169.82L295.745,2169.6L295.858,2169.38L295.972,2169.17L296.088,2168.95L296.205,2168.73L296.323,2168.51L296.443,2168.3L296.564,2168.09L296.686,2167.87L296.809,2167.66L296.934,2167.45L297.06,2167.23L297.187,2167.02L297.315,2166.81L297.444,2166.61L297.575,2166.4L297.707,2166.19L297.84,2165.98L297.974,2165.78L298.11,2165.57L298.247,2165.37L298.385,2165.17L298.524,2164.97L298.664,2164.76L298.805,2164.56L298.948,2164.37L299.092,2164.17L299.237,2163.97L299.383,2163.77L299.53,2163.58L299.678,2163.38L299.828,2163.19L299.979,2162.99L300.13,2162.8L300.283,2162.61L300.437,2162.42L300.592,2162.23L300.749,2162.05L300.906,2161.86L301.065,2161.67L301.224,2161.49L301.385,2161.3L301.546,2161.12L301.709,2160.94L301.873,2160.76L302.038,2160.57L302.204,2160.39L302.371,2160.22L302.539,2160.04L302.708,2159.86L302.879,2159.69L303.05,2159.51L303.222,2159.34L303.395,2159.17L303.57,2159L303.745,2158.83L303.921,2158.66L304.099,2158.49L304.277,2158.32L304.457,2158.16L304.637,2157.99L304.818,2157.83L305.001,2157.66L305.184,2157.5L305.368,2157.34L305.554,2157.18L305.74,2157.02L305.927,2156.87L306.115,2156.71L306.304,2156.55L306.495,2156.4L306.686,2156.25L306.878,2156.1L307.07,2155.95L307.264,2155.8L307.459,2155.65L307.655,2155.5L307.851,2155.35L308.049,2155.21L308.247,2155.07L308.446,2154.92L308.646,2154.78L308.848,2154.64L309.05,2154.5L309.252,2154.36L309.456,2154.23L309.661,2154.09L309.866,2153.96L310.072,2153.82L310.279,2153.69L310.487,2153.56L310.696,2153.43L310.906,2153.3L311.116,2153.18L311.328,2153.05L311.54,2152.93L311.753,2152.8L311.967,2152.68L312.181,2152.56L312.397,2152.44L312.613,2152.32L312.83,2152.21L313.048,2152.09L313.266,2151.97L313.486,2151.86L313.706,2151.75L313.927,2151.64L314.148,2151.53L314.371,2151.42L314.594,2151.32L314.818,2151.21L315.043,2151.11L315.268,2151L315.494,2150.9L315.721,2150.8L315.949,2150.7L316.177,2150.61L316.406,2150.51L316.636,2150.41L316.866,2150.32L317.097,2150.23L317.329,2150.14L317.562,2150.05L317.795,2149.96L318.029,2149.88L318.263,2149.79L318.499,2149.71L318.735,2149.62L318.971,2149.54L319.208,2149.46L319.446,2149.39L319.685,2149.31L319.924,2149.23L320.164,2149.16L320.404,2149.09L320.645,2149.02L320.887,2148.95L321.129,2148.88L321.372,2148.81L321.615,2148.75L321.859,2148.68L322.104,2148.62L322.349,2148.56L322.595,2148.5L322.841,2148.45L323.088,2148.39L323.335,2148.33L323.583,2148.28L323.832,2148.23L324.081,2148.18L324.331,2148.13L324.581,2148.08L324.832,2148.04L325.083,2147.99L325.335,2147.95L325.587,2147.91L325.84,2147.87L326.093,2147.83L326.347,2147.8L326.601,2147.76L326.856,2147.73L327.111,2147.7L327.367,2147.67L327.623,2147.64L327.879,2147.61L328.136,2147.59L328.394,2147.56L328.652,2147.54L328.91,2147.52L329.169,2147.5L329.428,2147.48L329.688,2147.47L329.948,2147.45L330.209,2147.44L330.47,2147.43L330.731,2147.42L330.993,2147.41L331.255,2147.41L331.517,2147.41L331.78,2147.4L332.043,2147.4L332.306,2147.4ZM331.817,2153.32L331.592,2153.32L331.367,2153.33L331.143,2153.33L330.918,2153.34L330.694,2153.35L330.471,2153.36L330.248,2153.37L330.025,2153.38L329.803,2153.39L329.581,2153.41L329.359,2153.42L329.138,2153.44L328.918,2153.46L328.697,2153.48L328.477,2153.5L328.258,2153.52L328.039,2153.55L327.82,2153.57L327.602,2153.6L327.384,2153.63L327.167,2153.66L326.95,2153.69L326.734,2153.72L326.518,2153.76L326.302,2153.79L326.087,2153.83L325.872,2153.86L325.658,2153.9L325.445,2153.94L325.231,2153.99L325.019,2154.03L324.806,2154.07L324.594,2154.12L324.383,2154.16L324.172,2154.21L323.962,2154.26L323.752,2154.31L323.543,2154.36L323.334,2154.42L323.126,2154.47L322.918,2154.53L322.71,2154.58L322.504,2154.64L322.297,2154.7L322.092,2154.76L321.886,2154.82L321.682,2154.89L321.478,2154.95L321.274,2155.01L321.071,2155.08L320.868,2155.15L320.666,2155.22L320.465,2155.29L320.264,2155.36L320.064,2155.43L319.864,2155.51L319.665,2155.58L319.467,2155.66L319.269,2155.74L319.071,2155.81L318.875,2155.89L318.678,2155.97L318.483,2156.06L318.288,2156.14L318.093,2156.22L317.9,2156.31L317.706,2156.4L317.514,2156.48L317.322,2156.57L317.131,2156.66L316.94,2156.75L316.75,2156.85L316.561,2156.94L316.372,2157.03L316.184,2157.13L315.997,2157.23L315.81,2157.32L315.624,2157.42L315.438,2157.52L315.254,2157.62L315.069,2157.73L314.886,2157.83L314.703,2157.93L314.521,2158.04L314.34,2158.15L314.159,2158.25L313.979,2158.36L313.8,2158.47L313.622,2158.58L313.444,2158.69L313.267,2158.81L313.09,2158.92L312.915,2159.04L312.74,2159.15L312.566,2159.27L312.392,2159.39L312.22,2159.51L312.048,2159.62L311.876,2159.75L311.706,2159.87L311.536,2159.99L311.368,2160.12L311.199,2160.24L311.032,2160.37L310.866,2160.49L310.7,2160.62L310.535,2160.75L310.371,2160.88L310.207,2161.01L310.045,2161.14L309.883,2161.28L309.722,2161.41L309.562,2161.54L309.402,2161.68L309.244,2161.82L309.086,2161.95L308.929,2162.09L308.773,2162.23L308.618,2162.37L308.464,2162.51L308.31,2162.65L308.158,2162.8L308.006,2162.94L307.855,2163.09L307.705,2163.23L307.556,2163.38L307.407,2163.53L307.26,2163.67L307.113,2163.82L306.968,2163.97L306.823,2164.12L306.679,2164.28L306.536,2164.43L306.394,2164.58L306.253,2164.74L306.113,2164.89L305.974,2165.05L305.835,2165.2L305.698,2165.36L305.561,2165.52L305.426,2165.68L305.291,2165.84L305.158,2166L305.025,2166.16L304.893,2166.32L304.762,2166.49L304.632,2166.65L304.504,2166.82L304.376,2166.98L304.249,2167.15L304.123,2167.32L303.998,2167.49L303.874,2167.65L303.751,2167.82L303.629,2167.99L303.508,2168.16L303.388,2168.34L303.269,2168.51L303.151,2168.68L303.034,2168.86L302.918,2169.03L302.804,2169.21L302.69,2169.38L302.577,2169.56L302.465,2169.74L302.354,2169.92L302.245,2170.1L302.136,2170.28L302.029,2170.46L301.922,2170.64L301.817,2170.82L301.713,2171L301.609,2171.19L301.507,2171.37L301.406,2171.56L301.306,2171.74L301.207,2171.93L301.109,2172.11L301.013,2172.3L300.917,2172.49L300.822,2172.68L300.729,2172.87L300.637,2173.06L300.546,2173.25L300.456,2173.44L300.367,2173.63L300.279,2173.82L300.192,2174.02L300.107,2174.21L300.023,2174.41L299.939,2174.6L299.857,2174.8L299.776,2174.99L299.697,2175.19L299.618,2175.39L299.541,2175.58L299.465,2175.78L299.39,2175.98L299.316,2176.18L299.243,2176.38L299.172,2176.58L299.102,2176.78L299.033,2176.99L298.965,2177.19L298.898,2177.39L298.833,2177.6L298.768,2177.8L298.706,2178L298.644,2178.21L298.583,2178.41L298.524,2178.62L298.466,2178.83L298.409,2179.04L298.354,2179.24L298.299,2179.45L298.246,2179.66L298.194,2179.87L298.144,2180.08L298.095,2180.29L298.047,2180.5L298,2180.71L297.955,2180.92L297.91,2181.14L297.868,2181.35L297.826,2181.56L297.786,2181.78L297.747,2181.99L297.709,2182.2L297.673,2182.42L297.638,2182.64L297.604,2182.85L297.572,2183.07L297.541,2183.28L297.511,2183.5L297.483,2183.72L297.456,2183.94L297.43,2184.16L297.406,2184.38L297.383,2184.6L297.361,2184.82L297.341,2185.04L297.322,2185.26L297.304,2185.48L297.288,2185.7L297.273,2185.92L297.26,2186.14L297.248,2186.37L297.237,2186.59L297.228,2186.81L297.22,2187.04L297.214,2187.26L297.209,2187.49L297.205,2187.71L297.203,2187.94L297.203,2188.16L297.203,2188.39L297.205,2188.61L297.209,2188.84L297.214,2189.06L297.22,2189.29L297.228,2189.51L297.237,2189.73L297.248,2189.96L297.26,2190.18L297.273,2190.4L297.288,2190.62L297.304,2190.85L297.322,2191.07L297.341,2191.29L297.361,2191.51L297.383,2191.73L297.406,2191.95L297.43,2192.17L297.456,2192.39L297.483,2192.6L297.511,2192.82L297.541,2193.04L297.572,2193.26L297.604,2193.47L297.638,2193.69L297.673,2193.9L297.709,2194.12L297.747,2194.33L297.786,2194.55L297.826,2194.76L297.868,2194.97L297.91,2195.19L297.955,2195.4L298,2195.61L298.047,2195.82L298.095,2196.03L298.144,2196.24L298.194,2196.45L298.246,2196.66L298.299,2196.87L298.354,2197.08L298.409,2197.29L298.466,2197.49L298.524,2197.7L298.583,2197.91L298.644,2198.11L298.706,2198.32L298.768,2198.52L298.833,2198.73L298.898,2198.93L298.965,2199.13L299.033,2199.34L299.102,2199.54L299.172,2199.74L299.243,2199.94L299.316,2200.14L299.39,2200.34L299.465,2200.54L299.541,2200.74L299.618,2200.94L299.697,2201.13L299.776,2201.33L299.857,2201.53L299.939,2201.72L300.023,2201.92L300.107,2202.11L300.192,2202.31L300.279,2202.5L300.367,2202.69L300.456,2202.88L300.546,2203.08L300.637,2203.26L300.729,2203.45L300.822,2203.64L300.917,2203.83L301.013,2204.02L301.109,2204.21L301.207,2204.4L301.306,2204.58L301.406,2204.77L301.507,2204.95L301.609,2205.14L301.713,2205.32L301.817,2205.5L301.922,2205.68L302.029,2205.87L302.136,2206.05L302.245,2206.23L302.354,2206.41L302.465,2206.58L302.577,2206.76L302.69,2206.94L302.804,2207.12L302.918,2207.29L303.034,2207.47L303.151,2207.64L303.269,2207.81L303.388,2207.99L303.508,2208.16L303.629,2208.33L303.751,2208.5L303.874,2208.67L303.998,2208.84L304.123,2209.01L304.249,2209.17L304.376,2209.34L304.504,2209.51L304.632,2209.67L304.762,2209.84L304.893,2210L305.025,2210.16L305.158,2210.32L305.291,2210.48L305.426,2210.64L305.561,2210.8L305.698,2210.96L305.835,2211.12L305.974,2211.28L306.113,2211.43L306.253,2211.59L306.394,2211.74L306.536,2211.9L306.679,2212.05L306.823,2212.2L306.968,2212.35L307.113,2212.5L307.26,2212.65L307.407,2212.8L307.556,2212.95L307.705,2213.09L307.855,2213.24L308.006,2213.38L308.158,2213.53L308.31,2213.67L308.464,2213.81L308.618,2213.95L308.773,2214.09L308.929,2214.23L309.086,2214.37L309.244,2214.51L309.402,2214.64L309.562,2214.78L309.722,2214.91L309.883,2215.05L310.045,2215.18L310.207,2215.31L310.37,2215.44L310.535,2215.57L310.7,2215.7L310.866,2215.83L311.032,2215.96L311.199,2216.08L311.368,2216.21L311.536,2216.33L311.706,2216.45L311.876,2216.58L312.048,2216.7L312.22,2216.82L312.392,2216.94L312.566,2217.05L312.74,2217.17L312.915,2217.29L313.09,2217.4L313.267,2217.52L313.444,2217.63L313.622,2217.74L313.8,2217.85L313.979,2217.96L314.159,2218.07L314.34,2218.18L314.521,2218.28L314.703,2218.39L314.886,2218.49L315.069,2218.6L315.254,2218.7L315.438,2218.8L315.624,2218.9L315.81,2219L315.997,2219.1L316.184,2219.19L316.372,2219.29L316.561,2219.38L316.75,2219.48L316.94,2219.57L317.131,2219.66L317.322,2219.75L317.514,2219.84L317.706,2219.93L317.9,2220.01L318.093,2220.1L318.288,2220.18L318.483,2220.27L318.678,2220.35L318.875,2220.43L319.071,2220.51L319.269,2220.59L319.467,2220.66L319.665,2220.74L319.864,2220.82L320.064,2220.89L320.264,2220.96L320.465,2221.03L320.666,2221.1L320.868,2221.17L321.071,2221.24L321.274,2221.31L321.478,2221.37L321.682,2221.44L321.886,2221.5L322.092,2221.56L322.297,2221.62L322.504,2221.68L322.71,2221.74L322.918,2221.8L323.126,2221.85L323.334,2221.91L323.543,2221.96L323.752,2222.01L323.962,2222.06L324.172,2222.11L324.383,2222.16L324.594,2222.21L324.806,2222.25L325.019,2222.3L325.231,2222.34L325.445,2222.38L325.658,2222.42L325.872,2222.46L326.087,2222.5L326.302,2222.53L326.518,2222.57L326.734,2222.6L326.95,2222.63L327.167,2222.66L327.384,2222.7L327.602,2222.72L327.82,2222.75L328.039,2222.78L328.258,2222.8L328.477,2222.82L328.697,2222.85L328.918,2222.87L329.138,2222.88L329.359,2222.9L329.581,2222.92L329.803,2222.93L330.025,2222.95L330.248,2222.96L330.471,2222.97L330.694,2222.98L330.918,2222.99L331.143,2222.99L331.367,2223L331.592,2223L331.817,2223L332.043,2223L332.269,2223L332.494,2223L332.719,2223L332.944,2222.99L333.168,2222.99L333.392,2222.98L333.616,2222.97L333.839,2222.96L334.061,2222.95L334.284,2222.93L334.506,2222.92L334.727,2222.9L334.948,2222.88L335.169,2222.87L335.389,2222.85L335.609,2222.82L335.829,2222.8L336.048,2222.78L336.266,2222.75L336.485,2222.72L336.702,2222.7L336.92,2222.66L337.137,2222.63L337.353,2222.6L337.569,2222.57L337.785,2222.53L338,2222.5L338.214,2222.46L338.428,2222.42L338.642,2222.38L338.855,2222.34L339.068,2222.3L339.28,2222.25L339.492,2222.21L339.704,2222.16L339.914,2222.11L340.125,2222.06L340.335,2222.01L340.544,2221.96L340.753,2221.91L340.961,2221.85L341.169,2221.8L341.376,2221.74L341.583,2221.68L341.79,2221.62L341.995,2221.56L342.201,2221.5L342.405,2221.44L342.609,2221.37L342.813,2221.31L343.016,2221.24L343.219,2221.17L343.42,2221.1L343.622,2221.03L343.823,2220.96L344.023,2220.89L344.223,2220.82L344.422,2220.74L344.62,2220.66L344.818,2220.59L345.016,2220.51L345.212,2220.43L345.409,2220.35L345.604,2220.27L345.799,2220.18L345.994,2220.1L346.187,2220.01L346.381,2219.93L346.573,2219.84L346.765,2219.75L346.956,2219.66L347.147,2219.57L347.337,2219.48L347.526,2219.38L347.715,2219.29L347.903,2219.19L348.091,2219.1L348.277,2219L348.463,2218.9L348.649,2218.8L348.834,2218.7L349.018,2218.6L349.201,2218.49L349.384,2218.39L349.566,2218.28L349.747,2218.18L349.928,2218.07L350.108,2217.96L350.287,2217.85L350.466,2217.74L350.643,2217.63L350.82,2217.52L350.997,2217.4L351.172,2217.29L351.347,2217.17L351.521,2217.05L351.695,2216.94L351.868,2216.82L352.04,2216.7L352.211,2216.58L352.381,2216.45L352.551,2216.33L352.72,2216.21L352.888,2216.08L353.055,2215.96L353.222,2215.83L353.387,2215.7L353.553,2215.57L353.717,2215.44L353.88,2215.31L354.043,2215.18L354.204,2215.05L354.366,2214.91L354.526,2214.78L354.685,2214.64L354.844,2214.51L355.001,2214.37L355.158,2214.23L355.314,2214.09L355.469,2213.95L355.624,2213.81L355.777,2213.67L355.93,2213.53L356.082,2213.38L356.232,2213.24L356.383,2213.09L356.532,2212.95L356.68,2212.8L356.827,2212.65L356.974,2212.5L357.12,2212.35L357.264,2212.2L357.408,2212.05L357.551,2211.9L357.693,2211.74L357.834,2211.59L357.974,2211.43L358.114,2211.28L358.252,2211.12L358.39,2210.96L358.526,2210.8L358.662,2210.64L358.796,2210.48L358.93,2210.32L359.063,2210.16L359.194,2210L359.325,2209.84L359.455,2209.67L359.584,2209.51L359.712,2209.34L359.839,2209.17L359.965,2209.01L360.09,2208.84L360.213,2208.67L360.336,2208.5L360.458,2208.33L360.579,2208.16L360.699,2207.99L360.818,2207.81L360.936,2207.64L361.053,2207.47L361.169,2207.29L361.284,2207.12L361.398,2206.94L361.51,2206.76L361.622,2206.58L361.733,2206.41L361.843,2206.23L361.951,2206.05L362.059,2205.87L362.165,2205.68L362.271,2205.5L362.375,2205.32L362.478,2205.14L362.58,2204.95L362.681,2204.77L362.781,2204.58L362.88,2204.4L362.978,2204.21L363.075,2204.02L363.17,2203.83L363.265,2203.64L363.358,2203.45L363.451,2203.26L363.542,2203.08L363.632,2202.88L363.721,2202.69L363.808,2202.5L363.895,2202.31L363.981,2202.11L364.065,2201.92L364.148,2201.72L364.23,2201.53L364.311,2201.33L364.391,2201.13L364.469,2200.94L364.546,2200.74L364.623,2200.54L364.698,2200.34L364.772,2200.14L364.844,2199.94L364.916,2199.74L364.986,2199.54L365.055,2199.34L365.123,2199.13L365.189,2198.93L365.255,2198.73L365.319,2198.52L365.382,2198.32L365.444,2198.11L365.504,2197.91L365.563,2197.7L365.621,2197.49L365.678,2197.29L365.734,2197.08L365.788,2196.87L365.841,2196.66L365.893,2196.45L365.943,2196.24L365.993,2196.03L366.041,2195.82L366.087,2195.61L366.133,2195.4L366.177,2195.19L366.22,2194.97L366.261,2194.76L366.302,2194.55L366.341,2194.33L366.378,2194.12L366.415,2193.9L366.45,2193.69L366.483,2193.47L366.516,2193.26L366.547,2193.04L366.576,2192.82L366.605,2192.6L366.632,2192.39L366.657,2192.17L366.682,2191.95L366.705,2191.73L366.726,2191.51L366.747,2191.29L366.766,2191.07L366.783,2190.85L366.799,2190.62L366.814,2190.4L366.827,2190.18L366.839,2189.96L366.85,2189.73L366.859,2189.51L366.867,2189.29L366.873,2189.06L366.878,2188.84L366.882,2188.61L366.884,2188.39L366.885,2188.16L366.884,2187.94L366.882,2187.71L366.878,2187.49L366.873,2187.26L366.867,2187.04L366.859,2186.81L366.85,2186.59L366.839,2186.37L366.827,2186.14L366.814,2185.92L366.799,2185.7L366.783,2185.48L366.766,2185.26L366.747,2185.04L366.726,2184.82L366.705,2184.6L366.682,2184.38L366.657,2184.16L366.632,2183.94L366.605,2183.72L366.576,2183.5L366.547,2183.28L366.516,2183.07L366.483,2182.85L366.45,2182.64L366.415,2182.42L366.378,2182.2L366.341,2181.99L366.302,2181.78L366.261,2181.56L366.22,2181.35L366.177,2181.14L366.133,2180.92L366.087,2180.71L366.041,2180.5L365.993,2180.29L365.943,2180.08L365.893,2179.87L365.841,2179.66L365.788,2179.45L365.734,2179.24L365.678,2179.04L365.621,2178.83L365.563,2178.62L365.504,2178.41L365.444,2178.21L365.382,2178L365.319,2177.8L365.255,2177.6L365.189,2177.39L365.123,2177.19L365.055,2176.99L364.986,2176.78L364.916,2176.58L364.844,2176.38L364.771,2176.18L364.698,2175.98L364.623,2175.78L364.546,2175.58L364.469,2175.39L364.391,2175.19L364.311,2174.99L364.23,2174.8L364.148,2174.6L364.065,2174.41L363.981,2174.21L363.895,2174.02L363.808,2173.82L363.721,2173.63L363.632,2173.44L363.542,2173.25L363.451,2173.06L363.358,2172.87L363.265,2172.68L363.17,2172.49L363.075,2172.3L362.978,2172.11L362.88,2171.93L362.781,2171.74L362.681,2171.56L362.58,2171.37L362.478,2171.19L362.375,2171L362.271,2170.82L362.165,2170.64L362.059,2170.46L361.951,2170.28L361.843,2170.1L361.733,2169.92L361.622,2169.74L361.51,2169.56L361.398,2169.38L361.284,2169.21L361.169,2169.03L361.053,2168.86L360.936,2168.68L360.818,2168.51L360.699,2168.34L360.579,2168.16L360.458,2167.99L360.336,2167.82L360.213,2167.65L360.09,2167.49L359.965,2167.32L359.839,2167.15L359.712,2166.98L359.584,2166.82L359.455,2166.65L359.325,2166.49L359.194,2166.32L359.063,2166.16L358.93,2166L358.796,2165.84L358.662,2165.68L358.526,2165.52L358.39,2165.36L358.252,2165.2L358.114,2165.05L357.974,2164.89L357.834,2164.74L357.693,2164.58L357.551,2164.43L357.408,2164.28L357.264,2164.12L357.12,2163.97L356.974,2163.82L356.827,2163.67L356.68,2163.53L356.532,2163.38L356.383,2163.23L356.232,2163.09L356.082,2162.94L355.93,2162.8L355.777,2162.65L355.624,2162.51L355.469,2162.37L355.314,2162.23L355.158,2162.09L355.001,2161.95L354.844,2161.82L354.685,2161.68L354.526,2161.54L354.366,2161.41L354.205,2161.28L354.043,2161.14L353.88,2161.01L353.717,2160.88L353.553,2160.75L353.387,2160.62L353.222,2160.49L353.055,2160.37L352.888,2160.24L352.72,2160.12L352.551,2159.99L352.381,2159.87L352.211,2159.75L352.04,2159.62L351.868,2159.51L351.695,2159.39L351.521,2159.27L351.347,2159.15L351.172,2159.04L350.997,2158.92L350.82,2158.81L350.643,2158.69L350.465,2158.58L350.287,2158.47L350.108,2158.36L349.928,2158.25L349.747,2158.15L349.566,2158.04L349.384,2157.93L349.201,2157.83L349.018,2157.73L348.834,2157.62L348.649,2157.52L348.463,2157.42L348.277,2157.32L348.091,2157.23L347.903,2157.13L347.715,2157.03L347.526,2156.94L347.337,2156.85L347.147,2156.75L346.956,2156.66L346.765,2156.57L346.573,2156.48L346.381,2156.4L346.187,2156.31L345.994,2156.22L345.799,2156.14L345.604,2156.06L345.409,2155.97L345.212,2155.89L345.016,2155.81L344.818,2155.74L344.62,2155.66L344.422,2155.58L344.223,2155.51L344.023,2155.43L343.823,2155.36L343.622,2155.29L343.42,2155.22L343.219,2155.15L343.016,2155.08L342.813,2155.01L342.609,2154.95L342.405,2154.89L342.201,2154.82L341.995,2154.76L341.789,2154.7L341.583,2154.64L341.376,2154.58L341.169,2154.53L340.961,2154.47L340.753,2154.42L340.544,2154.36L340.335,2154.31L340.125,2154.26L339.914,2154.21L339.704,2154.16L339.492,2154.12L339.28,2154.07L339.068,2154.03L338.855,2153.99L338.642,2153.94L338.428,2153.9L338.214,2153.86L338,2153.83L337.785,2153.79L337.569,2153.76L337.353,2153.72L337.136,2153.69L336.92,2153.66L336.702,2153.63L336.484,2153.6L336.266,2153.57L336.048,2153.55L335.829,2153.52L335.609,2153.5L335.389,2153.48L335.169,2153.46L334.948,2153.44L334.727,2153.42L334.506,2153.41L334.284,2153.39L334.061,2153.38L333.839,2153.37L333.616,2153.36L333.392,2153.35L333.168,2153.34L332.944,2153.33L332.719,2153.33L332.494,2153.32L332.269,2153.32L332.043,2153.32L331.817,2153.32Z" style="fill:rgb(91,45,16);"/>
                <path d="M360.77,2165.97L307.503,2219.24L303.318,2215.05L356.585,2161.79L360.77,2165.97Z" style="fill:rgb(91,45,16);"/>
            </g>
        </g>
    </g>
    <g transform="matrix(0.84478,-2.06911e-16,2.06911e-16,0.84478,-148.42,-1810.68)">
        <g opacity="0.300003">
            <g>
                <path d="M429.741,2147.4L430.004,2147.41L430.266,2147.41L430.528,2147.41L430.79,2147.42L431.051,2147.43L431.312,2147.44L431.573,2147.45L431.833,2147.47L432.092,2147.48L432.352,2147.5L432.611,2147.52L432.869,2147.54L433.127,2147.56L433.384,2147.59L433.642,2147.61L433.898,2147.64L434.154,2147.67L434.41,2147.7L434.665,2147.73L434.92,2147.76L435.174,2147.8L435.428,2147.83L435.681,2147.87L435.934,2147.91L436.186,2147.95L436.438,2147.99L436.689,2148.04L436.94,2148.08L437.19,2148.13L437.44,2148.18L437.689,2148.23L437.938,2148.28L438.186,2148.33L438.433,2148.39L438.68,2148.45L438.927,2148.5L439.172,2148.56L439.417,2148.62L439.662,2148.68L439.906,2148.75L440.15,2148.81L440.392,2148.88L440.635,2148.95L440.876,2149.02L441.117,2149.09L441.358,2149.16L441.597,2149.23L441.837,2149.31L442.075,2149.39L442.313,2149.46L442.55,2149.54L442.787,2149.62L443.023,2149.71L443.258,2149.79L443.492,2149.88L443.726,2149.96L443.959,2150.05L444.192,2150.14L444.424,2150.23L444.655,2150.32L444.885,2150.41L445.115,2150.51L445.344,2150.61L445.573,2150.7L445.8,2150.8L446.027,2150.9L446.253,2151L446.479,2151.11L446.703,2151.21L446.927,2151.32L447.151,2151.42L447.373,2151.53L447.595,2151.64L447.816,2151.75L448.036,2151.86L448.255,2151.97L448.474,2152.09L448.691,2152.2L448.909,2152.32L449.125,2152.44L449.34,2152.56L449.555,2152.68L449.769,2152.8L449.981,2152.93L450.194,2153.05L450.405,2153.18L450.615,2153.3L450.825,2153.43L451.034,2153.56L451.242,2153.69L451.449,2153.82L451.655,2153.96L451.861,2154.09L452.065,2154.23L452.269,2154.36L452.472,2154.5L452.674,2154.64L452.875,2154.78L453.075,2154.92L453.274,2155.07L453.473,2155.21L453.67,2155.35L453.867,2155.5L454.063,2155.65L454.257,2155.8L454.451,2155.95L454.644,2156.1L454.836,2156.25L455.027,2156.4L455.217,2156.55L455.406,2156.71L455.594,2156.87L455.782,2157.02L455.968,2157.18L456.153,2157.34L456.337,2157.5L456.521,2157.66L456.703,2157.83L456.885,2157.99L457.065,2158.16L457.244,2158.32L457.423,2158.49L457.6,2158.66L457.777,2158.83L457.952,2159L458.126,2159.17L458.3,2159.34L458.472,2159.51L458.643,2159.69L458.813,2159.86L458.982,2160.04L459.151,2160.22L459.318,2160.39L459.484,2160.57L459.649,2160.76L459.812,2160.94L459.975,2161.12L460.137,2161.3L460.298,2161.49L460.457,2161.67L460.616,2161.86L460.773,2162.05L460.929,2162.23L461.084,2162.42L461.238,2162.61L461.391,2162.8L461.543,2162.99L461.694,2163.19L461.843,2163.38L461.992,2163.58L462.139,2163.77L462.285,2163.97L462.43,2164.17L462.574,2164.37L462.716,2164.56L462.858,2164.76L462.998,2164.97L463.137,2165.17L463.275,2165.37L463.412,2165.57L463.547,2165.78L463.682,2165.98L463.815,2166.19L463.947,2166.4L464.077,2166.61L464.207,2166.81L464.335,2167.02L464.462,2167.23L464.588,2167.45L464.713,2167.66L464.836,2167.87L464.958,2168.08L465.079,2168.3L465.198,2168.51L465.317,2168.73L465.434,2168.95L465.549,2169.17L465.664,2169.38L465.777,2169.6L465.889,2169.82L466,2170.05L466.109,2170.27L466.217,2170.49L466.324,2170.71L466.429,2170.94L466.533,2171.16L466.636,2171.39L466.737,2171.61L466.837,2171.84L466.936,2172.07L467.034,2172.3L467.13,2172.52L467.224,2172.75L467.318,2172.98L467.41,2173.22L467.5,2173.45L467.589,2173.68L467.677,2173.91L467.764,2174.15L467.849,2174.38L467.932,2174.62L468.015,2174.85L468.096,2175.09L468.175,2175.33L468.253,2175.56L468.33,2175.8L468.405,2176.04L468.479,2176.28L468.551,2176.52L468.622,2176.76L468.691,2177.01L468.759,2177.25L468.826,2177.49L468.891,2177.73L468.955,2177.98L469.017,2178.22L469.077,2178.47L469.137,2178.71L469.194,2178.96L469.25,2179.21L469.305,2179.45L469.358,2179.7L469.41,2179.95L469.46,2180.2L469.509,2180.45L469.556,2180.7L469.601,2180.95L469.645,2181.2L469.688,2181.45L469.729,2181.7L469.768,2181.96L469.806,2182.21L469.843,2182.47L469.877,2182.72L469.911,2182.97L469.942,2183.23L469.972,2183.49L470.001,2183.74L470.028,2184L470.053,2184.26L470.077,2184.51L470.099,2184.77L470.119,2185.03L470.138,2185.29L470.155,2185.55L470.171,2185.81L470.185,2186.07L470.197,2186.33L470.208,2186.59L470.217,2186.85L470.225,2187.11L470.23,2187.37L470.235,2187.64L470.237,2187.9L470.238,2188.16L470.237,2188.43L470.235,2188.69L470.23,2188.95L470.225,2189.21L470.217,2189.47L470.208,2189.74L470.197,2190L470.185,2190.26L470.171,2190.52L470.155,2190.78L470.138,2191.04L470.119,2191.3L470.099,2191.55L470.077,2191.81L470.053,2192.07L470.028,2192.33L470.001,2192.58L469.972,2192.84L469.942,2193.09L469.911,2193.35L469.877,2193.6L469.843,2193.86L469.806,2194.11L469.768,2194.37L469.729,2194.62L469.688,2194.87L469.645,2195.12L469.601,2195.37L469.556,2195.62L469.509,2195.87L469.46,2196.12L469.41,2196.37L469.358,2196.62L469.305,2196.87L469.25,2197.12L469.194,2197.36L469.137,2197.61L469.077,2197.86L469.017,2198.1L468.955,2198.35L468.891,2198.59L468.826,2198.83L468.759,2199.08L468.691,2199.32L468.622,2199.56L468.551,2199.8L468.479,2200.04L468.405,2200.28L468.33,2200.52L468.253,2200.76L468.175,2201L468.096,2201.23L468.015,2201.47L467.932,2201.71L467.849,2201.94L467.764,2202.18L467.677,2202.41L467.589,2202.64L467.5,2202.88L467.41,2203.11L467.318,2203.34L467.224,2203.57L467.13,2203.8L467.034,2204.03L466.936,2204.26L466.837,2204.48L466.737,2204.71L466.636,2204.94L466.533,2205.16L466.429,2205.39L466.324,2205.61L466.217,2205.84L466.109,2206.06L466,2206.28L465.889,2206.5L465.777,2206.72L465.664,2206.94L465.549,2207.16L465.434,2207.38L465.317,2207.59L465.198,2207.81L465.079,2208.02L464.958,2208.24L464.836,2208.45L464.713,2208.66L464.588,2208.88L464.462,2209.09L464.335,2209.3L464.207,2209.51L464.077,2209.72L463.947,2209.93L463.815,2210.13L463.682,2210.34L463.547,2210.55L463.412,2210.75L463.275,2210.95L463.137,2211.16L462.998,2211.36L462.858,2211.56L462.716,2211.76L462.574,2211.96L462.43,2212.16L462.285,2212.35L462.139,2212.55L461.992,2212.75L461.843,2212.94L461.694,2213.14L461.543,2213.33L461.391,2213.52L461.238,2213.71L461.084,2213.9L460.929,2214.09L460.773,2214.28L460.616,2214.47L460.457,2214.65L460.298,2214.84L460.137,2215.02L459.975,2215.2L459.812,2215.39L459.649,2215.57L459.484,2215.75L459.318,2215.93L459.151,2216.11L458.982,2216.28L458.813,2216.46L458.643,2216.64L458.472,2216.81L458.3,2216.98L458.126,2217.16L457.952,2217.33L457.777,2217.5L457.6,2217.67L457.423,2217.84L457.244,2218L457.065,2218.17L456.885,2218.33L456.703,2218.5L456.521,2218.66L456.337,2218.82L456.153,2218.98L455.968,2219.14L455.782,2219.3L455.594,2219.46L455.406,2219.61L455.217,2219.77L455.027,2219.92L454.836,2220.08L454.644,2220.23L454.451,2220.38L454.257,2220.53L454.063,2220.68L453.867,2220.82L453.67,2220.97L453.473,2221.11L453.274,2221.26L453.075,2221.4L452.875,2221.54L452.674,2221.68L452.472,2221.82L452.269,2221.96L452.065,2222.1L451.861,2222.23L451.655,2222.37L451.449,2222.5L451.242,2222.63L451.034,2222.76L450.825,2222.89L450.616,2223.02L450.405,2223.15L450.194,2223.27L449.981,2223.4L449.769,2223.52L449.555,2223.64L449.34,2223.76L449.125,2223.88L448.909,2224L448.691,2224.12L448.474,2224.23L448.255,2224.35L448.036,2224.46L447.816,2224.57L447.595,2224.68L447.373,2224.79L447.151,2224.9L446.927,2225.01L446.703,2225.11L446.479,2225.22L446.253,2225.32L446.027,2225.42L445.8,2225.52L445.573,2225.62L445.344,2225.72L445.115,2225.81L444.885,2225.91L444.655,2226L444.424,2226.09L444.192,2226.18L443.959,2226.27L443.726,2226.36L443.492,2226.45L443.258,2226.53L443.023,2226.62L442.787,2226.7L442.55,2226.78L442.313,2226.86L442.075,2226.94L441.837,2227.01L441.597,2227.09L441.358,2227.16L441.117,2227.24L440.876,2227.31L440.635,2227.38L440.392,2227.44L440.15,2227.51L439.906,2227.58L439.662,2227.64L439.417,2227.7L439.172,2227.76L438.927,2227.82L438.68,2227.88L438.433,2227.93L438.186,2227.99L437.938,2228.04L437.689,2228.09L437.44,2228.14L437.19,2228.19L436.94,2228.24L436.689,2228.28L436.438,2228.33L436.186,2228.37L435.934,2228.41L435.681,2228.45L435.428,2228.49L435.174,2228.53L434.92,2228.56L434.665,2228.6L434.41,2228.63L434.154,2228.66L433.898,2228.68L433.642,2228.71L433.384,2228.74L433.127,2228.76L432.869,2228.78L432.611,2228.8L432.352,2228.82L432.092,2228.84L431.833,2228.86L431.573,2228.87L431.312,2228.88L431.051,2228.89L430.79,2228.9L430.528,2228.91L430.266,2228.91L430.004,2228.92L429.741,2228.92L429.478,2228.92L429.214,2228.92L428.952,2228.92L428.689,2228.91L428.427,2228.91L428.165,2228.9L427.904,2228.89L427.643,2228.88L427.383,2228.87L427.123,2228.86L426.863,2228.84L426.604,2228.82L426.345,2228.8L426.086,2228.78L425.828,2228.76L425.571,2228.74L425.314,2228.71L425.057,2228.68L424.801,2228.66L424.545,2228.63L424.29,2228.6L424.035,2228.56L423.781,2228.53L423.527,2228.49L423.274,2228.45L423.021,2228.41L422.769,2228.37L422.517,2228.33L422.266,2228.28L422.015,2228.24L421.765,2228.19L421.515,2228.14L421.266,2228.09L421.018,2228.04L420.77,2227.99L420.522,2227.93L420.275,2227.88L420.029,2227.82L419.783,2227.76L419.538,2227.7L419.293,2227.64L419.05,2227.58L418.806,2227.51L418.563,2227.44L418.321,2227.38L418.079,2227.31L417.838,2227.24L417.598,2227.16L417.358,2227.09L417.119,2227.01L416.881,2226.94L416.643,2226.86L416.406,2226.78L416.169,2226.7L415.933,2226.62L415.698,2226.53L415.463,2226.45L415.229,2226.36L414.996,2226.27L414.764,2226.18L414.532,2226.09L414.301,2226L414.07,2225.91L413.841,2225.81L413.611,2225.72L413.383,2225.62L413.156,2225.52L412.929,2225.42L412.702,2225.32L412.477,2225.22L412.252,2225.11L412.028,2225.01L411.805,2224.9L411.583,2224.79L411.361,2224.68L411.14,2224.57L410.92,2224.46L410.701,2224.35L410.482,2224.23L410.264,2224.12L410.047,2224L409.831,2223.88L409.616,2223.76L409.401,2223.64L409.187,2223.52L408.974,2223.4L408.762,2223.27L408.551,2223.15L408.34,2223.02L408.131,2222.89L407.922,2222.76L407.714,2222.63L407.507,2222.5L407.3,2222.37L407.095,2222.23L406.89,2222.1L406.687,2221.96L406.484,2221.82L406.282,2221.68L406.081,2221.54L405.881,2221.4L405.681,2221.26L405.483,2221.11L405.286,2220.97L405.089,2220.82L404.893,2220.68L404.699,2220.53L404.505,2220.38L404.312,2220.23L404.12,2220.08L403.929,2219.92L403.739,2219.77L403.55,2219.61L403.362,2219.46L403.174,2219.3L402.988,2219.14L402.803,2218.98L402.619,2218.82L402.435,2218.66L402.253,2218.5L402.071,2218.33L401.891,2218.17L401.712,2218L401.533,2217.84L401.356,2217.67L401.18,2217.5L401.004,2217.33L400.83,2217.16L400.656,2216.98L400.484,2216.81L400.313,2216.64L400.143,2216.46L399.974,2216.28L399.805,2216.11L399.638,2215.93L399.472,2215.75L399.308,2215.57L399.144,2215.39L398.981,2215.2L398.819,2215.02L398.659,2214.84L398.499,2214.65L398.34,2214.47L398.183,2214.28L398.027,2214.09L397.872,2213.9L397.718,2213.71L397.565,2213.52L397.413,2213.33L397.262,2213.14L397.113,2212.94L396.965,2212.75L396.817,2212.55L396.671,2212.35L396.526,2212.16L396.382,2211.96L396.24,2211.76L396.098,2211.56L395.958,2211.36L395.819,2211.16L395.681,2210.95L395.544,2210.75L395.409,2210.55L395.275,2210.34L395.141,2210.13L395.009,2209.93L394.879,2209.72L394.749,2209.51L394.621,2209.3L394.494,2209.09L394.368,2208.88L394.244,2208.66L394.12,2208.45L393.998,2208.24L393.877,2208.02L393.758,2207.81L393.639,2207.59L393.522,2207.38L393.407,2207.16L393.292,2206.94L393.179,2206.72L393.067,2206.5L392.956,2206.28L392.847,2206.06L392.739,2205.83L392.632,2205.61L392.527,2205.39L392.423,2205.16L392.32,2204.94L392.219,2204.71L392.119,2204.48L392.02,2204.26L391.923,2204.03L391.827,2203.8L391.732,2203.57L391.639,2203.34L391.547,2203.11L391.456,2202.88L391.367,2202.64L391.279,2202.41L391.192,2202.18L391.107,2201.94L391.024,2201.71L390.941,2201.47L390.86,2201.23L390.781,2201L390.703,2200.76L390.626,2200.52L390.551,2200.28L390.477,2200.04L390.405,2199.8L390.334,2199.56L390.265,2199.32L390.197,2199.08L390.13,2198.83L390.065,2198.59L390.002,2198.35L389.94,2198.1L389.879,2197.86L389.82,2197.61L389.762,2197.36L389.706,2197.12L389.651,2196.87L389.598,2196.62L389.546,2196.37L389.496,2196.12L389.447,2195.87L389.4,2195.62L389.355,2195.37L389.311,2195.12L389.268,2194.87L389.227,2194.62L389.188,2194.37L389.15,2194.11L389.114,2193.86L389.079,2193.6L389.046,2193.35L389.014,2193.09L388.984,2192.84L388.955,2192.58L388.929,2192.33L388.903,2192.07L388.88,2191.81L388.857,2191.55L388.837,2191.3L388.818,2191.04L388.801,2190.78L388.785,2190.52L388.771,2190.26L388.759,2190L388.748,2189.74L388.739,2189.47L388.732,2189.21L388.726,2188.95L388.722,2188.69L388.719,2188.43L388.718,2188.16L388.719,2187.9L388.722,2187.64L388.726,2187.37L388.732,2187.11L388.739,2186.85L388.748,2186.59L388.759,2186.33L388.771,2186.07L388.785,2185.81L388.801,2185.55L388.818,2185.29L388.837,2185.03L388.857,2184.77L388.88,2184.51L388.903,2184.26L388.929,2184L388.955,2183.74L388.984,2183.49L389.014,2183.23L389.046,2182.97L389.079,2182.72L389.114,2182.47L389.15,2182.21L389.188,2181.96L389.227,2181.7L389.268,2181.45L389.311,2181.2L389.355,2180.95L389.4,2180.7L389.447,2180.45L389.496,2180.2L389.546,2179.95L389.598,2179.7L389.651,2179.45L389.706,2179.21L389.762,2178.96L389.82,2178.71L389.879,2178.47L389.94,2178.22L390.002,2177.98L390.065,2177.73L390.13,2177.49L390.197,2177.25L390.265,2177.01L390.334,2176.76L390.405,2176.52L390.477,2176.28L390.551,2176.04L390.626,2175.8L390.703,2175.56L390.781,2175.33L390.86,2175.09L390.941,2174.85L391.024,2174.62L391.107,2174.38L391.192,2174.15L391.279,2173.91L391.367,2173.68L391.456,2173.45L391.547,2173.22L391.639,2172.98L391.732,2172.75L391.827,2172.52L391.923,2172.3L392.02,2172.07L392.119,2171.84L392.219,2171.61L392.32,2171.39L392.423,2171.16L392.527,2170.94L392.632,2170.71L392.739,2170.49L392.847,2170.27L392.956,2170.05L393.067,2169.82L393.179,2169.6L393.292,2169.38L393.407,2169.17L393.522,2168.95L393.639,2168.73L393.758,2168.51L393.877,2168.3L393.998,2168.09L394.12,2167.87L394.244,2167.66L394.368,2167.45L394.494,2167.23L394.621,2167.02L394.749,2166.81L394.879,2166.61L395.009,2166.4L395.141,2166.19L395.275,2165.98L395.409,2165.78L395.544,2165.57L395.681,2165.37L395.819,2165.17L395.958,2164.97L396.098,2164.76L396.24,2164.56L396.382,2164.37L396.526,2164.17L396.671,2163.97L396.817,2163.77L396.965,2163.58L397.113,2163.38L397.262,2163.19L397.413,2162.99L397.565,2162.8L397.718,2162.61L397.872,2162.42L398.027,2162.23L398.183,2162.05L398.34,2161.86L398.499,2161.67L398.659,2161.49L398.819,2161.3L398.981,2161.12L399.144,2160.94L399.308,2160.76L399.472,2160.57L399.638,2160.39L399.805,2160.22L399.974,2160.04L400.143,2159.86L400.313,2159.69L400.484,2159.51L400.656,2159.34L400.83,2159.17L401.004,2159L401.18,2158.83L401.356,2158.66L401.533,2158.49L401.712,2158.32L401.891,2158.16L402.071,2157.99L402.253,2157.83L402.435,2157.66L402.619,2157.5L402.803,2157.34L402.988,2157.18L403.174,2157.02L403.362,2156.87L403.55,2156.71L403.739,2156.55L403.929,2156.4L404.12,2156.25L404.312,2156.1L404.505,2155.95L404.699,2155.8L404.893,2155.65L405.089,2155.5L405.286,2155.35L405.483,2155.21L405.681,2155.07L405.881,2154.92L406.081,2154.78L406.282,2154.64L406.484,2154.5L406.687,2154.36L406.89,2154.23L407.095,2154.09L407.3,2153.96L407.507,2153.82L407.714,2153.69L407.922,2153.56L408.131,2153.43L408.34,2153.3L408.551,2153.18L408.762,2153.05L408.974,2152.93L409.187,2152.8L409.401,2152.68L409.616,2152.56L409.831,2152.44L410.047,2152.32L410.264,2152.2L410.482,2152.09L410.701,2151.97L410.92,2151.86L411.14,2151.75L411.361,2151.64L411.583,2151.53L411.805,2151.42L412.028,2151.32L412.252,2151.21L412.477,2151.11L412.702,2151L412.929,2150.9L413.156,2150.8L413.383,2150.7L413.611,2150.61L413.841,2150.51L414.07,2150.41L414.301,2150.32L414.532,2150.23L414.764,2150.14L414.996,2150.05L415.229,2149.96L415.463,2149.88L415.698,2149.79L415.933,2149.71L416.169,2149.62L416.406,2149.54L416.643,2149.46L416.881,2149.39L417.119,2149.31L417.358,2149.23L417.598,2149.16L417.838,2149.09L418.079,2149.02L418.321,2148.95L418.563,2148.88L418.806,2148.81L419.049,2148.75L419.293,2148.68L419.538,2148.62L419.783,2148.56L420.029,2148.5L420.275,2148.45L420.522,2148.39L420.77,2148.33L421.018,2148.28L421.266,2148.23L421.516,2148.18L421.765,2148.13L422.015,2148.08L422.266,2148.04L422.517,2147.99L422.769,2147.95L423.021,2147.91L423.274,2147.87L423.527,2147.83L423.781,2147.8L424.035,2147.76L424.29,2147.73L424.545,2147.7L424.801,2147.67L425.057,2147.64L425.314,2147.61L425.571,2147.59L425.828,2147.56L426.086,2147.54L426.345,2147.52L426.604,2147.5L426.863,2147.48L427.123,2147.47L427.383,2147.45L427.643,2147.44L427.904,2147.43L428.165,2147.42L428.427,2147.41L428.689,2147.41L428.952,2147.41L429.214,2147.4L429.478,2147.4L429.741,2147.4ZM429.252,2153.32L429.027,2153.32L428.802,2153.33L428.577,2153.33L428.353,2153.34L428.129,2153.35L427.905,2153.36L427.682,2153.37L427.46,2153.38L427.237,2153.39L427.015,2153.41L426.794,2153.42L426.573,2153.44L426.352,2153.46L426.132,2153.48L425.912,2153.5L425.692,2153.52L425.473,2153.55L425.255,2153.57L425.037,2153.6L424.819,2153.63L424.601,2153.66L424.385,2153.69L424.168,2153.72L423.952,2153.76L423.737,2153.79L423.521,2153.83L423.307,2153.86L423.093,2153.9L422.879,2153.94L422.666,2153.99L422.453,2154.03L422.241,2154.07L422.029,2154.12L421.818,2154.16L421.607,2154.21L421.396,2154.26L421.187,2154.31L420.977,2154.36L420.768,2154.42L420.56,2154.47L420.352,2154.53L420.145,2154.58L419.938,2154.64L419.732,2154.7L419.526,2154.76L419.321,2154.82L419.116,2154.89L418.912,2154.95L418.708,2155.01L418.505,2155.08L418.303,2155.15L418.101,2155.22L417.899,2155.29L417.699,2155.36L417.498,2155.43L417.299,2155.51L417.1,2155.58L416.901,2155.66L416.703,2155.74L416.506,2155.81L416.309,2155.89L416.113,2155.97L415.917,2156.06L415.722,2156.14L415.528,2156.22L415.334,2156.31L415.141,2156.4L414.948,2156.48L414.756,2156.57L414.565,2156.66L414.375,2156.75L414.185,2156.85L413.995,2156.94L413.806,2157.03L413.618,2157.13L413.431,2157.23L413.244,2157.32L413.058,2157.42L412.873,2157.52L412.688,2157.62L412.504,2157.73L412.32,2157.83L412.138,2157.93L411.956,2158.04L411.774,2158.15L411.594,2158.25L411.414,2158.36L411.235,2158.47L411.056,2158.58L410.878,2158.69L410.701,2158.81L410.525,2158.92L410.349,2159.04L410.174,2159.15L410,2159.27L409.827,2159.39L409.654,2159.51L409.482,2159.62L409.311,2159.75L409.14,2159.87L408.971,2159.99L408.802,2160.12L408.634,2160.24L408.466,2160.37L408.3,2160.49L408.134,2160.62L407.969,2160.75L407.805,2160.88L407.641,2161.01L407.479,2161.14L407.317,2161.28L407.156,2161.41L406.996,2161.54L406.837,2161.68L406.678,2161.82L406.52,2161.95L406.364,2162.09L406.208,2162.23L406.052,2162.37L405.898,2162.51L405.745,2162.65L405.592,2162.8L405.44,2162.94L405.289,2163.09L405.139,2163.23L404.99,2163.38L404.842,2163.53L404.694,2163.67L404.548,2163.82L404.402,2163.97L404.257,2164.12L404.114,2164.28L403.971,2164.43L403.829,2164.58L403.687,2164.74L403.547,2164.89L403.408,2165.05L403.27,2165.2L403.132,2165.36L402.996,2165.52L402.86,2165.68L402.726,2165.84L402.592,2166L402.459,2166.16L402.327,2166.32L402.197,2166.49L402.067,2166.65L401.938,2166.82L401.81,2166.98L401.683,2167.15L401.557,2167.32L401.432,2167.49L401.308,2167.65L401.185,2167.82L401.063,2167.99L400.942,2168.16L400.822,2168.34L400.704,2168.51L400.586,2168.68L400.469,2168.86L400.353,2169.03L400.238,2169.21L400.124,2169.38L400.011,2169.56L399.9,2169.74L399.789,2169.92L399.679,2170.1L399.571,2170.28L399.463,2170.46L399.357,2170.64L399.251,2170.82L399.147,2171L399.044,2171.19L398.941,2171.37L398.84,2171.56L398.74,2171.74L398.641,2171.93L398.544,2172.11L398.447,2172.3L398.351,2172.49L398.257,2172.68L398.163,2172.87L398.071,2173.06L397.98,2173.25L397.89,2173.44L397.801,2173.63L397.713,2173.82L397.627,2174.02L397.541,2174.21L397.457,2174.41L397.374,2174.6L397.292,2174.8L397.211,2174.99L397.131,2175.19L397.053,2175.39L396.975,2175.58L396.899,2175.78L396.824,2175.98L396.75,2176.18L396.678,2176.38L396.606,2176.58L396.536,2176.78L396.467,2176.99L396.399,2177.19L396.332,2177.39L396.267,2177.6L396.203,2177.8L396.14,2178L396.078,2178.21L396.018,2178.41L395.958,2178.62L395.9,2178.83L395.844,2179.04L395.788,2179.24L395.734,2179.45L395.681,2179.66L395.629,2179.87L395.578,2180.08L395.529,2180.29L395.481,2180.5L395.434,2180.71L395.389,2180.92L395.345,2181.14L395.302,2181.35L395.26,2181.56L395.22,2181.78L395.181,2181.99L395.144,2182.2L395.107,2182.42L395.072,2182.64L395.039,2182.85L395.006,2183.07L394.975,2183.28L394.945,2183.5L394.917,2183.72L394.89,2183.94L394.864,2184.16L394.84,2184.38L394.817,2184.6L394.795,2184.82L394.775,2185.04L394.756,2185.26L394.739,2185.48L394.723,2185.7L394.708,2185.92L394.694,2186.14L394.682,2186.37L394.672,2186.59L394.663,2186.81L394.655,2187.04L394.648,2187.26L394.643,2187.49L394.64,2187.71L394.638,2187.94L394.637,2188.16L394.638,2188.39L394.64,2188.61L394.643,2188.84L394.648,2189.06L394.655,2189.29L394.663,2189.51L394.672,2189.73L394.682,2189.96L394.694,2190.18L394.708,2190.4L394.723,2190.62L394.739,2190.85L394.756,2191.07L394.775,2191.29L394.795,2191.51L394.817,2191.73L394.84,2191.95L394.864,2192.17L394.89,2192.39L394.917,2192.6L394.945,2192.82L394.975,2193.04L395.006,2193.26L395.039,2193.47L395.072,2193.69L395.107,2193.9L395.144,2194.12L395.181,2194.33L395.22,2194.55L395.26,2194.76L395.302,2194.97L395.345,2195.19L395.389,2195.4L395.434,2195.61L395.481,2195.82L395.529,2196.03L395.578,2196.24L395.629,2196.45L395.681,2196.66L395.734,2196.87L395.788,2197.08L395.844,2197.29L395.9,2197.49L395.958,2197.7L396.018,2197.91L396.078,2198.11L396.14,2198.32L396.203,2198.52L396.267,2198.73L396.332,2198.93L396.399,2199.13L396.467,2199.34L396.536,2199.54L396.606,2199.74L396.678,2199.94L396.75,2200.14L396.824,2200.34L396.899,2200.54L396.975,2200.74L397.053,2200.94L397.131,2201.13L397.211,2201.33L397.292,2201.53L397.374,2201.72L397.457,2201.92L397.541,2202.11L397.627,2202.31L397.713,2202.5L397.801,2202.69L397.89,2202.88L397.98,2203.08L398.071,2203.26L398.163,2203.45L398.257,2203.64L398.351,2203.83L398.447,2204.02L398.544,2204.21L398.641,2204.4L398.74,2204.58L398.84,2204.77L398.941,2204.95L399.044,2205.14L399.147,2205.32L399.251,2205.5L399.357,2205.68L399.463,2205.87L399.571,2206.05L399.679,2206.23L399.789,2206.41L399.9,2206.58L400.011,2206.76L400.124,2206.94L400.238,2207.12L400.353,2207.29L400.469,2207.47L400.586,2207.64L400.704,2207.81L400.822,2207.99L400.942,2208.16L401.063,2208.33L401.185,2208.5L401.308,2208.67L401.432,2208.84L401.557,2209.01L401.683,2209.17L401.81,2209.34L401.938,2209.51L402.067,2209.67L402.197,2209.84L402.327,2210L402.459,2210.16L402.592,2210.32L402.726,2210.48L402.86,2210.64L402.996,2210.8L403.132,2210.96L403.27,2211.12L403.408,2211.28L403.547,2211.43L403.687,2211.59L403.829,2211.74L403.971,2211.9L404.114,2212.05L404.257,2212.2L404.402,2212.35L404.548,2212.5L404.694,2212.65L404.842,2212.8L404.99,2212.95L405.139,2213.09L405.289,2213.24L405.44,2213.38L405.592,2213.53L405.745,2213.67L405.898,2213.81L406.052,2213.95L406.208,2214.09L406.364,2214.23L406.52,2214.37L406.678,2214.51L406.837,2214.64L406.996,2214.78L407.156,2214.91L407.317,2215.05L407.479,2215.18L407.641,2215.31L407.805,2215.44L407.969,2215.57L408.134,2215.7L408.3,2215.83L408.466,2215.96L408.634,2216.08L408.802,2216.21L408.971,2216.33L409.14,2216.45L409.311,2216.58L409.482,2216.7L409.654,2216.82L409.827,2216.94L410,2217.05L410.174,2217.17L410.349,2217.29L410.525,2217.4L410.701,2217.52L410.878,2217.63L411.056,2217.74L411.235,2217.85L411.414,2217.96L411.594,2218.07L411.774,2218.18L411.956,2218.28L412.138,2218.39L412.32,2218.49L412.504,2218.6L412.688,2218.7L412.873,2218.8L413.058,2218.9L413.244,2219L413.431,2219.1L413.618,2219.19L413.806,2219.29L413.995,2219.38L414.185,2219.48L414.375,2219.57L414.565,2219.66L414.756,2219.75L414.948,2219.84L415.141,2219.93L415.334,2220.01L415.528,2220.1L415.722,2220.18L415.917,2220.27L416.113,2220.35L416.309,2220.43L416.506,2220.51L416.703,2220.59L416.901,2220.66L417.1,2220.74L417.299,2220.82L417.498,2220.89L417.699,2220.96L417.899,2221.03L418.101,2221.1L418.303,2221.17L418.505,2221.24L418.708,2221.31L418.912,2221.37L419.116,2221.44L419.321,2221.5L419.526,2221.56L419.732,2221.62L419.938,2221.68L420.145,2221.74L420.352,2221.8L420.56,2221.85L420.768,2221.91L420.977,2221.96L421.187,2222.01L421.396,2222.06L421.607,2222.11L421.818,2222.16L422.029,2222.21L422.241,2222.25L422.453,2222.3L422.666,2222.34L422.879,2222.38L423.093,2222.42L423.307,2222.46L423.522,2222.5L423.737,2222.53L423.952,2222.57L424.168,2222.6L424.385,2222.63L424.601,2222.66L424.819,2222.7L425.037,2222.72L425.255,2222.75L425.473,2222.78L425.692,2222.8L425.912,2222.82L426.132,2222.85L426.352,2222.87L426.573,2222.88L426.794,2222.9L427.015,2222.92L427.237,2222.93L427.46,2222.95L427.682,2222.96L427.905,2222.97L428.129,2222.98L428.353,2222.99L428.577,2222.99L428.802,2223L429.027,2223L429.252,2223L429.478,2223L429.703,2223L429.929,2223L430.154,2223L430.378,2222.99L430.603,2222.99L430.826,2222.98L431.05,2222.97L431.273,2222.96L431.496,2222.95L431.718,2222.93L431.94,2222.92L432.162,2222.9L432.383,2222.88L432.603,2222.87L432.824,2222.85L433.044,2222.82L433.263,2222.8L433.482,2222.78L433.701,2222.75L433.919,2222.72L434.137,2222.7L434.354,2222.66L434.571,2222.63L434.787,2222.6L435.003,2222.57L435.219,2222.53L435.434,2222.5L435.649,2222.46L435.863,2222.42L436.077,2222.38L436.29,2222.34L436.503,2222.3L436.715,2222.25L436.927,2222.21L437.138,2222.16L437.349,2222.11L437.559,2222.06L437.769,2222.01L437.978,2221.96L438.187,2221.91L438.396,2221.85L438.604,2221.8L438.811,2221.74L439.018,2221.68L439.224,2221.62L439.43,2221.56L439.635,2221.5L439.84,2221.44L440.044,2221.37L440.247,2221.31L440.45,2221.24L440.653,2221.17L440.855,2221.1L441.056,2221.03L441.257,2220.96L441.457,2220.89L441.657,2220.82L441.856,2220.74L442.055,2220.66L442.253,2220.59L442.45,2220.51L442.647,2220.43L442.843,2220.35L443.039,2220.27L443.234,2220.18L443.428,2220.1L443.622,2220.01L443.815,2219.93L444.008,2219.84L444.199,2219.75L444.391,2219.66L444.581,2219.57L444.771,2219.48L444.961,2219.38L445.149,2219.29L445.338,2219.19L445.525,2219.1L445.712,2219L445.898,2218.9L446.083,2218.8L446.268,2218.7L446.452,2218.6L446.635,2218.49L446.818,2218.39L447,2218.28L447.182,2218.18L447.362,2218.07L447.542,2217.96L447.721,2217.85L447.9,2217.74L448.078,2217.63L448.255,2217.52L448.431,2217.4L448.607,2217.29L448.782,2217.17L448.956,2217.05L449.129,2216.94L449.302,2216.82L449.474,2216.7L449.645,2216.58L449.816,2216.45L449.985,2216.33L450.154,2216.21L450.322,2216.08L450.49,2215.96L450.656,2215.83L450.822,2215.7L450.987,2215.57L451.151,2215.44L451.315,2215.31L451.477,2215.18L451.639,2215.05L451.8,2214.91L451.96,2214.78L452.119,2214.64L452.278,2214.51L452.436,2214.37L452.592,2214.23L452.748,2214.09L452.904,2213.95L453.058,2213.81L453.212,2213.67L453.364,2213.53L453.516,2213.38L453.667,2213.24L453.817,2213.09L453.966,2212.95L454.114,2212.8L454.262,2212.65L454.408,2212.5L454.554,2212.35L454.699,2212.2L454.843,2212.05L454.985,2211.9L455.128,2211.74L455.269,2211.59L455.409,2211.43L455.548,2211.28L455.686,2211.12L455.824,2210.96L455.96,2210.8L456.096,2210.64L456.231,2210.48L456.364,2210.32L456.497,2210.16L456.629,2210L456.76,2209.84L456.889,2209.67L457.018,2209.51L457.146,2209.34L457.273,2209.17L457.399,2209.01L457.524,2208.84L457.648,2208.67L457.771,2208.5L457.893,2208.33L458.014,2208.16L458.134,2207.99L458.253,2207.81L458.371,2207.64L458.488,2207.47L458.603,2207.29L458.718,2207.12L458.832,2206.94L458.945,2206.76L459.057,2206.58L459.167,2206.41L459.277,2206.23L459.386,2206.05L459.493,2205.87L459.6,2205.68L459.705,2205.5L459.809,2205.32L459.913,2205.14L460.015,2204.95L460.116,2204.77L460.216,2204.58L460.315,2204.4L460.412,2204.21L460.509,2204.02L460.605,2203.83L460.699,2203.64L460.793,2203.45L460.885,2203.26L460.976,2203.08L461.066,2202.88L461.155,2202.69L461.243,2202.5L461.329,2202.31L461.415,2202.11L461.499,2201.92L461.582,2201.72L461.664,2201.53L461.745,2201.33L461.825,2201.13L461.904,2200.94L461.981,2200.74L462.057,2200.54L462.132,2200.34L462.206,2200.14L462.279,2199.94L462.35,2199.74L462.42,2199.54L462.489,2199.34L462.557,2199.13L462.624,2198.93L462.689,2198.73L462.753,2198.52L462.816,2198.32L462.878,2198.11L462.939,2197.91L462.998,2197.7L463.056,2197.49L463.113,2197.29L463.168,2197.08L463.222,2196.87L463.276,2196.66L463.327,2196.45L463.378,2196.24L463.427,2196.03L463.475,2195.82L463.522,2195.61L463.567,2195.4L463.611,2195.19L463.654,2194.97L463.696,2194.76L463.736,2194.55L463.775,2194.33L463.813,2194.12L463.849,2193.9L463.884,2193.69L463.918,2193.47L463.95,2193.26L463.981,2193.04L464.011,2192.82L464.039,2192.6L464.066,2192.39L464.092,2192.17L464.116,2191.95L464.139,2191.73L464.161,2191.51L464.181,2191.29L464.2,2191.07L464.218,2190.85L464.234,2190.62L464.248,2190.4L464.262,2190.18L464.274,2189.96L464.284,2189.73L464.294,2189.51L464.301,2189.29L464.308,2189.06L464.313,2188.84L464.316,2188.61L464.319,2188.39L464.319,2188.16L464.319,2187.94L464.316,2187.71L464.313,2187.49L464.308,2187.26L464.301,2187.04L464.294,2186.81L464.284,2186.59L464.274,2186.37L464.262,2186.14L464.248,2185.92L464.234,2185.7L464.218,2185.48L464.2,2185.26L464.181,2185.04L464.161,2184.82L464.139,2184.6L464.116,2184.38L464.092,2184.16L464.066,2183.94L464.039,2183.72L464.011,2183.5L463.981,2183.28L463.95,2183.07L463.918,2182.85L463.884,2182.64L463.849,2182.42L463.813,2182.2L463.775,2181.99L463.736,2181.78L463.696,2181.56L463.654,2181.35L463.611,2181.14L463.567,2180.92L463.522,2180.71L463.475,2180.5L463.427,2180.29L463.378,2180.08L463.327,2179.87L463.276,2179.66L463.222,2179.45L463.168,2179.24L463.113,2179.04L463.056,2178.83L462.998,2178.62L462.939,2178.41L462.878,2178.21L462.816,2178L462.753,2177.8L462.689,2177.6L462.624,2177.39L462.557,2177.19L462.489,2176.99L462.42,2176.78L462.35,2176.58L462.279,2176.38L462.206,2176.18L462.132,2175.98L462.057,2175.78L461.981,2175.59L461.904,2175.39L461.825,2175.19L461.745,2174.99L461.664,2174.8L461.582,2174.6L461.499,2174.41L461.415,2174.21L461.329,2174.02L461.243,2173.82L461.155,2173.63L461.066,2173.44L460.976,2173.25L460.885,2173.06L460.793,2172.87L460.699,2172.68L460.605,2172.49L460.509,2172.3L460.412,2172.11L460.315,2171.93L460.216,2171.74L460.116,2171.56L460.015,2171.37L459.913,2171.19L459.809,2171L459.705,2170.82L459.6,2170.64L459.493,2170.46L459.386,2170.28L459.277,2170.1L459.167,2169.92L459.057,2169.74L458.945,2169.56L458.832,2169.38L458.718,2169.21L458.603,2169.03L458.488,2168.86L458.371,2168.68L458.253,2168.51L458.134,2168.34L458.014,2168.16L457.893,2167.99L457.771,2167.82L457.648,2167.65L457.524,2167.49L457.399,2167.32L457.273,2167.15L457.146,2166.98L457.018,2166.82L456.889,2166.65L456.76,2166.49L456.629,2166.32L456.497,2166.16L456.364,2166L456.231,2165.84L456.096,2165.68L455.96,2165.52L455.824,2165.36L455.686,2165.2L455.548,2165.05L455.409,2164.89L455.269,2164.74L455.128,2164.58L454.985,2164.43L454.843,2164.28L454.699,2164.12L454.554,2163.97L454.408,2163.82L454.262,2163.67L454.114,2163.53L453.966,2163.38L453.817,2163.23L453.667,2163.09L453.516,2162.94L453.364,2162.8L453.212,2162.65L453.058,2162.51L452.904,2162.37L452.748,2162.23L452.592,2162.09L452.436,2161.95L452.278,2161.82L452.119,2161.68L451.96,2161.54L451.8,2161.41L451.639,2161.28L451.477,2161.14L451.315,2161.01L451.151,2160.88L450.987,2160.75L450.822,2160.62L450.656,2160.49L450.49,2160.37L450.322,2160.24L450.154,2160.12L449.985,2159.99L449.816,2159.87L449.645,2159.75L449.474,2159.62L449.302,2159.51L449.129,2159.39L448.956,2159.27L448.782,2159.15L448.607,2159.04L448.431,2158.92L448.255,2158.81L448.078,2158.69L447.9,2158.58L447.721,2158.47L447.542,2158.36L447.362,2158.25L447.182,2158.15L447,2158.04L446.818,2157.93L446.635,2157.83L446.452,2157.73L446.268,2157.62L446.083,2157.52L445.898,2157.42L445.712,2157.32L445.525,2157.23L445.338,2157.13L445.149,2157.03L444.961,2156.94L444.771,2156.85L444.581,2156.75L444.391,2156.66L444.199,2156.57L444.008,2156.48L443.815,2156.4L443.622,2156.31L443.428,2156.22L443.234,2156.14L443.039,2156.06L442.843,2155.97L442.647,2155.89L442.45,2155.81L442.253,2155.74L442.055,2155.66L441.856,2155.58L441.657,2155.51L441.457,2155.43L441.257,2155.36L441.056,2155.29L440.855,2155.22L440.653,2155.15L440.45,2155.08L440.247,2155.01L440.044,2154.95L439.84,2154.89L439.635,2154.82L439.43,2154.76L439.224,2154.7L439.018,2154.64L438.811,2154.58L438.603,2154.53L438.396,2154.47L438.187,2154.42L437.978,2154.36L437.769,2154.31L437.559,2154.26L437.349,2154.21L437.138,2154.16L436.927,2154.12L436.715,2154.07L436.503,2154.03L436.29,2153.99L436.077,2153.94L435.863,2153.9L435.649,2153.86L435.434,2153.83L435.219,2153.79L435.003,2153.76L434.787,2153.72L434.571,2153.69L434.354,2153.66L434.137,2153.63L433.919,2153.6L433.701,2153.57L433.482,2153.55L433.263,2153.52L433.044,2153.5L432.824,2153.48L432.603,2153.46L432.383,2153.44L432.162,2153.42L431.94,2153.41L431.718,2153.39L431.496,2153.38L431.273,2153.37L431.05,2153.36L430.826,2153.35L430.603,2153.34L430.378,2153.33L430.154,2153.33L429.929,2153.32L429.703,2153.32L429.478,2153.32L429.252,2153.32Z" style="fill:rgb(91,45,16);"/>
                <path d="M458.204,2165.97L404.937,2219.24L400.752,2215.05L454.019,2161.79L458.204,2165.97Z" style="fill:rgb(91,45,16);"/>
            </g>
        </g>
    </g>
</svg>
