<?xml version="1.0" encoding="UTF-8" standalone="no"?>
<!DOCTYPE svg PUBLIC "-//W3C//DTD SVG 1.1//EN" "http://www.w3.org/Graphics/SVG/1.1/DTD/svg11.dtd">
<svg width="100%" height="100%" viewBox="0 0 120 258" version="1.1" xmlns="http://www.w3.org/2000/svg" xmlns:xlink="http://www.w3.org/1999/xlink" xml:space="preserve" style="fill-rule:evenodd;clip-rule:evenodd;stroke-linejoin:round;stroke-miterlimit:1.41421;">
    <g transform="matrix(1.06874,-2.61765e-16,2.61765e-16,1.06874,-458.582,-210.227)">
        <text x="464.533px" y="259.117px" style="font-family:'Arial-BoldMT', 'Arial', sans-serif;font-weight:700;font-size:77.566px;fill:rgb(57,43,19);">?</text>
    </g>
    <g transform="matrix(1.06874,-2.61765e-16,2.61765e-16,1.06874,-458.582,-210.227)">
        <path d="M459.417,363.105C458.571,363.105 457.573,363.366 456.854,364.364C456.325,365.096 456.139,366.014 456.33,366.946C456.545,367.99 457.193,368.905 458.109,369.455L476.153,380.386L472.658,381.257C470.574,381.777 469.086,382.76 468.233,384.179C466.837,386.501 467.276,389.251 468.274,390.821L468.772,391.603L468.295,392.398C468.018,392.86 467.626,393.289 467.248,393.704C466.981,393.997 466.68,394.329 466.556,394.535C465.069,397.008 465.457,400.09 467.499,402.03L468.37,402.858L467.552,404.223C465.764,407.198 466.729,411.072 469.703,412.86C474.807,415.925 488.534,422.919 496.904,426.718C497.065,426.793 497.226,426.851 497.383,426.897C498.94,427.348 500.438,426.562 500.904,426.232L516.779,403.017C516.219,401.815 515.588,400.542 514.927,399.208C512.596,394.503 509.955,389.173 509.228,384.479L508.111,376.207L508.124,376.047C508.199,375.068 508.286,373.958 508.869,372.986L509.079,372.713C510.514,371.233 512.264,368.598 511.818,367.5C511.817,367.5 511.817,367.501 511.817,367.501C511.809,367.501 511.737,367.455 511.593,367.412C509.881,366.917 504.906,368.537 502.841,371.971C501.624,373.999 499.7,379.966 498.857,383.748L498.404,385.783L462.165,363.929C461.705,363.653 461.226,363.441 460.744,363.301L460.743,363.301C460.439,363.212 459.96,363.105 459.417,363.105M498.354,430.031C497.762,430.031 497.151,429.955 496.542,429.776C496.251,429.691 495.958,429.584 495.663,429.45C487.217,425.617 473.335,418.542 468.158,415.431C463.98,412.919 462.486,407.62 464.624,403.329C462.276,400.419 461.98,396.327 463.983,392.99C464.261,392.528 464.652,392.099 465.03,391.684C465.092,391.616 465.155,391.546 465.219,391.476C463.922,388.717 464.065,385.291 465.661,382.634C466.442,381.335 467.533,380.292 468.921,379.512L456.56,372.024C454.931,371.044 453.774,369.413 453.392,367.549C453.029,365.786 453.395,364.031 454.42,362.609C455.993,360.428 458.735,359.589 461.583,360.42C462.313,360.633 463.028,360.949 463.712,361.359L496.423,381.084C497.378,377.465 498.979,372.577 500.27,370.426C502.871,366.098 509.132,363.565 512.435,364.533C513.473,364.835 514.241,365.49 514.599,366.375C515.881,369.537 512.43,373.534 511.382,374.646C511.226,374.999 511.172,375.558 511.127,376.122L512.196,384.049C512.849,388.256 515.381,393.367 517.614,397.876C518.43,399.52 519.2,401.075 519.864,402.545L520.211,403.314L503.295,428.05L503.291,428.048C502.677,428.876 500.655,430.031 498.354,430.031" style="fill:rgb(57,43,19);fill-rule:nonzero;"/>
    </g>
    <g transform="matrix(1.06874,-2.61765e-16,2.61765e-16,1.06874,-458.582,-210.227)">
        <path d="M452.806,340.747C452.354,339.273 451.953,337.771 451.669,336.211C450.224,328.281 450.185,323.454 453.098,316.835C453.924,316.775 454.752,316.684 455.566,316.535C464.829,314.847 482.026,307.977 486.452,303.242C488.004,301.58 495.51,294.692 496.282,294.336C507.886,296.964 510.235,308.056 514.933,324.682C515.429,326.437 515.424,328.252 515.505,330.016L517.842,330.049C517.846,326.513 519.131,314.968 517.326,310.862L515.476,300.713C511.716,280.077 496.262,278.549 492.696,278.477C488.472,273.966 483.585,272.178 478.166,273.166C471.55,274.372 466.148,279.422 464.384,281.241C461.554,280.515 458.952,280.361 456.634,280.783C448.564,282.254 445.385,290.592 444.674,295.612C442.132,297.207 440.425,299.718 439.582,303.092C437.035,313.316 443.555,328.024 443.835,328.647C444.002,329.022 444.251,329.303 444.532,329.505C444.643,332.28 449.87,343.113 449.87,343.113L452.806,340.747Z" style="fill:rgb(57,43,19);fill-rule:nonzero;"/>
    </g>
    <g transform="matrix(1.06874,-2.61765e-16,2.61765e-16,1.06874,-458.582,-210.227)">
        <path d="M491.772,333.532C491.772,333.532 494.979,333.761 497.964,333.156C501.208,332.498 504.739,330.74 504.739,330.74C504.739,330.74 500.784,327.255 497.348,328.011C493.912,328.767 491.29,331.066 491.772,333.532" style="fill:rgb(57,43,19);fill-rule:nonzero;"/>
    </g>
    <g transform="matrix(1.06874,-2.61765e-16,2.61765e-16,1.06874,-458.582,-210.227)">
        <path d="M475.985,336.706C475.985,336.706 473.233,338.072 470.037,338.59C466.562,339.152 462.583,338.649 462.583,338.649C462.583,338.649 465.758,334.203 469.46,333.667C473.161,333.13 475.54,334.072 475.985,336.706" style="fill:rgb(57,43,19);fill-rule:nonzero;"/>
    </g>
    <g transform="matrix(1.06874,-2.61765e-16,2.61765e-16,1.06874,-458.582,-210.227)">
        <path d="M459.391,334.25C458.933,334.25 458.481,334.042 458.187,333.646C457.692,332.983 457.829,332.044 458.492,331.549C458.755,331.353 465.036,326.717 473.446,325.084C474.256,324.925 475.045,325.457 475.204,326.271C475.362,327.084 474.83,327.871 474.018,328.029C466.303,329.526 460.345,333.909 460.286,333.954C460.016,334.153 459.703,334.25 459.391,334.25" style="fill:rgb(57,43,19);fill-rule:nonzero;"/>
    </g>
    <g transform="matrix(1.06874,-2.61765e-16,2.61765e-16,1.06874,-458.582,-210.227)">
        <path d="M490.29,320.844C489.719,320.844 489.174,320.517 488.923,319.963C488.581,319.208 488.915,318.32 489.67,317.978C489.957,317.848 496.782,314.802 504.568,315.701C505.392,315.796 505.981,316.54 505.887,317.364C505.792,318.187 505.054,318.781 504.225,318.682C497.266,317.879 490.971,320.683 490.908,320.71C490.707,320.801 490.497,320.844 490.29,320.844" style="fill:rgb(57,43,19);fill-rule:nonzero;"/>
    </g>
    <g transform="matrix(1.06874,-2.61765e-16,2.61765e-16,1.06874,-458.582,-210.227)">
        <path d="M486.443,353.156C485.45,353.156 484.402,353.042 483.609,352.828L481.128,352.156C480.329,351.939 479.856,351.115 480.072,350.315C480.29,349.516 481.113,349.046 481.913,349.26L484.393,349.931C485.231,350.16 486.774,350.223 487.63,350.068L487.783,350.04C488.659,349.881 490.072,349.294 490.803,348.785L493.06,347.217C493.742,346.744 494.675,346.911 495.148,347.592C495.621,348.272 495.453,349.207 494.773,349.679L492.516,351.248C491.446,351.992 489.602,352.758 488.318,352.992L488.165,353.02C487.662,353.111 487.063,353.156 486.443,353.156" style="fill:rgb(57,43,19);fill-rule:nonzero;"/>
    </g>
    <g transform="matrix(1.06874,-2.61765e-16,2.61765e-16,1.06874,-458.582,-210.227)">
        <path d="M453.728,361.121C451.657,361.121 448.672,360.378 446.782,356.639C445.828,354.75 441.808,344.479 441.749,340.87C441.731,339.757 442.147,338.815 442.953,338.147C444.861,336.565 448.323,337.177 448.998,337.317C449.809,337.484 450.331,338.277 450.164,339.089C449.998,339.9 449.2,340.42 448.393,340.256C447.284,340.032 445.445,339.978 444.867,340.458C444.815,340.501 444.744,340.56 444.749,340.821C444.793,343.562 448.424,353.237 449.459,355.285C450.877,358.092 453.128,358.322 454.763,358.028C455.58,357.88 456.359,358.42 456.507,359.235C456.656,360.051 456.115,360.831 455.3,360.979C454.896,361.053 454.354,361.121 453.728,361.121" style="fill:rgb(57,43,19);fill-rule:nonzero;"/>
    </g>
    <g transform="matrix(1.06874,-2.61765e-16,2.61765e-16,1.06874,-458.582,-210.227)">
        <path d="M519.224,349.306C518.513,349.306 517.882,348.799 517.75,348.076C517.602,347.26 518.142,346.479 518.956,346.33C520.593,346.032 522.615,345.02 522.953,341.893C523.198,339.61 523.181,329.275 522.257,326.697C522.169,326.451 522.082,326.42 522.019,326.399C521.309,326.157 519.605,326.856 518.647,327.454C517.948,327.895 517.021,327.682 516.579,326.984C516.139,326.284 516.347,325.359 517.046,324.917C517.629,324.549 520.656,322.757 522.995,323.562C523.985,323.903 524.706,324.637 525.081,325.685C526.298,329.078 526.161,340.11 525.935,342.214C525.35,347.64 521.237,348.964 519.495,349.282C519.404,349.298 519.314,349.306 519.224,349.306" style="fill:rgb(57,43,19);fill-rule:nonzero;"/>
    </g>
    <g transform="matrix(1.06874,-2.61765e-16,2.61765e-16,1.06874,-458.582,-210.227)">
        <path d="M456.531,364.374C455.939,364.374 455.379,364.022 455.141,363.441C451.78,355.211 448.082,340.63 447.927,340.013C447.723,339.21 448.21,338.395 449.013,338.191C449.818,337.986 450.632,338.476 450.835,339.278C450.873,339.427 454.637,354.272 457.919,362.307C458.232,363.074 457.864,363.949 457.097,364.263C456.912,364.339 456.719,364.374 456.531,364.374" style="fill:rgb(57,43,19);fill-rule:nonzero;"/>
    </g>
    <g transform="matrix(1.06874,-2.61765e-16,2.61765e-16,1.06874,-458.582,-210.227)">
        <path d="M512.959,370C512.638,370 512.313,369.897 512.04,369.685C511.386,369.177 511.267,368.234 511.775,367.58C515.46,362.832 516.489,360.956 517.29,358.771C518.591,355.214 517.389,338.026 516.263,327.342C516.177,326.518 516.773,325.779 517.598,325.692C518.426,325.62 519.159,326.203 519.247,327.027C519.541,329.819 522.063,354.455 520.106,359.802C519.198,362.284 518.074,364.357 514.145,369.42C513.85,369.801 513.406,370 512.959,370" style="fill:rgb(57,43,19);fill-rule:nonzero;"/>
    </g>
    <g transform="matrix(1.06874,-2.61765e-16,2.61765e-16,1.06874,-458.582,-210.227)">
        <path d="M492.436,362.221C487.169,363.381 480.268,362.549 480.268,362.549C480.268,362.549 484.078,359.523 489.345,358.363C494.613,357.203 499.46,359.666 499.46,359.666C499.46,359.666 497.703,361.061 492.436,362.221" style="fill:rgb(57,43,19);fill-rule:nonzero;"/>
    </g>
</svg>
