<?xml version="1.0" encoding="UTF-8" standalone="no"?>
<!DOCTYPE svg PUBLIC "-//W3C//DTD SVG 1.1//EN" "http://www.w3.org/Graphics/SVG/1.1/DTD/svg11.dtd">
<svg width="100%" height="100%" viewBox="0 0 158 160" version="1.1" xmlns="http://www.w3.org/2000/svg" xmlns:xlink="http://www.w3.org/1999/xlink" xml:space="preserve" style="fill-rule:evenodd;clip-rule:evenodd;stroke-linejoin:round;stroke-miterlimit:1.41421;">
    <g transform="matrix(0.7246,0,0,0.7246,-98.7806,-392.074)">
        <path d="M241.95,546.386L236.825,569.74L248.622,566.694L243.159,589.612L260.565,556.975L248.236,559.924L253.361,546.386L241.95,546.386Z" style="fill:rgb(57,43,19);fill-rule:nonzero;"/>
    </g>
    <g transform="matrix(0.7246,0,0,0.7246,-98.7806,-392.074)">
        <text x="144.302px" y="752.014px" style="font-family:'RobotoSlab-Regular', 'Roboto Slab';font-size:22px;fill:rgb(91,45,16);">High pH = Irritation</text>
    </g>
    <g transform="matrix(0.7246,0,0,0.7246,-98.7806,-392.074)">
        <path d="M243.452,686.983C237.199,686.983 232.032,691.26 229.883,695.833C229.883,695.833 238.133,694.095 243.452,694.095C249.133,694.095 256.71,695.833 256.71,695.833C254.562,691.258 249.707,686.983 243.452,686.983" style="fill:rgb(57,43,19);fill-rule:nonzero;"/>
    </g>
    <g transform="matrix(0.7246,0,0,0.7246,-98.7806,-392.074)">
        <path d="M257.673,656.032C253.935,656.168 250.934,657.089 250.968,659.76C250.968,659.76 254.099,661.594 257.337,661.531C260.856,661.461 264.501,659.269 264.501,659.269C264.501,659.269 261.411,655.896 257.673,656.032" style="fill:rgb(57,43,19);fill-rule:nonzero;"/>
    </g>
    <g transform="matrix(0.7246,0,0,0.7246,-98.7806,-392.074)">
        <path d="M228.993,656.032C225.255,655.896 222.165,659.269 222.165,659.269C222.165,659.269 225.81,661.461 229.33,661.531C232.567,661.594 235.698,659.76 235.698,659.76C235.732,657.089 232.731,656.168 228.993,656.032" style="fill:rgb(57,43,19);fill-rule:nonzero;"/>
    </g>
    <g transform="matrix(0.7246,0,0,0.7246,-98.7806,-392.074)">
        <path d="M236.019,652.643C236.818,652.85 237.64,652.373 237.85,651.572C238.06,650.771 237.581,649.951 236.779,649.741C229.201,647.755 222.01,649.806 221.708,649.896C220.914,650.128 220.457,650.961 220.69,651.756C220.881,652.411 221.479,652.835 222.128,652.835C222.268,652.835 222.41,652.816 222.55,652.775C222.617,652.756 229.232,650.866 236.019,652.643" style="fill:rgb(57,43,19);fill-rule:nonzero;"/>
    </g>
    <g transform="matrix(0.7246,0,0,0.7246,-98.7806,-392.074)">
        <path d="M266.508,650.123C259.013,647.846 251.747,649.615 251.443,649.691C250.639,649.893 250.151,650.707 250.352,651.511C250.553,652.314 251.365,652.8 252.171,652.602C252.237,652.584 258.926,650.952 265.636,652.994C265.78,653.038 265.929,653.059 266.073,653.059C266.715,653.059 267.311,652.643 267.508,651.995C267.747,651.202 267.3,650.364 266.508,650.123" style="fill:rgb(57,43,19);fill-rule:nonzero;"/>
    </g>
    <g transform="matrix(0.7246,0,0,0.7246,-98.7806,-392.074)">
        <path d="M235.58,677.638C235.223,678.385 235.54,679.281 236.288,679.637L238.608,680.744C239.813,681.318 241.726,681.75 243.059,681.75L243.212,681.75C244.515,681.75 246.466,681.327 247.653,680.787L250.154,679.649C250.909,679.305 251.241,678.416 250.898,677.662C250.555,676.909 249.665,676.575 248.912,676.918L246.411,678.057C245.599,678.426 244.103,678.75 243.212,678.75L243.059,678.75C242.175,678.75 240.697,678.416 239.898,678.036L237.579,676.93C236.832,676.572 235.936,676.889 235.58,677.638" style="fill:rgb(57,43,19);fill-rule:nonzero;"/>
    </g>
    <g transform="matrix(0.7246,0,0,0.7246,-98.7806,-392.074)">
        <path d="M280.436,676.234C279.802,678.378 278.521,679.306 277.237,679.67C277.467,676.455 277.508,673.782 277.515,672.959L279.44,661.073C279.442,661.06 279.44,661.047 279.442,661.035C280.459,660.728 281.762,660.524 282.295,660.824C282.354,660.856 282.434,660.902 282.477,661.159C282.924,663.868 281.087,674.034 280.436,676.234M274.536,672.592L274.516,672.823C274.491,676.883 273.961,688.212 271.84,691.823C270.919,693.39 267.511,696.421 263.903,699.63C261.239,701.998 258.219,704.682 255.609,707.299C251.407,711.512 247.873,711.905 243.452,711.839C243.432,711.838 243.413,711.833 243.393,711.833C243.329,711.834 243.268,711.834 243.205,711.835C243.145,711.834 243.087,711.834 243.027,711.833C243.008,711.833 242.991,711.838 242.972,711.838C238.529,711.902 235.014,711.513 230.81,707.299C228.2,704.683 225.181,701.999 222.518,699.63C218.91,696.421 215.5,693.39 214.58,691.823C212.46,688.214 211.929,676.884 211.904,672.823L210.362,663.222L211.632,662.531C211.453,661 211.327,659.45 211.327,657.865C211.327,649.805 212.155,645.048 216.206,639.059C217.03,639.148 217.861,639.207 218.688,639.207C228.104,639.207 246.254,635.531 251.457,631.666C253.282,630.309 261.902,624.879 262.724,624.666C273.67,629.333 273.991,640.666 275.633,657.865C275.806,659.68 275.476,661.465 275.239,663.215L276.029,663.37L274.536,672.592ZM205.734,676.234C205.082,674.034 203.245,663.867 203.692,661.16C203.735,660.902 203.815,660.857 203.873,660.824C204.449,660.497 205.925,660.76 206.986,661.115L208.905,672.959C208.912,673.789 208.953,676.496 209.188,679.745C207.821,679.435 206.41,678.521 205.734,676.234M285.436,660.67C285.255,659.572 284.676,658.72 283.764,658.208C282.239,657.35 280.15,657.708 278.827,658.084C279.922,653.445 281.154,647.589 280.465,644.698L280.465,634.381C280.465,613.406 265.536,609.132 262.04,608.422C258.693,603.226 254.206,600.592 248.697,600.592C241.973,600.592 235.753,604.592 233.691,606.065C231.037,604.843 228.505,604.225 226.149,604.225C217.946,604.225 213.324,611.859 211.724,616.67C208.937,617.783 206.808,619.948 205.373,623.116C201.035,632.717 204.812,648.356 204.976,649.019C205.073,649.418 205.268,649.739 205.508,649.988C205.32,651.325 205.979,654.753 206.707,657.922C205.411,657.629 203.704,657.476 202.405,658.208C201.493,658.72 200.914,659.572 200.733,660.671C200.143,664.234 202.256,675.057 202.857,677.086C204.163,681.501 207.413,682.59 209.462,682.823C209.891,686.847 210.65,691.055 211.994,693.342C213.154,695.318 216.407,698.211 220.524,701.872C223.156,704.213 226.139,706.865 228.687,709.419C233.439,714.182 237.703,714.844 242.278,714.844C242.586,714.844 242.898,714.84 243.21,714.835C243.522,714.84 243.833,714.844 244.142,714.844C248.717,714.844 252.981,714.181 257.732,709.419C260.28,706.865 263.263,704.212 265.896,701.871C270.014,698.21 273.266,695.318 274.426,693.342C275.773,691.049 276.533,686.825 276.961,682.792C279.016,682.497 282.06,681.32 283.313,677.086C283.914,675.058 286.026,664.235 285.436,660.67" style="fill:rgb(57,43,19);fill-rule:nonzero;"/>
    </g>
</svg>
