<svg enable-background="new 0 0 40 40" height="40" viewBox="0 0 40 40" width="40" xmlns="http://www.w3.org/2000/svg"><path clip-rule="evenodd" d="m40 31.867c-.01.162-.042.322-.095.48-.106.318-.298.632-.58.949-.151.168-.306.352-.467.547-.014.02-.028.041-.042.06-.251.338-.617.772-1.007 1.213-.408.482-.861.987-1.379 1.49-.195.201-.362.367-.474.472-1.069 1.01-2.453 1.867-4.117 2.384-.832.259-1.734.434-2.702.504-.242.018-.488.029-.739.033-.25.005-.505.002-.764-.007-.518-.019-1.052-.066-1.604-.144-4.366-.676-10.017-2.991-16.246-9.122-.085-.087-.167-.173-.25-.26-.087-.083-.173-.165-.26-.25-6.132-6.228-8.447-11.879-9.124-16.244-.077-.551-.124-1.086-.143-1.604-.01-.259-.012-.514-.007-.764.004-.25.015-.496.033-.739.07-.968.245-1.869.504-2.701.516-1.664 1.374-3.049 2.384-4.118.105-.113.271-.279.472-.474.502-.518 1.008-.971 1.49-1.379.442-.39.876-.755 1.213-1.007.019-.015.04-.028.06-.043.194-.16.378-.316.546-.466.316-.282.631-.473.949-.579.159-.054.319-.086.48-.095.041-.003.081-.004.122-.004.04 0 .081.001.122.004.082.006.164.017.247.032.663.128 1.366.591 2.16 1.384 1.586 1.581 2.283 3.386 3.095 5.266.812 1.879.749 3.382-.033 4.307-.782.928-2.193 1.953-3.224 4.037-.855 1.719-1.653 4.738-.617 7.922.533 1.652 1.375 3.202 2.58 4.464 1.263 1.205 2.813 2.047 4.465 2.58 3.184 1.037 6.203.371 7.923-.484 2.084-1.031 3.11-2.709 4.038-3.491.926-.782 2.429-.845 4.307-.033 1.881.812 3.687 1.644 5.267 3.23.792.793 1.255 1.497 1.383 2.16.016.083.027.165.032.247.003.041.004.081.004.122.001.041 0 .081-.002.121z" fill="#fff" fill-rule="evenodd"/></svg>