<?xml version="1.0" encoding="utf-8"?>
<!-- Generator: Adobe Illustrator 16.0.0, SVG Export Plug-In . SVG Version: 6.00 Build 0)  -->
<!DOCTYPE svg PUBLIC "-//W3C//DTD SVG 1.1//EN" "http://www.w3.org/Graphics/SVG/1.1/DTD/svg11.dtd">
<svg version="1.1" id="Layer_1" xmlns="http://www.w3.org/2000/svg" xmlns:xlink="http://www.w3.org/1999/xlink" x="0px" y="0px"
	 width="82px" height="82px" viewBox="0 0 82 82" enable-background="new 0 0 82 82" xml:space="preserve">
<g>
	<path fill="#DB7127" d="M41,0C18.393,0,0,18.393,0,41s18.393,41,41,41s41-18.393,41-41S63.607,0,41,0z M41,80
		C19.495,80,2,62.505,2,41S19.495,2,41,2s39,17.495,39,39S62.505,80,41,80z"/>
	<path fill="#DB7127" d="M53.272,25.166c-6.707,0-12.243,5.106-12.927,11.636l-3.949,3.949v-4.585c0-0.553-0.447-1-1-1s-1,0.447-1,1
		v6.585l-7,7.001v-7.586c0-0.553-0.447-1-1-1s-1,0.447-1,1v9.586l-4.137,4.136c-3.739-6.132-4.508-11.648-2.268-16.407
		c6.077-12.911,32.168-17.299,38.247-18.155c-0.045,0.322-0.1,0.7-0.164,1.129c-0.083,0.545,0.292,1.055,0.838,1.138
		c0.546,0.081,1.056-0.292,1.139-0.838c0.237-1.562,0.339-2.479,0.339-2.479c0.033-0.302-0.072-0.602-0.287-0.817
		c-0.214-0.214-0.507-0.317-0.816-0.287c-1.375,0.151-33.771,3.878-41.104,19.455c-2.598,5.518-1.706,11.811,2.625,18.713
		l-1.119,1.119c-0.391,0.391-0.391,1.023,0,1.414c0.195,0.195,0.451,0.293,0.707,0.293s0.512-0.098,0.707-0.293l1.124-1.124
		c4.302,2.696,8.385,4.056,12.183,4.056c5.68,0,10.727-3.004,14.93-8.978c0.317-0.451,0.209-1.075-0.243-1.393
		c-0.452-0.32-1.075-0.21-1.393,0.242c-6.298,8.95-14.38,10.484-24.021,4.616l4.127-4.127h9.586c0.553,0,1-0.447,1-1s-0.447-1-1-1
		h-7.586l6.999-7h5.942c2.172,4.154,6.517,7,11.521,7c7.168,0,13-5.832,13-13S60.44,25.166,53.272,25.166z M37.81,42.166
		l2.549-2.549c0.099,0.879,0.285,1.731,0.551,2.549H37.81z M53.272,49.166c-4.391,0-8.178-2.593-9.94-6.321
		c-0.021-0.061-0.05-0.113-0.081-0.168c-0.623-1.378-0.979-2.902-0.979-4.511c0-6.065,4.935-11,11-11s11,4.935,11,11
		S59.338,49.166,53.272,49.166z"/>
	<path fill="#DB7127" d="M58.728,37.166H47.818c-0.553,0-1,0.447-1,1s0.447,1,1,1h10.909c0.553,0,1-0.447,1-1
		S59.28,37.166,58.728,37.166z"/>
</g>
</svg>
