<?xml version="1.0" encoding="utf-8"?>
<!-- Generator: Adobe Illustrator 16.0.0, SVG Export Plug-In . SVG Version: 6.00 Build 0)  -->
<!DOCTYPE svg PUBLIC "-//W3C//DTD SVG 1.1//EN" "http://www.w3.org/Graphics/SVG/1.1/DTD/svg11.dtd">
<svg version="1.1" id="Layer_1" xmlns="http://www.w3.org/2000/svg" xmlns:xlink="http://www.w3.org/1999/xlink" x="0px" y="0px"
	 width="82px" height="82px" viewBox="0 0 82 82" enable-background="new 0 0 82 82" xml:space="preserve">
<g>
	<g>
		<path fill="#DB7127" d="M41,82C18.393,82,0,63.607,0,41S18.393,0,41,0s41,18.393,41,41S63.607,82,41,82z M41,2
			C19.495,2,2,19.495,2,41s17.495,39,39,39s39-17.495,39-39S62.505,2,41,2z"/>
	</g>
	<g>
		<path fill="#DB7127" d="M53.272,25.167c-6.685,0-12.203,5.074-12.917,11.572c-0.002,0.001-0.003,0.001-0.004,0.003l-3.955,3.965
			v-4.54c0-0.552-0.448-1-1-1s-1,0.448-1,1v6.545l-7,7.018v-7.563c0-0.553-0.448-1-1-1s-1,0.447-1,1v9.568l-4.139,4.149
			c-3.736-6.13-4.504-11.646-2.265-16.403C25.069,26.57,51.16,22.182,57.239,21.326c-0.045,0.322-0.1,0.7-0.164,1.129
			c-0.083,0.546,0.292,1.056,0.838,1.139c0.548,0.082,1.056-0.293,1.139-0.839c0.237-1.562,0.339-2.478,0.339-2.478
			c0.033-0.302-0.072-0.602-0.287-0.817c-0.214-0.214-0.507-0.32-0.816-0.287c-1.375,0.151-33.771,3.878-41.104,19.455
			c-2.598,5.516-1.706,11.809,2.624,18.71l-1.118,1.121c-0.391,0.391-0.391,1.023,0,1.414c0.195,0.195,0.451,0.293,0.707,0.293
			s0.512-0.098,0.707-0.293l1.124-1.124c4.302,2.696,8.385,4.056,12.183,4.056c5.68,0,10.727-3.004,14.929-8.978
			c0.318-0.451,0.21-1.075-0.242-1.393c-0.452-0.32-1.076-0.209-1.393,0.242c-6.298,8.95-14.379,10.484-24.021,4.616l4.126-4.127
			h9.587c0.552,0,1-0.447,1-1s-0.448-1-1-1H28.81l7-7h5.941c2.173,4.154,6.518,7,11.521,7c7.168,0,13-5.832,13-13
			C66.272,30.998,60.44,25.167,53.272,25.167z M37.81,42.166l2.549-2.549c0.099,0.879,0.285,1.731,0.55,2.549H37.81z M53.272,49.166
			c-4.391,0-8.178-2.592-9.94-6.321c-0.021-0.061-0.05-0.113-0.082-0.169c-0.622-1.378-0.978-2.901-0.978-4.509
			c0-6.065,4.935-11,11-11s11,4.935,11,11C64.272,44.231,59.338,49.166,53.272,49.166z"/>
		<path fill="#DB7127" d="M58.728,37.167h-4.455v-4.455c0-0.552-0.447-1-1-1s-1,0.448-1,1v4.455h-4.454c-0.553,0-1,0.448-1,1
			s0.447,1,1,1h4.454v4.455c0,0.553,0.447,1,1,1s1-0.447,1-1v-4.455h4.455c0.553,0,1-0.448,1-1S59.28,37.167,58.728,37.167z"/>
	</g>
</g>
</svg>
