<?xml version="1.0" encoding="utf-8"?>
<!-- Generator: Adobe Illustrator 16.0.0, SVG Export Plug-In . SVG Version: 6.00 Build 0)  -->
<!DOCTYPE svg PUBLIC "-//W3C//DTD SVG 1.1//EN" "http://www.w3.org/Graphics/SVG/1.1/DTD/svg11.dtd">
<svg version="1.1" id="Layer_1" xmlns="http://www.w3.org/2000/svg" xmlns:xlink="http://www.w3.org/1999/xlink" x="0px" y="0px"
	 width="82px" height="82px" viewBox="0 0 82 82" enable-background="new 0 0 82 82" xml:space="preserve">
<path fill="#FFFFFF" d="M-152,32c0,22.091-17.909,40-40,40s-40-17.909-40-40s17.909-40,40-40S-152,9.909-152,32"/>
<g>
	<path fill="#DB7127" d="M41,82C18.393,82,0,63.607,0,41S18.393,0,41,0s41,18.393,41,41S63.607,82,41,82z M41,2
		C19.495,2,2,19.495,2,41s17.495,39,39,39s39-17.495,39-39S62.505,2,41,2z"/>
</g>
<g>
	<path fill="#DB7127" d="M55.02,64.713c-0.004,0.001-0.012,0-0.02,0H27c-0.552,0-1-0.447-1-1c0-1.983,2.684-3.955,5.878-5.253
		c-6.152-3.322-10.493-10.317-10.854-17.747H20c-1.654,0-3-1.346-3-3s1.346-3,3-3h42c1.654,0,3,1.346,3,3s-1.346,3-3,3h-1.024
		c-0.36,7.431-4.702,14.426-10.855,17.747c3.052,1.239,5.638,3.094,5.864,4.986c0.023,0.085,0.035,0.174,0.035,0.267
		C56.02,64.266,55.572,64.713,55.02,64.713z M28.622,62.713h24.756c-0.974-0.975-3.082-2.284-6.253-3.163
		c-0.42-0.117-0.716-0.492-0.731-0.928c-0.017-0.436,0.252-0.831,0.662-0.978C53.977,55.169,59,47.627,59,39.713
		c0-0.552,0.447-1,1-1h2c0.552,0,1-0.449,1-1s-0.448-1-1-1H20c-0.551,0-1,0.449-1,1s0.449,1,1,1h2c0.552,0,1,0.448,1,1
		c0,7.914,5.022,15.455,11.942,17.932c0.41,0.146,0.678,0.542,0.663,0.978c-0.016,0.436-0.312,0.811-0.732,0.928
		C31.703,60.429,29.595,61.738,28.622,62.713z"/>
</g>
<g>
	<path fill="#DB7127" d="M52.999,32.713c-0.201,0-0.405-0.061-0.582-0.188c-0.448-0.322-0.552-0.946-0.229-1.395
		c6.619-9.234,7.857-11.091,7.181-11.642c-0.809-0.665-2.979,1.375-13.634,12.903c-0.376,0.406-1.009,0.43-1.413,0.056
		c-0.405-0.375-0.431-1.008-0.056-1.413c12.754-13.798,14.005-15.02,16.365-13.097c2.194,1.786,1.341,2.976-6.818,14.358
		C53.617,32.568,53.311,32.713,52.999,32.713z"/>
</g>
<g>
	<path fill="#DB7127" d="M36.003,53.719c-0.128,0-0.258-0.024-0.384-0.077c-3.385-1.409-6.137-4.16-7.55-7.548
		c-0.213-0.51,0.028-1.095,0.538-1.308s1.095,0.028,1.308,0.538c1.212,2.904,3.571,5.263,6.473,6.472
		c0.51,0.212,0.751,0.798,0.539,1.308C36.767,53.487,36.395,53.719,36.003,53.719z"/>
</g>
</svg>
