<?xml version="1.0" encoding="UTF-8" standalone="no"?>
<!DOCTYPE svg PUBLIC "-//W3C//DTD SVG 1.1//EN" "http://www.w3.org/Graphics/SVG/1.1/DTD/svg11.dtd">
<svg width="100%" height="100%" viewBox="0 0 109 230" version="1.1" xmlns="http://www.w3.org/2000/svg" xmlns:xlink="http://www.w3.org/1999/xlink" xml:space="preserve" style="fill-rule:evenodd;clip-rule:evenodd;stroke-linecap:round;stroke-miterlimit:10;">
    <g transform="matrix(0.892637,0,0,0.892637,-385.578,-2208.65)">
        <path d="M472.422,2718.68C476.025,2718.68 478.972,2715.73 478.972,2712.12L478.972,2711.8C481.92,2711.14 483.885,2708.52 483.885,2705.57C483.885,2704.92 483.558,2703.94 483.558,2703.28C485.523,2702.3 487.16,2700.01 487.16,2697.39C487.16,2695.42 486.178,2694.57 484.868,2693.26L483.743,2693.26C486.363,2693.26 488.656,2690.96 488.656,2688.34C488.656,2685.72 486.363,2683.43 483.743,2683.43L468.217,2683.43C469.199,2680.48 470.509,2675.9 470.509,2673.61C470.509,2669.02 465.214,2664.51 463.959,2665.49C462.703,2666.47 462.393,2671.51 462.393,2671.51C462.393,2672.17 462.065,2672.82 461.738,2673.48L458.263,2679.05C454.988,2682.98 439.377,2693.25 439.377,2693.25L446.411,2713.07C446.411,2713.07 447.737,2715.75 451.043,2716.04C454.35,2716.33 465.872,2718.68 472.422,2718.68Z" style="fill:none;stroke-width:2.8px;stroke:rgb(57,43,19);"/>
    </g>
    <g transform="matrix(0.892637,0,0,0.892637,-385.578,-2208.65)">
        <path d="M493.558,2655.98C495.706,2660.56 500.561,2664.83 506.816,2664.83C513.069,2664.83 518.236,2660.56 520.385,2655.98C520.385,2655.98 512.135,2657.72 506.816,2657.72C501.135,2657.72 493.558,2655.98 493.558,2655.98" style="fill:rgb(57,43,19);fill-rule:nonzero;"/>
    </g>
    <g transform="matrix(0.892637,0,0,0.892637,-385.578,-2208.65)">
        <path d="M521.348,2625.03C517.61,2625.17 514.609,2626.09 514.643,2628.76C514.643,2628.76 517.774,2630.59 521.011,2630.53C524.531,2630.46 528.176,2628.27 528.176,2628.27C528.176,2628.27 525.086,2624.9 521.348,2625.03" style="fill:rgb(57,43,19);fill-rule:nonzero;"/>
    </g>
    <g transform="matrix(0.892637,0,0,0.892637,-385.578,-2208.65)">
        <path d="M492.668,2625.03C488.93,2624.9 485.84,2628.27 485.84,2628.27C485.84,2628.27 489.485,2630.46 493.005,2630.53C496.242,2630.59 499.373,2628.76 499.373,2628.76C499.407,2626.09 496.406,2625.17 492.668,2625.03" style="fill:rgb(57,43,19);fill-rule:nonzero;"/>
    </g>
    <g transform="matrix(0.892637,0,0,0.892637,-385.578,-2208.65)">
        <path d="M499.694,2621.64C500.491,2621.85 501.315,2621.37 501.525,2620.57C501.735,2619.77 501.256,2618.95 500.454,2618.74C492.876,2616.76 485.684,2618.81 485.383,2618.9C484.589,2619.13 484.132,2619.96 484.365,2620.76C484.556,2621.41 485.154,2621.84 485.803,2621.84C485.943,2621.84 486.085,2621.82 486.225,2621.78C486.292,2621.76 492.907,2619.87 499.694,2621.64" style="fill:rgb(57,43,19);fill-rule:nonzero;"/>
    </g>
    <g transform="matrix(0.892637,0,0,0.892637,-385.578,-2208.65)">
        <path d="M530.183,2619.12C522.687,2616.85 515.423,2618.61 515.118,2618.69C514.314,2618.89 513.826,2619.71 514.027,2620.51C514.228,2621.31 515.041,2621.8 515.846,2621.6C515.912,2621.58 522.601,2619.95 529.31,2621.99C529.455,2622.04 529.603,2622.06 529.747,2622.06C530.39,2622.06 530.985,2621.64 531.182,2620.99C531.422,2620.2 530.975,2619.36 530.183,2619.12" style="fill:rgb(57,43,19);fill-rule:nonzero;"/>
    </g>
    <g transform="matrix(0.892637,0,0,0.892637,-385.578,-2208.65)">
        <path d="M499.255,2646.64C498.898,2647.39 499.215,2648.28 499.963,2648.64L502.283,2649.74C503.488,2650.32 505.401,2650.75 506.734,2650.75L506.887,2650.75C508.19,2650.75 510.141,2650.33 511.328,2649.79L513.83,2648.65C514.584,2648.31 514.917,2647.42 514.574,2646.66C514.232,2645.91 513.341,2645.58 512.588,2645.92L510.086,2647.06C509.274,2647.43 507.778,2647.75 506.887,2647.75L506.734,2647.75C505.85,2647.75 504.372,2647.42 503.573,2647.04L501.254,2645.93C500.509,2645.57 499.611,2645.89 499.255,2646.64" style="fill:rgb(57,43,19);fill-rule:nonzero;"/>
    </g>
    <g transform="matrix(0.892637,0,0,0.892637,-385.578,-2208.65)">
        <path d="M544.111,2645.23C543.477,2647.38 542.197,2648.31 540.912,2648.67C541.142,2645.45 541.183,2642.78 541.19,2641.96L543.116,2630.07C543.118,2630.06 543.116,2630.05 543.118,2630.03C544.148,2629.72 545.44,2629.52 545.97,2629.82C546.029,2629.86 546.109,2629.9 546.152,2630.16C546.6,2632.87 544.762,2643.03 544.111,2645.23M535.515,2660.82C534.594,2662.39 531.185,2665.42 527.577,2668.63C524.914,2671 521.895,2673.68 519.285,2676.3C515.085,2680.51 511.568,2680.9 507.135,2680.84C507.112,2680.84 507.091,2680.83 507.068,2680.83C507.007,2680.83 506.949,2680.83 506.888,2680.84C506.826,2680.83 506.765,2680.83 506.702,2680.83C506.678,2680.83 506.655,2680.84 506.631,2680.84C502.199,2680.91 498.684,2680.51 494.485,2676.3C491.875,2673.68 488.856,2671 486.193,2668.63C482.585,2665.42 479.175,2662.39 478.255,2660.82C476.135,2657.21 475.604,2645.88 475.579,2641.82L474.038,2632.22L475.308,2631.53C475.128,2630 475.002,2628.45 475.002,2626.87C475.002,2618.8 475.83,2614.05 479.882,2608.06C480.705,2608.15 481.536,2608.21 482.364,2608.21C491.779,2608.21 509.929,2604.53 515.132,2600.67C516.957,2599.31 525.577,2593.88 526.399,2593.67C537.345,2598.33 537.667,2609.67 539.309,2626.87C539.482,2628.68 539.151,2630.47 538.914,2632.22L539.705,2632.37L538.211,2641.59L538.191,2641.82C538.166,2645.88 537.636,2657.21 535.515,2660.82M469.409,2645.23C468.758,2643.03 466.921,2632.87 467.368,2630.16C467.411,2629.9 467.491,2629.86 467.55,2629.82C468.125,2629.5 469.601,2629.76 470.662,2630.12L472.58,2641.96C472.587,2642.79 472.628,2645.49 472.863,2648.74C471.496,2648.43 470.085,2647.52 469.409,2645.23M549.111,2629.67C548.93,2628.57 548.351,2627.72 547.439,2627.21C545.912,2626.35 543.825,2626.71 542.503,2627.08C543.598,2622.45 544.829,2616.59 544.14,2613.7L544.14,2603.38C544.14,2582.41 529.211,2578.13 525.715,2577.42C522.368,2572.23 517.881,2569.59 512.372,2569.59C505.648,2569.59 499.428,2573.59 497.366,2575.07C494.712,2573.84 492.18,2573.22 489.824,2573.22C481.621,2573.22 476.999,2580.86 475.399,2585.67C472.612,2586.78 470.483,2588.95 469.049,2592.12C464.71,2601.72 468.487,2617.36 468.651,2618.02C468.748,2618.42 468.943,2618.74 469.184,2618.99C468.995,2620.33 469.654,2623.75 470.382,2626.92C469.087,2626.63 467.38,2626.48 466.081,2627.21C465.169,2627.72 464.59,2628.57 464.409,2629.67C463.819,2633.24 465.931,2644.06 466.532,2646.09C467.839,2650.5 471.088,2651.59 473.137,2651.82C473.566,2655.85 474.325,2660.05 475.669,2662.34C476.829,2664.32 480.082,2667.21 484.199,2670.87C486.831,2673.21 489.814,2675.87 492.362,2678.42C497.114,2683.18 501.378,2683.84 505.953,2683.84C506.261,2683.84 506.573,2683.84 506.885,2683.84C507.197,2683.84 507.509,2683.84 507.817,2683.84C512.392,2683.84 516.656,2683.18 521.408,2678.42C523.956,2675.87 526.939,2673.21 529.571,2670.87C533.688,2667.21 536.941,2664.32 538.101,2662.34C539.448,2660.05 540.208,2655.83 540.636,2651.79C542.69,2651.5 545.735,2650.32 546.988,2646.09C547.589,2644.06 549.701,2633.23 549.111,2629.67" style="fill:rgb(57,43,19);fill-rule:nonzero;"/>
    </g>
    <g transform="matrix(0.892637,0,0,0.892637,-385.578,-2208.65)">
        <path d="M513.564,2539.76C510.401,2540.09 520.423,2533.19 512.063,2515.35C510.013,2511.52 512.863,2512.66 514.074,2514C517.756,2518.05 520.946,2521.55 521.569,2527.49C522.301,2534.47 519.137,2539.17 513.564,2539.76M517.11,2508.87C512.54,2502.79 508.223,2495.57 508.223,2488.34C508.223,2488.11 508.058,2487.93 507.853,2487.93C507.649,2487.93 507.484,2488.11 507.484,2488.34C507.484,2495.57 503.168,2502.79 498.599,2508.87C493.732,2515.35 488.701,2522.05 488.701,2531.02C488.701,2542.83 496.935,2551.72 507.853,2551.72C518.775,2551.72 527.011,2542.83 527.011,2531.02C527.011,2522.05 521.978,2515.35 517.11,2508.87" style="fill:rgb(57,43,19);fill-rule:nonzero;"/>
    </g>
</svg>
