<?xml version="1.0" encoding="UTF-8" standalone="no"?>
<!DOCTYPE svg PUBLIC "-//W3C//DTD SVG 1.1//EN" "http://www.w3.org/Graphics/SVG/1.1/DTD/svg11.dtd">
<svg width="100%" height="100%" viewBox="0 0 250 170" version="1.1" xmlns="http://www.w3.org/2000/svg" xmlns:xlink="http://www.w3.org/1999/xlink" xml:space="preserve" style="fill-rule:evenodd;clip-rule:evenodd;stroke-linejoin:round;stroke-miterlimit:1.41421;">
    <g transform="matrix(1.71636,-4.20387e-16,4.20387e-16,1.71636,-847.029,-322.046)">
        <path d="M584.938,209.699L584.886,209.699C584.68,207.832 581.754,206.183 577.32,205.141L577.32,191.18L577.123,191.18C576.547,189.424 571.861,188.054 566.164,188.054C560.467,188.054 555.78,189.424 555.205,191.18L555.008,191.18L555.008,205.141C550.574,206.183 547.649,207.832 547.442,209.699L547.39,209.699L547.39,280.441L547.456,280.441C548.001,283.565 556.168,286.044 566.164,286.044C576.16,286.044 584.326,283.565 584.872,280.441L584.938,280.441L584.938,209.699Z" style="fill:rgb(167,169,172);fill-rule:nonzero;"/>
    </g>
    <g transform="matrix(1.71636,-4.20387e-16,4.20387e-16,1.71636,-847.029,-322.046)">
        <path d="M522.907,221.89L522.907,211.985L522.738,211.985C522.3,210.649 519.102,209.576 514.983,209.342L514.983,204.667C515.044,204.667 515.104,204.67 515.166,204.67C517.383,204.67 525.475,203.408 527.792,202.691L530.43,202.691L530.43,200.593L528.227,199.899C525.653,198.744 519.736,196.335 515.166,196.335C509.156,196.335 504.284,198.201 504.284,200.503C504.284,202.327 507.351,203.874 511.614,204.439L511.614,209.342C507.495,209.576 504.297,210.649 503.859,211.985L503.69,211.985L503.69,222.037C498.138,223.859 494.097,229.095 494.097,235.236L494.097,271.9C494.097,279.541 500.348,285.31 507.988,285.31L519.102,285.31C526.742,285.31 532.993,279.541 532.993,271.9L532.993,235.236C532.993,228.915 528.711,223.557 522.907,221.89" style="fill:rgb(167,169,172);fill-rule:nonzero;"/>
    </g>
    <g transform="matrix(1.71636,-4.20387e-16,4.20387e-16,1.71636,-847.029,-322.046)">
        <path d="M620.653,284.828C620.653,284.828 611.281,284.828 609.273,282.82C607.264,280.811 598.562,269.431 599.231,257.381C599.9,245.331 605.256,215.876 605.256,215.876L608.603,208.512C608.603,208.512 611.95,205.834 618.645,205.834L619.314,205.834C626.009,205.834 629.356,208.512 629.356,208.512L632.703,215.876C632.703,215.876 638.058,245.331 638.728,257.381C639.397,269.431 630.695,280.811 628.686,282.82C626.678,284.828 617.306,284.828 617.306,284.828" style="fill:rgb(167,169,172);fill-rule:nonzero;"/>
    </g>
</svg>
