<?xml version="1.0" encoding="UTF-8" standalone="no"?>
<!DOCTYPE svg PUBLIC "-//W3C//DTD SVG 1.1//EN" "http://www.w3.org/Graphics/SVG/1.1/DTD/svg11.dtd">
<svg width="100%" height="100%" viewBox="0 0 15 15" version="1.1" xmlns="http://www.w3.org/2000/svg" xmlns:xlink="http://www.w3.org/1999/xlink" xml:space="preserve" style="fill-rule:evenodd;clip-rule:evenodd;stroke-linejoin:round;stroke-miterlimit:1.41421;">
    <g transform="matrix(0.529145,0,0,0.529145,-122.833,-61.1414)">
        <path d="M236.181,116.021C236.181,116.021 232.792,117.6 232.774,125.494C232.761,131.298 235.956,134.583 235.956,134.583L242.644,140.494C242.644,140.494 245.672,143.9 253.556,143.13C257.97,142.699 259.976,138.476 259.976,138.476C259.976,138.476 260.172,137.649 257.401,135.479C254.63,133.308 253.75,133.806 253.75,133.806C253.75,133.806 250.589,138.834 247.358,137.842C244.126,136.85 238.078,129.665 238.078,129.665C238.078,129.665 236.961,126.676 241.187,123.024C244.212,120.409 237.25,115.325 236.181,116.021Z" style="fill:rgb(242,242,242);"/>
    </g>
</svg>
