<?xml version="1.0" encoding="UTF-8" standalone="no"?>
<!DOCTYPE svg PUBLIC "-//W3C//DTD SVG 1.1//EN" "http://www.w3.org/Graphics/SVG/1.1/DTD/svg11.dtd">
<svg width="100%" height="100%" viewBox="0 0 135 173" version="1.1" xmlns="http://www.w3.org/2000/svg" xmlns:xlink="http://www.w3.org/1999/xlink" xml:space="preserve" style="fill-rule:evenodd;clip-rule:evenodd;stroke-linejoin:round;stroke-miterlimit:1.41421;">
    <g transform="matrix(0.956504,0,0,0.956504,-416.471,-1237.6)">
        <path d="M570.759,1327.62C568.737,1327.36 561.55,1314.3 556.243,1307.84C550.934,1301.39 540.004,1300.19 540.004,1300.19C537.224,1298.4 524.305,1296.61 524.305,1296.61C515.931,1292.92 484.935,1295.48 474.837,1302.29C464.737,1309.11 440.674,1330.1 443.136,1344.83C445.597,1359.55 438.277,1364.37 438.277,1364.37L447.334,1364.36C447.334,1364.36 448.384,1381.01 446.976,1382.63C445.57,1384.21 451.849,1381.66 451.849,1381.66L454.993,1391.68C454.993,1391.68 457.043,1362.59 462.452,1360.03L465.92,1375.89L482.767,1361.02L481.29,1372.45C481.29,1372.45 494.608,1368.16 510.956,1363.02L506.656,1370.66C511.528,1370.89 515.966,1370.25 528.52,1365.95C543.35,1360.88 551.356,1350.15 551.356,1350.15C551.356,1350.15 555.293,1359.99 554.938,1366.56C554.574,1373.14 557.43,1384.89 557.43,1384.89C557.43,1384.89 560.843,1380.99 562.394,1378.58C563.981,1376.18 570.765,1345.87 569.966,1338.01C569.206,1330.14 565.453,1327.62 565.453,1327.62C565.453,1327.62 572.782,1327.89 570.759,1327.62" style="fill:rgb(57,43,19);fill-rule:nonzero;"/>
    </g>
    <g transform="matrix(0.956504,0,0,0.956504,-416.471,-1237.6)">
        <text x="438.956px" y="1439.02px" style="font-family:'RobotoSlab-Regular', 'Roboto Slab';font-size:22px;fill:rgb(91,45,16);">Straight Hair</text>
    </g>
    <g transform="matrix(0.956504,0,0,0.956504,-416.471,-1237.6)">
        <text x="440.112px" y="1470.02px" style="font-family:'RobotoSlab-Regular', 'Roboto Slab';font-size:18px;fill:rgb(85,85,85);">W<tspan x="456.609px " y="1470.02px ">a</tspan>sh 3x / week</text>
    </g>
</svg>
