<?xml version="1.0" encoding="utf-8"?>
<!-- Generator: Adobe Illustrator 16.0.0, SVG Export Plug-In . SVG Version: 6.00 Build 0)  -->
<!DOCTYPE svg PUBLIC "-//W3C//DTD SVG 1.1//EN" "http://www.w3.org/Graphics/SVG/1.1/DTD/svg11.dtd">
<svg version="1.1" xmlns="http://www.w3.org/2000/svg" xmlns:xlink="http://www.w3.org/1999/xlink" x="0px" y="0px"
	 width="82px" height="82px" viewBox="0 0 82 82" enable-background="new 0 0 82 82" xml:space="preserve">
<g>
	<g>
		<path d="M41,82C18.393,82,0,63.607,0,41S18.393,0,41,0s41,18.393,41,41S63.607,82,41,82z M41,2
			C19.495,2,2,19.495,2,41s17.495,39,39,39s39-17.495,39-39S62.505,2,41,2z"/>
	</g>
	<g>
		<path d="M55,59.317H42c-3.626,0-5.509-0.391-8.114-0.931c-1.586-0.329-3.384-0.702-6.027-1.079
			C27.366,57.237,27,56.815,27,56.317V39.316c0-0.552,0.448-1,1-1c4.172,0,12-8.476,12-16c0-2.038,1.465-3.634,3.335-3.634
			c0.769,0,3.376,0.346,4.628,4.801c0.806,2.87-0.647,7.518-1.497,9.833H61c2.206,0,4,1.794,4,4c0,1.614-1.049,3.897-2.727,4.705
			C62.731,42.671,63,43.464,63,44.317c0,1.742-1.12,3.228-2.677,3.775C60.75,48.729,61,49.494,61,50.317
			c0,1.742-1.12,3.228-2.677,3.775C58.75,54.729,59,55.494,59,56.317C59,58.308,57.654,59.317,55,59.317z M29,55.454
			c2.245,0.343,3.854,0.676,5.292,0.975c2.489,0.516,4.287,0.889,7.708,0.889h13c2,0,2-0.531,2-1c0-1.103-0.897-2-2-2
			c-0.553,0-1-0.447-1-1s0.447-1,1-1h2c1.103,0,2-0.897,2-2s-0.897-2-2-2c-0.553,0-1-0.447-1-1s0.447-1,1-1h2c1.103,0,2-0.897,2-2
			s-0.897-2-2-2c-0.553,0-1-0.447-1-1c0-0.552,0.447-1,1-1h2c0.966,0,2-1.761,2-3c0-1.103-0.897-2-2-2H45
			c-0.336,0-0.649-0.169-0.835-0.449c-0.185-0.281-0.217-0.636-0.084-0.944c0.795-1.858,2.697-7.26,1.956-9.898
			c-0.692-2.464-1.85-3.342-2.702-3.342c-0.773,0-1.335,0.687-1.335,1.634c0,6.744-6.763,16.898-13,17.917V55.454z"/>
	</g>
	<g>
		<path d="M28,61.317H18c-0.552,0-1-0.447-1-1v-24c0-0.552,0.448-1,1-1h10c0.552,0,1,0.448,1,1v24
			C29,60.87,28.552,61.317,28,61.317z M19,59.317h8v-22h-8V59.317z"/>
	</g>
	<g>
		<path d="M24,55.317c-0.553,0-1,0.447-1,1c0,0.552,0.447,1,1,1c0.551,0,1-0.448,1-1C25,55.765,24.551,55.317,24,55.317
			"/>
	</g>
	<g>
		<path d="M24,57.817c-0.827,0-1.5-0.673-1.5-1.5s0.673-1.5,1.5-1.5s1.5,0.673,1.5,1.5S24.827,57.817,24,57.817z
			 M24,55.817c-0.276,0-0.5,0.225-0.5,0.5s0.224,0.5,0.5,0.5s0.5-0.225,0.5-0.5S24.276,55.817,24,55.817z"/>
	</g>
</g>
</svg>
