<svg xmlns="http://www.w3.org/2000/svg">
  <defs>
    <style>
      .cls-1 {
        fill: #dc7b1f;
      }
    </style>
  </defs>
  <g id="Layer_2" data-name="Layer 2">
    <g id="Õ__1" data-name="Õº≤„_1">
      <path class="cls-1" d="M60.82,81.36l-.64-.08c-.45-.06-1-.15-1.71-.29V97.44l-3.62-1.66V80.12c-.42-.11-.83-.24-1.25-.37l-.13,0c-.64-.23-1.23-.45-1.76-.66-.41.5-.82,1-1.25,1.47h0V93.76l-7.83-3.59a2.1,2.1,0,0,0-1.83,0L33,93.76V80.54l-.07-.08c-.42-.47-.82-.95-1.19-1.41-.54.21-1.14.43-1.77.65l-.12,0c-.42.13-.84.26-1.25.37V95.78l-3.62,1.66V81c-.76.16-1.42.25-1.74.29l-.23,0a8.29,8.29,0,0,1-1,.08q-.32,0-.63,0a7.57,7.57,0,0,1-.78-.17v19.68a2.2,2.2,0,0,0,3.12,2l18-8.28,18,8.28a2.24,2.24,0,0,0,.92.2,2.22,2.22,0,0,0,2.2-2.2V81.2A5.44,5.44,0,0,1,60.82,81.36Z">
      </path>
      <path class="cls-1" d="M82.92,40.33s-.55-.69-1.37-1.63c-.41-.47-.9-1-1.39-1.53a22.34,22.34,0,0,0-1.83-1.75c-.61-.53-1.21-1-1.78-1.49l-.85-.67c-.23-.17-.46-.32-.68-.47.33-.74,1-2.2,1.58-4a42.45,42.45,0,0,0,1.12-4.36c.17-.74.25-1.33.29-1.64.06-.54.08-.84.08-.84a2.18,2.18,0,0,0-1.38-2s-.8-.32-1.91-.72A31.24,31.24,0,0,0,70.36,18a30.12,30.12,0,0,0-4.29-.62,29.07,29.07,0,0,0-.61-4.24,30.09,30.09,0,0,0-1.22-4.42c-.42-1.19-.75-2-.75-2a2.21,2.21,0,0,0-2.28-1.36l-.59.07c-.32,0-.91.12-1.62.28a44.54,44.54,0,0,0-4.43,1.14c-1.68.59-3.1,1.19-4,1.57l-.06-.09-.45-.65-.63-.8C49,6.29,48.53,5.69,48,5.11a27.29,27.29,0,0,0-2.92-2.9l-.38-.35C43.77,1,43.09.49,43.09.49a2.53,2.53,0,0,0-.57-.34,2.22,2.22,0,0,0-2.19.33S39.64,1,38.7,1.86c-.48.42-1,.9-1.53,1.39a19.81,19.81,0,0,0-1.75,1.82c-.53.61-1,1.22-1.5,1.8l-.67.85c-.15.2-.29.41-.42.61l0,.06c-.73-.33-2.15-.94-4-1.59a43.6,43.6,0,0,0-4.35-1.11c-.68-.16-1.24-.23-1.66-.29S22,5.32,22,5.32a2.2,2.2,0,0,0-2,1.37s-.33.8-.73,1.92A32.85,32.85,0,0,0,18,13.05a27.91,27.91,0,0,0-.62,4.29A27.59,27.59,0,0,0,13.1,18a29.93,29.93,0,0,0-4.43,1.22c-1.17.42-2,.75-2,.75a2.18,2.18,0,0,0-1.36,2.31l.07.54a16.14,16.14,0,0,0,.28,1.64,45.59,45.59,0,0,0,1.14,4.44C7.42,30.57,8,32,8.39,32.79l-.09.06a7.59,7.59,0,0,0-.66.46l-.79.62c-.56.45-1.17,1-1.74,1.45a29,29,0,0,0-2.94,3l-.31.35C1,39.64.48,40.33.48,40.33a2.2,2.2,0,0,0,0,2.74s.55.69,1.38,1.64c.41.48.9,1,1.38,1.52A19.92,19.92,0,0,0,5.07,48c.61.53,1.22,1,1.81,1.51l.83.66.68.46c-.33.73-1,2.18-1.59,4A44.57,44.57,0,0,0,5.68,59c-.15.68-.23,1.24-.28,1.64l-.07.54a2.21,2.21,0,0,0,1.35,2.33s.81.32,1.93.72A28.6,28.6,0,0,0,13,65.44a27.9,27.9,0,0,0,4.3.63A27.77,27.77,0,0,0,18,70.31a30.66,30.66,0,0,0,1.22,4.43c.87,2.44,1.13,3.17,2.53,3.34H22s.24,0,.61-.06l.22,0c.48-.06,1-.14,1.63-.28,1.32-.29,2.88-.64,4.43-1.14s3.1-1.19,3.94-1.57h0c.14.21.29.44.51.74l.62.79c.45.57,1,1.17,1.46,1.74A28.43,28.43,0,0,0,38.3,81.2l.39.35c.88.77,1.53,1.3,1.62,1.37a2.27,2.27,0,0,0,1.39.49,2.23,2.23,0,0,0,1.38-.48s.68-.55,1.63-1.39c.47-.41,1-.89,1.52-1.38A21,21,0,0,0,48,78.34c.54-.61,1-1.22,1.52-1.81l.65-.83L50.6,75l0,0c.73.33,2.16,1,4,1.59,1.51.48,3.07.84,4.36,1.11a16.52,16.52,0,0,0,1.64.29l.58.07a2.23,2.23,0,0,0,2-.78c.23-.27.31-.38,1.07-2.5a29.43,29.43,0,0,0,1.23-4.44,28,28,0,0,0,.63-4.29,28.3,28.3,0,0,0,4.24-.61,31,31,0,0,0,4.43-1.22c1.17-.42,2-.75,2-.75a2.19,2.19,0,0,0,1.36-2.32L78,60.62c0-.35-.12-.93-.27-1.62-.29-1.33-.65-2.89-1.14-4.44s-1.2-3.1-1.58-3.94h0c.22-.14.45-.3.74-.51l.79-.62c.57-.46,1.17-1,1.74-1.46a27.84,27.84,0,0,0,2.93-3l.33-.36c.82-.95,1.37-1.64,1.37-1.64A2.18,2.18,0,0,0,82.92,40.33ZM73.1,46.6c-.17.13-.35.24-.51.35l-.15.1c-.54.36-1,.62-1.21.78a2.2,2.2,0,0,0-1,1.29l-.13.44a2.21,2.21,0,0,0,.21,1.63c.14.25.38.7.63,1.18.29.66.88,2,1.43,3.59.42,1.31.74,2.68,1,4,0,0,0,0,0,.08l-.25.09a28.27,28.27,0,0,1-3.87,1.05,24.28,24.28,0,0,1-3.75.52c-.64.06-1.14.08-1.42.1a2.15,2.15,0,0,0-1.47.65l-.27.26a2.27,2.27,0,0,0-.64,1.46c0,.28,0,.79-.09,1.43a25.39,25.39,0,0,1-.53,3.79,28.8,28.8,0,0,1-1.07,3.88c0,.07-.05.13-.07.19l-.1,0c-1.22-.26-2.63-.58-3.91-1s-2.55-1-3.55-1.41c-.57-.29-1-.53-1.27-.68a2.21,2.21,0,0,0-1.65-.2l-.39.11a2.19,2.19,0,0,0-1.34,1c-.15.26-.41.67-.75,1.19l-.12.17c-.11.16-.22.34-.3.44l-.59.76q-.63.78-1.38,1.65a16,16,0,0,1-1.42,1.48c-.51.48-1,.93-1.44,1.31l-.11.1-.09-.08-.38-.34a24.43,24.43,0,0,1-2.51-2.49c-.49-.56-.95-1.11-1.35-1.6l-.55-.71-.37-.53-.09-.15c-.35-.53-.62-1-.77-1.2a2.2,2.2,0,0,0-1.35-1l-.39-.11a2.1,2.1,0,0,0-.56-.08,2.25,2.25,0,0,0-1.07.28L31,71c-.66.3-2,.88-3.6,1.44-1.32.42-2.74.75-4,1l-.08,0-.09-.25a28.27,28.27,0,0,1-1.05-3.87,25,25,0,0,1-.53-3.73c-.05-.65-.08-1.15-.09-1.43A2.22,2.22,0,0,0,21,62.68l-.25-.24a2.14,2.14,0,0,0-1.46-.65l-1.43-.1a25.05,25.05,0,0,1-3.8-.53,27,27,0,0,1-3.87-1.07L10,60l0-.09c.26-1.22.58-2.63,1-3.91.57-1.61,1.13-2.93,1.43-3.6s.52-1,.66-1.23a2.2,2.2,0,0,0,.2-1.65l-.12-.41a2.21,2.21,0,0,0-1-1.31L11,47.05l-.15-.1-.45-.3-.76-.6c-.52-.42-1.08-.88-1.64-1.37a18.16,18.16,0,0,1-1.5-1.43c-.47-.51-.92-1-1.3-1.44l-.1-.11.08-.09.31-.34A24.06,24.06,0,0,1,8,38.72c.55-.48,1.11-.95,1.6-1.35l.71-.56.45-.3.23-.15c.52-.35.93-.61,1.21-.78a2.18,2.18,0,0,0,1-1.3l.12-.41a2.21,2.21,0,0,0-.2-1.65c-.14-.25-.38-.7-.63-1.18-.5-1.1-1-2.43-1.44-3.59-.42-1.32-.75-2.75-1-4,0,0,0-.05,0-.08l.25-.09a27.64,27.64,0,0,1,3.86-1.05,24.83,24.83,0,0,1,3.74-.52l1.43-.1A2.18,2.18,0,0,0,20.71,21L21,20.7a2.19,2.19,0,0,0,.63-1.45c0-.28,0-.79.09-1.43A26.37,26.37,0,0,1,22.25,14a26.08,26.08,0,0,1,1.07-3.88l.06-.19.11,0c1.21.26,2.62.58,3.9,1s2.56,1,3.56,1.41c.53.27.94.5,1.29.69a2.15,2.15,0,0,0,1.61.19l.41-.11a2.23,2.23,0,0,0,1.33-1L36.34,11l.15-.22.27-.4.6-.77c.41-.51.88-1.07,1.37-1.63a19.11,19.11,0,0,1,1.43-1.49c.5-.48,1-.92,1.43-1.31l.12-.09.08.07.38.34A24.29,24.29,0,0,1,44.68,8c.49.56,1,1.12,1.36,1.63l.55.69.31.45.15.22c.34.53.61.95.76,1.2a2.24,2.24,0,0,0,1.38,1l.36.1a2.2,2.2,0,0,0,1.63-.2l1.19-.63c.67-.3,2-.89,3.6-1.44,1.29-.41,2.66-.73,4-1L60,10a2.6,2.6,0,0,0,.1.25,28.27,28.27,0,0,1,1.05,3.87,24.67,24.67,0,0,1,.52,3.74c.05.65.08,1.15.09,1.43a2.23,2.23,0,0,0,.62,1.43l.3.3a2.3,2.3,0,0,0,1.46.64l1.42.1a24.72,24.72,0,0,1,3.8.53,25.77,25.77,0,0,1,3.88,1.07l.19.07a.3.3,0,0,0,0,.1,39.08,39.08,0,0,1-1,3.9c-.57,1.64-1.15,3-1.4,3.55s-.54,1-.68,1.29a2.18,2.18,0,0,0-.21,1.62l.12.42a2.21,2.21,0,0,0,1,1.32c.25.15.66.42,1.19.77l.1.06.54.37.73.57c.52.42,1.08.88,1.63,1.37a17.9,17.9,0,0,1,1.5,1.43c.47.5.92,1,1.31,1.44l.09.11-.08.09-.32.35a22.83,22.83,0,0,1-2.5,2.54c-.56.48-1.11,1-1.62,1.36Z">
      </path>
      <path class="cls-1" d="M41.7,19.66a22,22,0,1,0,22,22A22.08,22.08,0,0,0,41.7,19.66Zm0,39.69A17.65,17.65,0,1,1,59.35,41.7,17.67,17.67,0,0,1,41.7,59.35Z">
      </path>
      <path class="cls-1" d="M169.56,31c-.52-.69-2.51-2.86-6.31-1.57l-12,4.09-7.59-10.17c-2.41-3.22-5.27-2.56-6.09-2.28s-3.5,1.5-3.44,5.52l.17,12.69-10.34,3.51,2.77,3.71,9.41-3.2a4,4,0,0,0,2.56-3.63l-.17-13.14c0-.75.16-1.19.45-1.29s.7.14,1.15.75L148,36.5a4,4,0,0,0,4.24,1.32l12.45-4.23c1.43-.49,1.89.13,1,1.36l-7.59,10.74a4,4,0,0,0,.06,4.44L166,60.66c.59.79.61,1.33.15,1.48A2,2,0,0,1,165,62l-12.55-3.89a3.77,3.77,0,0,0-2.32.08,3.84,3.84,0,0,0-1.89,1.35l-5.74,8.12,2.77,3.71,6.3-8.93,12.13,3.77a6.16,6.16,0,0,0,3.84.06,4.81,4.81,0,0,0,3.09-3.15A5.57,5.57,0,0,0,169.54,58L162,47.86l7.32-10.37C171.59,34.21,170.08,31.69,169.56,31Z">
      </path>
      <path class="cls-1" d="M135.68,67.7l7.39-10.46c2.32-3.29.81-5.81.29-6.51s-2.51-2.86-6.32-1.56l-12.13,4.12L117.25,43c-2.41-3.22-5.28-2.56-6.1-2.28s-3.5,1.5-3.45,5.52l.18,12.81L95.75,63.2c-3.81,1.29-4.07,4.22-4.06,5.09s.35,3.79,4.19,5l12.24,3.8.17,12.8a5.54,5.54,0,0,0,2.24,4.77,4.8,4.8,0,0,0,4.36.62,6.15,6.15,0,0,0,3-2.4L125.3,82.4l12.23,3.79a6.16,6.16,0,0,0,3.86.07,4.82,4.82,0,0,0,3.08-3.15A5.55,5.55,0,0,0,143.35,78ZM140,82.09a2,2,0,0,1-1.14-.1l-12.64-3.92A4,4,0,0,0,122,79.51l-7.64,10.81a2,2,0,0,1-.84.77c-.46.16-.78-.28-.79-1.27l-.18-13.24A4.08,4.08,0,0,0,109.83,73L97.18,69.07c-1.45-.45-1.46-1.22,0-1.71L109.7,63.1a4.06,4.06,0,0,0,2.58-3.65l-.18-13.24c0-.76.17-1.2.46-1.3s.71.14,1.16.75l7.92,10.61a4.07,4.07,0,0,0,4.28,1.32l12.53-4.26c1.44-.49,1.9.13,1,1.37l-7.64,10.82A4.06,4.06,0,0,0,131.9,70l7.92,10.61C140.41,81.39,140.43,81.93,140,82.09Z">
      </path>
    </g>
  </g>
</svg>
